<?xml version="1.0" standalone="no"?>
<!DOCTYPE svg PUBLIC "-//W3C//DTD SVG 20010904//EN"
 "http://www.w3.org/TR/2001/REC-SVG-20010904/DTD/svg10.dtd">
<svg version="1.0" xmlns="http://www.w3.org/2000/svg"
 width="1280.000000pt" height="1024.000000pt" viewBox="0 0 1280.000000 1024.000000"
 preserveAspectRatio="xMidYMid meet">
<metadata>
Created by potrace 1.16, written by Peter Selinger 2001-2019
</metadata>
<g transform="translate(0.000000,1024.000000) scale(0.100000,-0.100000)"
fill="#000000" stroke="none">
<path d="M2215 9367 c-22 -13 -49 -40 -62 -62 -23 -40 -23 -41 -23 -513 0
-451 1 -475 20 -512 11 -21 34 -49 52 -62 l33 -23 447 -3 448 -3 2 -2763 3
-2763 26 -34 c21 -27 350 -213 1600 -904 l1574 -870 65 0 65 0 1574 870 c1251
692 1579 877 1600 904 l26 34 3 2763 2 2763 448 3 447 3 33 23 c18 13 41 41
52 62 19 37 20 61 20 512 0 472 0 473 -23 513 -13 22 -40 49 -62 62 l-40 23
-4145 0 -4145 0 -40 -23z m1995 -577 l0 -250 -865 0 -865 0 0 250 0 250 865 0
865 0 0 -250z m980 -340 l0 -590 -315 0 -315 0 0 590 0 590 315 0 315 0 0
-590z m2070 340 l0 -250 -860 0 -860 0 0 250 0 250 860 0 860 0 0 -250z m980
-340 l0 -590 -315 0 -315 0 0 590 0 590 315 0 315 0 0 -590z m2080 340 l0
-250 -865 0 -865 0 0 250 0 250 865 0 865 0 0 -250z m-6110 -764 l0 -164 -137
-4 c-146 -4 -176 -12 -220 -60 -12 -12 -26 -36 -32 -51 -8 -20 -11 -726 -11
-2338 0 -2515 -4 -2346 56 -2400 16 -14 578 -329 1249 -700 l1220 -674 65 0
65 0 1220 674 c671 371 1233 686 1249 700 60 54 56 -115 56 2400 0 1612 -3
2318 -11 2338 -6 15 -20 39 -32 51 -44 48 -74 56 -219 60 l-138 4 0 164 0 164
365 0 365 0 -2 -2677 -3 -2676 -175 -97 c-1509 -836 -2736 -1510 -2745 -1508
-7 2 -665 363 -1463 803 l-1451 800 -1 2678 0 2677 365 0 365 0 0 -164z m3050
-1 l0 -165 -860 0 -860 0 0 165 0 165 860 0 860 0 0 -165z m1380 -2653 l0
-2128 -1112 -615 c-611 -337 -1119 -614 -1128 -614 -9 0 -516 276 -1128 614
l-1112 614 0 2129 0 2128 2240 0 2240 0 0 -2128z"/>
<path d="M5158 6930 c-61 -33 -99 -118 -83 -190 4 -17 56 -106 117 -197 60
-91 108 -166 106 -168 -2 -1 -31 -21 -66 -44 -67 -45 -96 -83 -107 -137 -13
-72 38 -166 105 -194 53 -22 132 -8 194 33 31 20 60 38 65 39 13 4 173 -234
163 -243 -4 -4 -52 -21 -107 -39 -124 -40 -155 -59 -183 -108 -22 -40 -22 -41
-22 -579 0 -446 3 -556 16 -634 20 -121 63 -251 119 -357 l43 -85 -147 -221
c-177 -264 -181 -272 -181 -331 0 -118 95 -193 214 -171 57 11 92 50 222 248
68 103 126 188 129 188 3 0 31 -21 63 -47 134 -109 353 -225 500 -264 l82 -22
83 22 c147 39 372 160 508 273 26 21 49 38 51 38 3 0 64 -89 137 -198 147
-221 169 -242 257 -242 105 1 179 82 171 186 -3 47 -17 73 -165 298 l-161 245
54 113 c115 241 125 315 125 970 0 340 -4 526 -11 545 -22 59 -66 90 -183 129
-61 20 -115 40 -119 44 -13 12 151 252 166 243 7 -4 39 -24 72 -46 56 -36 64
-38 122 -35 103 6 163 68 163 165 0 79 -22 116 -99 170 -36 26 -68 48 -70 50
-2 2 39 67 91 146 128 193 131 198 126 269 -7 98 -70 158 -165 158 -95 0 -112
-14 -235 -199 -61 -91 -112 -167 -113 -169 -2 -2 -41 22 -88 53 -99 66 -144
77 -212 51 -114 -44 -150 -186 -69 -276 19 -21 64 -57 99 -80 36 -23 65 -46
65 -51 0 -5 -48 -81 -106 -168 l-106 -159 -176 59 c-97 32 -194 59 -215 59
-22 0 -118 -27 -213 -60 l-174 -59 -111 166 c-84 125 -108 168 -98 174 53 30
156 109 173 131 30 42 34 133 7 185 -33 66 -110 103 -185 89 -19 -4 -69 -29
-111 -57 -42 -27 -80 -50 -85 -52 -5 -1 -58 70 -117 158 -66 98 -121 169 -142
182 -44 30 -130 31 -183 3z m1605 -1345 l347 -118 0 -427 c0 -472 -6 -538 -60
-678 -43 -112 -95 -195 -179 -284 -117 -124 -246 -214 -399 -277 l-73 -30 -89
38 c-253 109 -463 313 -556 541 -58 143 -64 203 -64 681 l0 436 353 121 c193
66 357 119 362 118 6 -2 166 -56 358 -121z"/>
</g>
</svg>
