<?xml version="1.0" standalone="no"?>
<!DOCTYPE svg PUBLIC "-//W3C//DTD SVG 20010904//EN"
 "http://www.w3.org/TR/2001/REC-SVG-20010904/DTD/svg10.dtd">
<svg version="1.0" xmlns="http://www.w3.org/2000/svg"
 width="1280.000000pt" height="1024.000000pt" viewBox="0 0 1280.000000 1024.000000"
 preserveAspectRatio="xMidYMid meet">
<metadata>
Created by potrace 1.16, written by Peter Selinger 2001-2019
</metadata>
<g transform="translate(0.000000,1024.000000) scale(0.100000,-0.100000)"
fill="#000000" stroke="none">
<path d="M1728 10064 c-76 -23 -167 -92 -215 -162 -53 -78 -76 -153 -75 -252
0 -73 18 -131 472 -1505 259 -787 511 -1547 558 -1690 l87 -260 995 -678 c547
-372 1002 -681 1010 -686 11 -7 -43 -96 -275 -446 l-290 -436 -55 6 c-30 4
-86 11 -125 15 -276 35 -608 -26 -872 -158 -157 -79 -274 -164 -412 -298
l-126 -123 282 -283 283 -283 -641 -640 c-352 -352 -660 -667 -685 -701 -58
-81 -99 -171 -125 -274 -18 -72 -21 -104 -17 -224 4 -119 9 -153 32 -221 169
-498 734 -703 1194 -434 41 25 237 213 720 694 l662 660 278 -278 c152 -152
282 -277 288 -277 19 0 225 221 287 307 155 218 257 488 287 762 16 140 7 349
-18 479 l-19 93 26 18 c14 10 281 192 593 404 l568 386 442 -301 c244 -165
511 -347 594 -404 l151 -103 -20 -98 c-27 -132 -30 -444 -5 -578 48 -253 149
-487 296 -685 62 -83 249 -280 266 -280 6 0 136 125 288 277 l278 278 657
-656 c589 -588 666 -661 738 -703 152 -88 339 -129 503 -108 185 23 348 99
471 220 162 160 241 348 241 577 0 182 -45 328 -140 462 -29 40 -307 327 -689
708 l-641 640 282 282 283 283 -85 86 c-203 206 -410 338 -654 419 -135 45
-224 63 -384 77 -129 12 -192 9 -427 -18 l-40 -5 -289 436 c-274 413 -288 436
-270 449 10 8 465 317 1010 688 l991 673 552 1673 c304 921 556 1699 561 1730
29 175 -71 362 -237 444 -60 29 -77 33 -167 36 l-101 3 -1725 -516 c-949 -284
-1728 -520 -1732 -523 -3 -4 -227 -338 -498 -742 -270 -404 -494 -736 -498
-738 -4 -1 -231 332 -505 741 l-497 744 -907 271 c-2829 846 -2537 762 -2632
761 -47 0 -107 -7 -133 -15z m1909 -835 l1551 -464 1644 -2458 c903 -1352
1644 -2462 1645 -2465 2 -4 -29 -23 -69 -42 -80 -39 -237 -139 -258 -165 -12
-15 -49 19 -347 317 l-333 333 -117 -118 -118 -117 328 -328 c180 -180 327
-331 327 -336 0 -4 -14 -26 -32 -49 -18 -22 -59 -86 -93 -142 l-60 -101 -2430
1653 c-1337 909 -2435 1661 -2441 1671 -7 9 -233 690 -504 1512 -271 822 -495
1502 -498 1510 -2 8 1168 -1157 2602 -2590 l2606 -2605 117 118 118 117 -2610
2611 c-1436 1436 -2603 2609 -2595 2606 8 -2 713 -213 1567 -468z m6943 306
l-165 -165 118 -117 117 -118 161 160 c89 88 159 153 157 145 -3 -8 -227 -688
-498 -1510 -271 -822 -497 -1503 -504 -1512 -10 -16 -1895 -1305 -1921 -1314
-5 -2 -138 188 -294 423 l-283 426 1486 1486 1486 1486 -113 113 c-62 61 -117
112 -122 112 -6 0 -666 -656 -1467 -1457 -801 -801 -1459 -1455 -1461 -1453
-2 3 -155 231 -340 508 l-337 503 506 757 507 757 596 178 c328 98 1028 308
1556 466 528 159 964 289 970 290 5 0 -64 -73 -155 -164z m-5487 -5066 c122
-83 228 -156 234 -163 18 -17 -651 -686 -671 -671 -80 58 -206 137 -263 165
-40 19 -71 38 -70 41 1 4 119 183 262 398 161 242 265 389 273 386 7 -2 112
-73 235 -156z m944 -643 c35 -22 62 -43 62 -46 0 -3 -226 -158 -502 -345
l-502 -341 -53 91 c-30 49 -71 113 -93 142 -21 29 -39 56 -39 60 0 4 160 168
356 364 l357 357 176 -120 c97 -66 204 -139 238 -162z m-2137 -201 c119 -25
227 -63 340 -121 348 -178 582 -491 672 -899 20 -93 17 -380 -5 -483 -37 -166
-115 -351 -198 -466 l-42 -58 -893 893 -893 893 40 29 c152 112 371 198 575
226 94 13 313 6 404 -14z m5485 0 c171 -35 314 -94 458 -188 l78 -51 -893
-893 -893 -894 -23 28 c-40 49 -112 180 -148 267 -219 536 -45 1155 421 1504
142 106 371 204 540 231 39 6 81 13 95 15 52 9 288 -3 365 -19z m-5845 -2040
l-335 -335 -335 335 -335 335 110 110 110 110 217 -217 218 -218 117 118 118
117 -218 218 -217 217 107 108 108 107 335 -335 335 -335 -335 -335z m5935
455 l-335 -335 -107 108 -108 107 335 335 335 335 107 -107 108 -108 -335
-335z m455 -455 l-335 -335 -110 110 -110 110 335 335 335 335 110 -110 110
-110 -335 -335z m-7292 -238 l332 -332 -108 -108 -107 -107 -335 335 -335 335
105 105 c58 58 107 105 110 105 3 0 155 -150 338 -333z m7972 228 l105 -105
-335 -335 -335 -335 -107 107 -108 108 332 332 c183 183 335 333 338 333 3 0
52 -47 110 -105z m-8120 -986 c0 -13 -81 -31 -166 -36 -76 -5 -104 -2 -161 15
-137 42 -237 131 -300 267 -45 100 -43 285 5 369 4 8 622 -602 622 -615z
m8464 552 c20 -67 20 -178 2 -247 -54 -204 -235 -345 -446 -347 -81 -1 -200
23 -200 41 0 14 615 621 621 614 4 -4 14 -31 23 -61z"/>
</g>
</svg>
