<?xml version="1.0" standalone="no"?>
<!DOCTYPE svg PUBLIC "-//W3C//DTD SVG 20010904//EN"
 "http://www.w3.org/TR/2001/REC-SVG-20010904/DTD/svg10.dtd">
<svg version="1.0" xmlns="http://www.w3.org/2000/svg"
 width="1280.000000pt" height="1024.000000pt" viewBox="0 0 1280.000000 1024.000000"
 preserveAspectRatio="xMidYMid meet">
<metadata>
Created by potrace 1.16, written by Peter Selinger 2001-2019
</metadata>
<g transform="translate(0.000000,1024.000000) scale(0.100000,-0.100000)"
fill="#000000" stroke="none">
<path d="M4504 9391 c-48 -22 -135 -121 -226 -256 -272 -405 -363 -910 -249
-1386 64 -270 206 -537 404 -761 l57 -65 -36 -79 c-78 -170 -148 -387 -169
-522 l-7 -43 -207 2 c-226 2 -247 -2 -290 -57 -39 -50 -42 -88 -39 -507 l3
-402 24 -38 c39 -64 79 -77 235 -77 l135 0 4 -1187 c3 -1069 5 -1199 21 -1293
64 -388 197 -707 420 -1010 79 -108 244 -281 358 -376 221 -185 514 -339 803
-423 369 -106 815 -107 1197 -1 752 209 1351 825 1537 1583 67 270 64 213 68
1515 l4 1182 177 0 c230 1 272 15 313 105 17 37 19 73 19 445 0 374 -2 408
-19 446 -39 86 -95 103 -341 104 l-175 0 -18 92 c-24 120 -82 296 -144 434
l-50 110 44 50 c79 87 190 241 240 331 162 289 232 579 220 918 -8 254 -61
470 -168 695 -94 197 -279 444 -356 476 -73 31 -169 6 -213 -57 -29 -40 -36
-101 -20 -195 17 -108 15 -311 -5 -429 -47 -277 -182 -541 -379 -740 -50 -51
-117 -111 -148 -134 l-57 -43 -113 55 c-62 30 -120 57 -129 60 -15 5 -15 15 2
124 33 209 33 210 15 258 -20 52 -62 90 -114 105 -53 14 -1398 14 -1457 -1
-46 -12 -101 -58 -116 -97 -14 -36 -10 -116 11 -247 23 -143 24 -145 7 -145
-7 0 -63 -25 -126 -56 -62 -30 -119 -53 -126 -51 -7 3 -52 39 -101 80 -234
196 -402 479 -469 787 -23 110 -30 354 -12 468 22 147 3 206 -83 250 -54 27
-101 28 -156 3z m-14 -1076 c89 -229 218 -423 401 -607 l127 -126 -88 -81
c-49 -45 -122 -121 -163 -170 l-76 -90 -34 38 c-54 59 -130 177 -181 280 -151
300 -184 642 -95 974 l22 78 28 -108 c15 -59 42 -144 59 -188z m3951 120 c80
-392 -19 -804 -271 -1125 -30 -39 -57 -70 -60 -69 -3 0 -34 37 -70 81 -36 44
-108 121 -162 171 l-96 91 94 89 c163 155 288 327 385 532 48 103 111 286 124
365 l8 45 14 -40 c7 -22 23 -85 34 -140z m-1571 -393 c0 -17 -255 -1672 -266
-1724 l-6 -28 -199 0 c-198 0 -199 0 -204 23 -3 12 -64 400 -135 862 -71 462
-131 850 -133 863 l-4 22 473 0 c447 0 474 -1 474 -18z m-1124 -1132 c52 -333
94 -608 94 -612 0 -5 -270 -8 -600 -8 -475 0 -600 3 -600 13 0 6 11 51 24 99
130 474 455 879 889 1109 89 47 92 48 95 26 2 -12 46 -294 98 -627z m1519 594
c373 -210 643 -513 805 -905 30 -72 90 -269 90 -296 0 -11 -108 -13 -601 -13
l-601 0 4 28 c2 15 47 300 98 635 52 334 97 607 100 607 3 0 50 -25 105 -56z
m1435 -1769 l0 -195 -2305 0 -2305 0 0 195 0 195 2305 0 2305 0 0 -195z m-502
-1162 l-3 -618 -347 -278 -346 -278 -84 42 c-203 102 -466 190 -695 231 -112
20 -159 23 -378 22 -278 0 -351 -9 -582 -69 -161 -42 -290 -90 -452 -166
l-124 -59 -344 276 -343 276 0 619 0 619 1850 0 1850 0 -2 -617z m-8 -1678
c-40 -470 -229 -870 -566 -1195 -301 -290 -673 -465 -1086 -509 -899 -98
-1750 493 -1982 1375 -48 183 -56 273 -56 612 0 171 2 312 5 312 3 0 130 -100
283 -222 152 -123 293 -231 312 -240 62 -32 93 -25 281 70 230 117 403 179
618 224 141 29 448 36 600 14 246 -37 468 -111 718 -241 78 -41 158 -77 176
-80 71 -14 102 5 408 250 l294 235 3 -238 c2 -130 -2 -295 -8 -367z"/>
<path d="M5450 4624 c-79 -20 -195 -80 -235 -120 -57 -57 -69 -132 -32 -204
26 -54 73 -87 133 -96 40 -6 54 -2 132 37 81 41 92 44 167 44 73 0 85 -3 145
-36 36 -20 80 -39 99 -43 75 -14 168 40 192 111 15 47 7 128 -18 161 -42 57
-170 126 -283 151 -65 15 -236 12 -300 -5z"/>
<path d="M7030 4625 c-89 -24 -219 -95 -254 -138 -28 -35 -31 -46 -31 -106 0
-59 4 -72 29 -105 38 -50 105 -80 159 -72 22 4 70 23 106 44 61 34 72 37 147
37 74 0 86 -3 155 -39 57 -31 85 -40 124 -40 141 -1 223 157 142 274 -27 39
-125 100 -210 131 -81 28 -284 36 -367 14z"/>
<path d="M5831 2698 c-69 -47 -96 -113 -79 -191 11 -54 49 -95 137 -147 84
-50 176 -84 281 -106 102 -20 312 -15 405 11 76 21 227 92 283 134 78 58 101
149 60 231 -32 63 -76 90 -149 90 -52 0 -69 -6 -144 -49 -193 -110 -396 -108
-575 7 -45 30 -66 37 -120 40 -56 3 -70 0 -99 -20z"/>
</g>
</svg>
