<?xml version="1.0" standalone="no"?>
<!DOCTYPE svg PUBLIC "-//W3C//DTD SVG 20010904//EN"
 "http://www.w3.org/TR/2001/REC-SVG-20010904/DTD/svg10.dtd">
<svg version="1.0" xmlns="http://www.w3.org/2000/svg"
 width="1275.000000pt" height="1020.000000pt" viewBox="0 0 1275.000000 1020.000000"
 preserveAspectRatio="xMidYMid meet">
<metadata>
Created by potrace 1.16, written by Peter Selinger 2001-2019
</metadata>
<g transform="translate(0.000000,1020.000000) scale(0.100000,-0.100000)"
fill="#000000" stroke="none">
<path d="M6853 9661 c133 -144 234 -346 271 -541 33 -170 16 -396 -41 -553
-52 -146 -134 -284 -230 -388 l-55 -59 633 0 634 1 -35 27 c-60 46 -158 143
-199 196 -59 76 -126 210 -157 311 -26 83 -28 104 -28 260 -1 219 22 310 125
492 43 75 180 227 259 286 l35 26 -634 1 -633 0 55 -59z"/>
<path d="M9150 9692 c60 -46 158 -143 199 -196 59 -76 126 -209 157 -311 26
-84 28 -102 28 -265 0 -163 -2 -181 -28 -265 -61 -199 -184 -374 -356 -507
l-35 -27 634 -1 633 0 -55 59 c-133 144 -234 346 -271 541 -20 105 -20 295 0
400 37 195 138 397 271 541 l55 59 -633 0 -634 -1 35 -27z"/>
<path d="M6216 9654 l-26 -39 0 -695 0 -695 26 -39 c31 -46 39 -45 169 19 160
78 288 204 364 358 59 119 81 216 81 357 0 141 -22 238 -81 357 -76 154 -204
280 -364 358 -130 64 -138 65 -169 19z"/>
<path d="M10877 9675 c-188 -69 -359 -222 -446 -398 -59 -119 -81 -216 -81
-357 0 -141 22 -238 81 -357 76 -154 204 -280 364 -358 130 -64 138 -65 169
-19 l26 39 0 695 0 695 -25 38 c-28 41 -33 42 -88 22z"/>
<path d="M8462 9219 c-204 -79 -260 -370 -102 -529 160 -159 452 -102 529 105
47 124 19 266 -69 355 -89 88 -235 116 -358 69z"/>
<path d="M6510 7640 l0 -160 160 0 160 0 0 -160 0 -160 -160 0 -160 0 0 -160
0 -160 1680 0 1680 0 0 -160 0 -160 -1680 0 -1680 0 0 -160 0 -160 320 0 320
0 0 -160 0 -160 -318 0 -319 0 -6 -112 c-4 -62 -7 -134 -7 -160 l0 -48 1365 0
1365 0 0 -160 0 -160 -1379 0 -1378 0 -7 -67 c-11 -102 -53 -322 -92 -477
-149 -595 -434 -1171 -817 -1651 -178 -224 -407 -461 -594 -617 l-53 -43 0
-722 c0 -655 1 -723 16 -723 32 0 385 84 554 132 1930 546 3528 1864 4430
3653 101 202 230 486 230 508 0 4 -133 7 -295 7 l-295 0 0 160 0 160 360 0
359 0 51 156 c27 85 50 157 50 160 0 2 -652 4 -1450 4 l-1450 0 0 160 0 160
1494 0 c1415 0 1495 1 1500 18 6 20 66 289 66 297 0 3 -76 5 -170 5 l-170 0 0
160 0 160 200 0 c110 0 200 3 200 8 0 4 9 74 20 156 11 81 20 150 20 152 0 2
-783 4 -1740 4 l-1740 0 0 160 0 160 1753 0 1754 0 6 107 c4 58 7 130 7 160
l0 53 -2080 0 -2080 0 0 -160z m2779 -3046 l131 -76 -22 -37 c-104 -171 -162
-264 -236 -371 -419 -615 -964 -1184 -1557 -1625 -179 -133 -339 -245 -351
-245 -9 1 -156 224 -162 245 -2 7 23 29 55 50 755 498 1487 1264 1947 2038 32
53 60 97 61 97 2 0 62 -34 134 -76z m-2633 -644 l132 -53 -30 -71 c-60 -141
-98 -218 -106 -214 -67 26 -262 124 -262 132 0 24 115 266 124 262 6 -2 70
-27 142 -56z m-288 -572 c70 -39 129 -72 131 -74 2 -2 -34 -64 -79 -138 l-82
-135 -56 36 c-31 20 -89 58 -129 85 l-72 48 76 125 c42 69 78 125 80 125 2 0
61 -32 131 -72z m-348 -538 l120 -91 -69 -87 c-38 -48 -83 -102 -99 -121 -34
-41 -22 -46 -165 78 -83 72 -95 86 -84 100 30 42 170 211 173 211 3 0 59 -41
124 -90z m-420 -485 l105 -105 -100 -100 c-55 -55 -103 -99 -107 -98 -4 2 -52
52 -107 113 l-99 109 97 93 c53 51 98 92 101 93 3 0 52 -47 110 -105z"/>
<path d="M4502 2085 c-45 -29 -116 -73 -157 -97 l-75 -43 0 -553 0 -553 53 7
c122 14 261 34 264 37 2 2 2 286 1 630 l-3 626 -83 -54z"/>
<path d="M3805 1719 c-77 -32 -148 -60 -157 -62 -17 -5 -18 -32 -18 -432 l0
-428 158 8 c86 4 158 8 160 9 1 2 1 219 0 483 l-3 481 -140 -59z"/>
<path d="M1710 1080 l0 -640 268 0 c249 0 269 1 300 20 18 11 41 34 52 52 19
32 20 52 20 568 0 516 -1 536 -20 568 -11 18 -34 41 -52 52 -31 19 -51 20
-300 20 l-268 0 0 -640z"/>
<path d="M3275 1538 c-82 -23 -294 -68 -410 -87 -71 -12 -145 -24 -162 -27
l-33 -5 0 -331 0 -331 78 7 c42 3 181 9 309 12 127 4 236 10 242 14 8 4 10
118 9 381 l-3 375 -30 -8z"/>
</g>
</svg>
