<?xml version="1.0" encoding="UTF-8" standalone="no"?>
<svg
   version="1.0"
   width="1280pt"
   height="1024pt"
   viewBox="0 0 1280 1024"
   preserveAspectRatio="xMidYMid"
   id="svg28"
   sodipodi:docname="like.svg"
   xmlns:inkscape="http://www.inkscape.org/namespaces/inkscape"
   xmlns:sodipodi="http://sodipodi.sourceforge.net/DTD/sodipodi-0.dtd"
   xmlns="http://www.w3.org/2000/svg"
   xmlns:svg="http://www.w3.org/2000/svg">
  <defs
     id="defs32" />
  <sodipodi:namedview
     id="namedview30"
     pagecolor="#ffffff"
     bordercolor="#000000"
     borderopacity="0.25"
     inkscape:showpageshadow="2"
     inkscape:pageopacity="0.0"
     inkscape:pagecheckerboard="0"
     inkscape:deskcolor="#d1d1d1"
     inkscape:document-units="pt"
     showgrid="false" />
  <metadata
     id="metadata18">
Created by potrace 1.16, written by Peter Selinger 2001-2019
</metadata>
  <g
     transform="matrix(0.1,0,0,-0.1,0,1024)"
     fill="#000000"
     stroke="none"
     id="g26">
    <path
       d="m 3755,10064 c -506,-94 -913,-426 -1096,-893 -40,-103 -89,-290 -89,-343 0,-28 -1,-28 -62,-28 -287,0 -620,-164 -813,-400 -172,-210 -255,-444 -255,-720 0,-214 50,-404 150,-571 152,-251 365,-419 645,-504 50,-16 91,-29 92,-29 1,-1 -11,-42 -27,-91 -195,-611 -326,-1398 -371,-2241 -15,-295 -6,-1146 15,-1419 61,-764 163,-1416 321,-2062 49,-196 135,-499 164,-576 l 11,-27 2922,2 2922,3 37,115 c 20,63 61,206 90,317 l 54,202 690,3 c 673,3 693,4 793,26 721,158 1249,696 1389,1413 17,88 18,180 18,1444 v 1350 l -23,108 c -139,657 -610,1170 -1242,1352 -218,63 -252,65 -1013,65 h -685 l -6,26 c -8,32 -6,34 64,64 306,127 551,414 640,750 31,118 39,358 16,483 -67,356 -285,644 -611,805 -168,83 -320,115 -521,110 -128,-3 -135,-2 -139,17 -2,11 -11,61 -20,110 -76,416 -374,809 -762,1004 -206,103 -359,141 -600,148 -110,4 -201,1 -255,-7 -240,-35 -470,-130 -664,-273 -85,-63 -235,-214 -289,-290 -22,-31 -42,-57 -45,-57 -3,0 -26,28 -50,62 -66,91 -213,234 -315,306 -149,106 -338,190 -525,234 -115,27 -437,34 -555,12 z m 375,-319 c 91,-7 238,-49 335,-94 224,-105 420,-294 530,-510 l 27,-55 -21,-85 c -29,-122 -41,-205 -41,-288 v -73 h 164 163 l 6,98 c 23,377 280,744 641,913 226,106 506,130 750,65 415,-111 738,-461 811,-884 24,-139 26,-134 -57,-180 -152,-84 -281,-206 -385,-365 -57,-87 -119,-225 -106,-237 9,-8 282,-105 296,-105 5,0 18,23 30,50 118,280 411,475 717,476 308,1 581,-165 716,-436 61,-123 84,-222 84,-355 0,-365 -246,-679 -602,-769 -47,-12 -134,-23 -218,-27 l -140,-7 -2,-1131 -3,-1131 -27,-58 c -35,-74 -121,-160 -195,-195 -52,-24 -70,-27 -163,-27 -93,0 -111,3 -163,27 -72,34 -160,121 -192,191 -14,29 -29,84 -35,122 -6,44 -10,475 -10,1138 v 1067 h -565 -565 l -2,-1532 -3,-1533 -27,-58 c -35,-74 -121,-160 -195,-195 -52,-24 -70,-27 -163,-27 -93,0 -111,3 -163,27 -72,34 -160,121 -192,191 -14,29 -29,84 -35,122 -6,43 -10,422 -10,978 v 907 h -164 -165 l -3,-252 c -3,-251 -3,-253 -30,-311 -35,-74 -121,-160 -195,-195 -52,-24 -70,-27 -163,-27 -99,0 -110,2 -171,32 -121,60 -198,169 -219,308 -6,42 -10,369 -10,817 v 747 l -772,4 c -877,4 -835,1 -1013,87 -172,84 -281,193 -365,365 -59,123 -80,212 -80,348 0,344 228,653 555,751 107,32 142,37 249,37 294,-2 573,-182 702,-454 20,-43 42,-76 48,-74 6,2 72,26 146,52 74,27 139,51 143,55 14,12 -50,153 -115,251 -72,108 -195,234 -294,301 -82,55 -211,120 -272,139 -48,14 -48,10 -15,154 80,350 342,650 683,785 122,48 325,83 430,74 19,-2 64,-6 100,-9 z M 3682,5883 c 3,-672 3,-679 25,-736 22,-58 22,-59 8,-270 -18,-256 -35,-646 -35,-779 v -98 h -715 -715 v 28 c 0,15 5,110 10,212 43,798 169,1545 367,2173 l 46,147 h 503 503 z M 6720,5280 V 4000 h -235 -235 v 1280 1280 h 235 235 z m 2970,950 c 434,-32 810,-239 1069,-590 77,-104 182,-314 216,-435 62,-218 60,-160 60,-1525 0,-1132 -2,-1254 -17,-1340 -50,-276 -162,-515 -336,-717 -218,-251 -517,-419 -857,-480 -74,-13 -196,-17 -689,-20 l -599,-5 7,34 c 4,18 22,116 41,218 19,102 37,195 40,207 l 5,22 578,3 c 566,4 578,4 651,26 333,102 581,350 671,673 11,41 25,126 30,189 13,151 13,2229 0,2380 -5,63 -19,148 -30,189 -90,323 -338,571 -671,673 -73,22 -84,22 -665,26 l -591,3 -13,67 c -7,37 -32,145 -55,240 l -42,172 h 531 c 292,0 592,-5 666,-10 z M 8215,5978 c 139,-579 216,-1144 251,-1845 l 6,-133 -458,1 h -459 l 73,19 c 247,65 443,263 515,519 20,74 21,98 25,834 2,416 5,757 7,757 2,0 20,-69 40,-152 z m 1539,-562 c 145,-41 264,-123 354,-241 71,-95 110,-198 123,-328 6,-66 9,-509 6,-1242 -3,-1057 -4,-1144 -21,-1200 -68,-230 -233,-395 -461,-461 -52,-15 -125,-17 -567,-21 -280,-3 -508,-1 -508,4 0,4 11,94 24,198 27,208 58,523 78,795 21,276 18,1285 -5,1565 -21,268 -59,608 -90,808 l -23,149 515,-4 c 449,-4 524,-7 575,-22 z M 4800,4375 v -375 h -395 -395 v 78 c 0,108 20,624 25,640 3,9 18,6 56,-13 178,-91 458,-87 632,9 34,18 65,34 70,35 4,0 7,-168 7,-374 z m 72,-773 c 92,-190 276,-339 480,-387 91,-21 258,-19 350,4 201,52 375,195 466,383 l 37,78 h 1133 1132 v -183 c 0,-101 -3,-245 -7,-320 l -6,-137 H 5360 2263 l -6,137 c -4,75 -7,219 -7,320 v 183 H 3543 4835 Z M 3710,2713 c 0,-33 35,-392 51,-533 70,-606 174,-1144 326,-1682 5,-17 -33,-18 -699,-18 h -705 l -46,173 c -148,556 -262,1189 -327,1810 -11,108 -20,211 -20,227 v 30 h 710 c 391,0 710,-3 710,-7 z m 2964,-65 c -3,-40 -10,-109 -14,-153 -4,-44 -7,-81 -6,-82 4,-5 320,-33 324,-28 5,5 30,252 31,313 l 1,22 h 710 710 v -32 c 0,-18 -9,-118 -20,-223 -69,-657 -187,-1291 -361,-1943 l -11,-42 h -704 c -387,0 -704,2 -704,4 0,2 18,69 39,148 88,319 172,723 230,1103 44,287 49,325 42,329 -14,8 -311,39 -317,33 -4,-3 -20,-95 -35,-204 -67,-466 -181,-998 -289,-1345 l -21,-68 h -919 -919 l -25,83 c -154,506 -282,1190 -345,1842 -11,116 -23,234 -26,263 l -5,52 h 1320 1320 z"
       id="path20" />
    <path
       d="m 2720,7360 v -160 h 160 160 v 160 160 h -160 -160 z"
       id="path22" />
    <path
       d="m 3360,7360 v -160 h 1280 1280 v 160 160 H 4640 3360 Z"
       id="path24" />
  </g>
  <path
     style="fill:#ffd700;fill-opacity:1;stroke-width:4.33898"
     d="m 542.37288,667.30856 c -3.57966,-1.30855 -10.68757,-6.17498 -15.79535,-10.81422 -8.79332,-7.98673 -9.45569,-13.83767 -12.46337,-110.0918 l -3.17648,-101.65678 h -16.82477 -16.82478 v 27.5698 c 0,23.25076 -1.66689,29.36842 -10.64027,39.05086 -14.25904,15.38573 -37.54851,15.7545 -52.47221,0.83079 -10.58112,-10.58109 -10.65023,-11.20048 -10.65023,-95.45761 v -84.8074 h -82.61353 c -74.32015,0 -84.33802,-0.87976 -99.79178,-8.76368 -39.4615,-20.13176 -53.17788,-71.17422 -28.96031,-107.76943 30.64925,-46.31413 96.91419,-46.49088 127.45543,-0.33996 7.33075,11.07751 13.82689,16.59299 17.76387,15.08222 3.41371,-1.30996 10.90671,-3.56136 16.65112,-5.00312 5.74439,-1.44175 10.44435,-4.4592 10.44435,-6.70544 0,-15.38326 -34.1298,-53.35409 -59.36941,-66.05093 -12.31826,-6.19673 -13.43135,-8.26781 -10.304,-19.17224 10.43851,-36.39698 39.37278,-66.114014 74.54138,-76.557966 12.50755,-3.714342 26.77983,-6.74246 31.71617,-6.72915 28.05067,0.07563 68.02594,21.882514 86.82579,47.364286 9.62139,13.04105 10.53219,17.50295 8.1755,40.05057 l -2.65217,25.3745 h 17.92277 c 17.43042,0 17.99598,-0.45774 20.58724,-16.66264 3.99681,-24.99464 23.38895,-57.215642 43.74649,-72.686933 52.08507,-39.583541 124.2017,-24.027333 157.45988,33.965523 17.10949,29.83413 17.05557,43.35612 -0.22172,55.65879 -16.43086,11.69969 -38.6652,41.66416 -38.6652,52.10758 0,9.89888 31.05115,21.51503 33.98495,12.71367 4.15905,-12.47711 32.65494,-38.90235 47.08696,-43.66534 18.82425,-6.21256 49.58633,-3.25656 63.93255,6.14343 32.94443,21.58601 45.84173,64.3713 29.22367,96.9455 -15.62677,30.63101 -32.86687,41.21619 -74.43149,45.70006 l -10.84748,1.1702 -1.1586,114.8227 -1.1586,114.8227 -11.5854,12.09257 c -12.53782,13.08664 -32.70334,16.01003 -45.04969,6.53082 -15.68968,-12.04618 -16.97992,-22.48201 -16.97992,-137.33948 V 331.9322 H 648.67796 590.1017 v 152.07989 c 0,168.09198 -0.64784,172.52199 -26.54955,181.55137 -7.58793,2.64518 -13.99302,4.65526 -14.23353,4.46686 -0.24049,-0.1884 -3.36608,-1.41317 -6.94574,-2.72176 z M 308.06779,288.54237 v -17.35593 h -19.52542 -19.52542 v 17.35593 17.35594 h 19.52542 19.52542 z m 286.37289,0 V 271.18644 H 464.27119 334.1017 v 17.35593 17.35594 h 130.16949 130.16949 z"
     id="path276" />
  <path
     style="fill:#ffd700;fill-opacity:1;stroke-width:3.06812"
     d="m 261.7307,622.07062 c 19.92296,-0.53524 51.67805,-0.53348 70.56686,0.004 18.88881,0.5374 2.58821,0.97533 -36.22356,0.97317 -38.81178,-0.002 -54.26626,-0.44184 -34.3433,-0.9771 z"
     id="path278" />
  <path
     style="fill:#ffd700;fill-opacity:1;stroke-width:3.06812"
     d="m 228.3376,588.31284 c 3.48202,-53.82193 13.66563,-118.77042 26.52651,-169.17945 6.63449,-26.00429 12.0627,-47.7629 12.0627,-48.35246 0,-0.58957 21.92266,-1.07195 48.71701,-1.07195 h 48.71701 l 2.38708,54.45921 c 2.79143,63.68405 2.68808,168.31025 -0.18305,185.30427 l -1.99743,11.82272 h -69.18182 -69.18182 z"
     id="path282" />
  <path
     style="fill:#ffd700;fill-opacity:1;stroke-width:3.06812"
     d="m 401.92429,611.01965 c 0,-5.65153 0.88381,-20.73101 1.96403,-33.50995 l 1.96402,-23.23443 7.94445,3.02046 c 10.56201,4.01568 44.5403,3.85983 52.19981,-0.2394 11.80967,-6.32035 12.63079,-4.33824 12.63079,30.48948 v 33.74937 h -38.35155 -38.35155 z"
     id="path288" />
  <path
     style="fill:#ffd700;fill-opacity:1;stroke-width:3.06812"
     d="m 625.89736,495.50208 v -125.7931 h 23.01093 23.01094 v 125.7931 125.7931 h -23.01094 -23.01093 z"
     id="path290" />
  <path
     style="fill:#ffd700;fill-opacity:1;stroke-width:3.06812"
     d="m 227.0412,688.79392 v -30.68125 h 127.07692 127.07693 l 6.17157,9.97141 c 8.7985,14.21574 21.68319,25.77163 34.883,31.28551 14.11926,5.89795 45.21415,6.1874 58.71461,0.54657 13.92336,-5.81756 31.14066,-21.52248 35.7229,-32.58499 l 3.81844,-9.2185 h 113.58546 113.58544 l -1.97115,18.85881 c -1.08412,10.37235 -1.97115,24.17891 -1.97115,30.68125 v 11.82243 H 535.38769 227.0412 Z"
     id="path292" />
  <path
     style="fill:#ffd700;fill-opacity:1;stroke-width:3.06812"
     d="m 785.60617,612.63496 c 9.13163,-5.79769 16.65585,-14.16429 22.76363,-25.31203 l 9.12345,-16.6518 1.61497,-70.56686 1.61505,-70.56687 6.88245,35.28344 c 9.02798,46.28223 12.345,71.33865 14.62208,110.45247 1.03155,17.71842 2.50912,35.32178 3.2835,39.11859 1.3989,6.85903 1.16767,6.90328 -36.0687,6.90328 H 771.966 Z"
     id="path294" />
  <path
     style="fill:#ffd700;fill-opacity:1;stroke-width:3.06812"
     d="m 440.15399,956.53305 c -8.76246,-29.88585 -22.09351,-98.46367 -27.29511,-140.412 -2.7202,-21.93705 -5.61928,-45.06308 -6.4424,-51.39105 l -1.49658,-11.50545 h 130.82189 130.8219 l -1.44637,15.05272 c -1.4091,14.6646 -1.21153,15.09968 7.66347,16.87463 5.01041,1.00207 12.97989,1.82197 17.70993,1.82197 8.12337,0 8.71695,-0.9354 10.70844,-16.8747 l 2.10835,-16.87462 h 68.67926 68.6793 l -0.012,9.9714 c -0.008,5.48422 -3.45465,33.4425 -7.6617,62.12947 -6.75742,46.07723 -11.6235,70.56083 -26.37345,132.69638 l -3.82395,16.10767 h -68.50584 c -37.67822,0 -68.50585,-0.65197 -68.50585,-1.44885 0,-0.79695 3.43663,-14.94862 7.63696,-31.44832 7.56929,-29.73353 24.43566,-123.36345 22.51106,-124.96523 -0.55046,-0.4581 -8.79485,-1.59915 -18.32088,-2.53567 l -17.32004,-1.70273 -2.15704,17.26433 c -2.69294,21.55357 -21.18932,110.9352 -26.7975,129.49582 l -4.17171,13.8066 -90.91202,0.81233 -90.91203,0.81232 z"
     id="path304" />
  <path
     style="fill:#ffd700;fill-opacity:1;stroke-width:3.06812"
     d="M 268.48368,970.29435 C 257.52371,938.41897 230.10932,785.0139 230.10932,755.5596 c 0,-1.34768 31.37432,-2.07923 69.72071,-1.62563 l 69.72069,0.82463 3.69263,36.8175 c 4.89748,48.8304 11.60317,89.6532 22.65243,137.90302 5.00315,21.84773 9.09663,40.83173 9.09663,42.18675 0,1.35495 -30.41776,2.4636 -67.59503,2.4636 -51.32731,0 -67.91238,-0.92295 -68.9137,-3.83512 z"
     id="path306" />
  <path
     style="fill:#ffd700;fill-opacity:1;stroke-width:3.06812"
     d="m 856.1406,907.39777 c 0.0735,-1.26562 1.8516,-10.58505 3.951,-20.70982 l 3.8172,-18.40875 64.31467,-3.20963 c 55.58693,-2.77402 65.9802,-4.08637 76.58723,-9.67072 17.8007,-9.3717 34.9615,-27.62348 44.1417,-46.94805 l 8.0164,-16.8747 V 655.04455 c 0,-133.18203 -0.1611,-136.87026 -6.5685,-150.3381 -9.9756,-20.96791 -26.9564,-38.57049 -46.4356,-48.13596 -17.22623,-8.45908 -18.7521,-8.64336 -79.6347,-9.61686 l -62.07195,-0.99251 -2.93835,-11.27998 c -1.6161,-6.20399 -3.86663,-16.45744 -5.00123,-22.78545 l -2.0628,-11.50546 42.52815,0.0792 c 69.22973,0.12886 99.23438,4.12721 125.39468,16.70982 36.8596,17.72874 63.2595,48.27939 75.2519,87.0834 5.5933,18.09804 6.0237,28.89921 5.9898,150.3381 -0.039,139.559 -0.678,146.76177 -15.7236,177.1871 -16.3953,33.1548 -54.5958,63.48547 -92.75458,73.64595 -16.96695,4.51777 -137.05035,6.2418 -136.80142,1.96402 z"
     id="path308" />
</svg>
