<?xml version="1.0" standalone="no"?>
<!DOCTYPE svg PUBLIC "-//W3C//DTD SVG 20010904//EN"
 "http://www.w3.org/TR/2001/REC-SVG-20010904/DTD/svg10.dtd">
<svg version="1.0" xmlns="http://www.w3.org/2000/svg"
 width="1280.000000pt" height="1024.000000pt" viewBox="0 0 1280.000000 1024.000000"
 preserveAspectRatio="xMidYMid meet">
<metadata>
Created by potrace 1.16, written by Peter Selinger 2001-2019
</metadata>
<g transform="translate(0.000000,1024.000000) scale(0.100000,-0.100000)"
fill="#000000" stroke="none">
<path d="M6150 10070 c-710 -98 -1304 -573 -1553 -1240 -20 -53 -43 -125 -52
-160 l-16 -65 -104 51 c-105 52 -212 90 -340 121 -61 14 -151 17 -671 20 -594
4 -601 4 -658 -17 -75 -29 -147 -100 -175 -175 -51 -137 -11 -350 94 -496 32
-44 35 -55 44 -161 14 -154 51 -271 119 -372 28 -40 29 -50 36 -190 9 -178 30
-269 91 -391 75 -153 197 -275 350 -350 142 -71 214 -85 435 -85 265 0 435 34
638 126 41 19 77 34 80 34 10 0 -8 -228 -27 -340 -61 -346 -207 -711 -426
-1060 -96 -153 -129 -221 -155 -324 -25 -99 -28 -283 -5 -370 l15 -58 -63 -72
c-172 -193 -270 -352 -350 -566 -87 -234 -112 -465 -105 -975 4 -283 6 -303
27 -358 41 -105 163 -197 261 -197 l30 0 0 -1120 0 -1120 2725 0 2725 0 0
1120 0 1120 35 0 c94 0 207 77 255 175 l25 50 0 485 0 485 -28 120 c-74 309
-222 586 -426 792 l-51 52 15 63 c22 94 20 277 -5 374 -26 102 -59 171 -154
322 -268 427 -431 890 -453 1290 -3 61 -4 112 -1 112 3 0 39 -15 80 -34 203
-92 373 -126 638 -126 222 0 294 14 440 87 81 40 109 62 195 148 86 86 108
114 148 195 68 136 87 223 87 388 l0 135 37 55 c78 118 123 265 123 404 0 74
2 80 37 125 110 144 155 367 102 508 -28 75 -100 146 -175 175 -57 21 -64 21
-658 17 -520 -3 -610 -6 -671 -20 -128 -31 -235 -69 -340 -121 l-103 -51 -18
65 c-157 599 -630 1103 -1229 1310 -211 72 -326 91 -585 95 -124 2 -254 0
-290 -5z m490 -335 c656 -101 1184 -604 1321 -1261 18 -87 18 -98 5 -113 -12
-13 -13 -20 -4 -29 9 -9 -348 -12 -1562 -12 -1214 0 -1571 3 -1562 12 9 9 8
16 -4 29 -13 15 -13 26 5 113 138 661 675 1169 1336 1265 99 14 361 12 465 -4z
m-2770 -1265 c201 -17 367 -74 532 -182 l80 -53 -6 -59 c-3 -32 -6 -283 -6
-557 l0 -499 -47 -35 c-59 -43 -208 -117 -288 -144 -122 -40 -215 -53 -375
-54 -131 0 -165 3 -217 20 -151 50 -275 175 -318 322 -6 21 -5 23 11 17 11 -4
52 -16 93 -27 62 -16 110 -19 293 -19 l218 0 0 159 0 158 -197 5 c-162 5 -209
9 -260 26 -121 39 -225 127 -281 238 l-30 59 224 -3 224 -3 0 160 0 161 -147
0 c-226 0 -305 19 -386 89 -45 40 -87 120 -94 181 l-6 50 434 0 c239 0 486 -5
549 -10z m6037 -39 c-11 -92 -70 -178 -154 -223 -65 -36 -148 -48 -325 -48
l-148 0 0 -161 0 -160 224 3 224 3 -30 -59 c-56 -111 -160 -199 -281 -238 -51
-17 -98 -21 -259 -26 l-198 -5 0 -158 0 -159 218 0 c183 0 231 3 293 19 41 11
82 23 93 27 16 6 17 4 11 -17 -30 -102 -112 -209 -205 -269 -93 -60 -156 -74
-330 -73 -160 1 -253 14 -375 54 -80 27 -229 101 -287 144 l-48 35 0 499 c0
274 -3 525 -6 557 l-6 59 80 53 c160 105 340 168 522 182 52 4 297 8 544 9
l449 1 -6 -49z m-3974 -463 c-4 -18 -8 -76 -8 -128 0 -52 4 -110 8 -127 l9
-33 -571 0 -571 0 0 160 0 160 571 0 571 0 -9 -32z m2067 -128 l0 -160 -571 0
-571 0 9 33 c4 17 8 75 8 127 0 52 -4 110 -8 128 l-9 32 571 0 571 0 0 -160z
m-1522 130 c45 -28 72 -76 72 -130 0 -54 -27 -102 -72 -130 -69 -42 -166 -17
-208 52 -42 69 -17 166 52 208 20 12 51 20 78 20 27 0 58 -8 78 -20z m-1358
-1079 c0 -514 4 -566 60 -733 82 -246 239 -463 445 -618 l93 -70 -45 -177
c-24 -98 -46 -179 -47 -181 -2 -1 -198 -27 -436 -57 -239 -30 -469 -62 -512
-70 -122 -25 -252 -71 -385 -135 l-123 -59 0 44 c0 74 35 159 121 297 222 355
390 756 459 1096 43 215 50 315 50 733 l0 399 160 0 160 0 0 -469z m2230 -1
c0 -516 -3 -550 -61 -701 -84 -217 -290 -426 -508 -514 -219 -90 -496 -91
-721 -4 -224 86 -424 274 -525 492 -82 177 -95 289 -95 820 l0 377 955 0 955
0 0 -470z m650 71 c0 -418 7 -518 50 -733 70 -340 237 -739 459 -1095 86 -138
121 -224 121 -298 l0 -44 -122 59 c-136 65 -261 109 -384 134 -44 9 -275 41
-514 71 -238 30 -434 56 -436 57 -3 4 -84 324 -84 336 0 5 40 38 88 75 206
153 361 366 441 606 59 175 62 211 68 744 l5 487 154 0 154 0 0 -399z m-1835
-1662 c86 -18 126 -20 290 -16 136 3 208 10 253 22 35 9 66 15 69 12 3 -3 24
-83 48 -177 l43 -170 -26 -51 c-14 -29 -52 -80 -85 -115 -194 -208 -520 -208
-714 0 -33 35 -71 86 -85 114 l-26 51 46 181 c42 171 46 181 66 175 12 -3 66
-15 121 -26z m-652 -1046 l194 -487 -61 -52 c-152 -130 -278 -340 -338 -562
-32 -121 -37 -364 -8 -502 90 -440 429 -777 875 -871 125 -26 324 -26 455 1
439 90 778 429 871 875 23 112 25 320 4 432 -47 247 -174 470 -360 634 l-51
45 192 483 c106 266 194 485 196 486 8 8 546 -67 619 -85 438 -112 789 -431
937 -852 65 -182 74 -262 79 -691 l6 -387 -324 2 -324 3 -8 80 c-24 244 -104
512 -234 777 l-86 177 -148 -74 -148 -75 79 -162 c94 -195 132 -294 170 -450
41 -165 53 -290 48 -490 -4 -157 -13 -230 -98 -780 l-94 -608 -1556 0 -1556 0
-68 443 c-126 817 -126 816 -126 997 0 328 62 574 231 912 l69 138 -148 74
-149 75 -86 -177 c-130 -265 -210 -533 -234 -777 l-8 -80 -324 -3 -324 -2 6
387 c5 430 12 490 72 670 80 240 228 456 418 609 152 121 325 210 508 259 71
18 487 81 625 94 7 1 100 -218 207 -486z m1460 105 c-80 -200 -151 -377 -158
-395 l-14 -32 -56 19 c-196 67 -494 67 -689 0 l-57 -19 -9 22 c-29 66 -300
750 -300 755 0 4 15 -16 34 -43 72 -106 218 -226 344 -282 192 -85 472 -85
664 0 127 56 283 185 349 289 17 26 32 48 34 48 2 0 -62 -163 -142 -362z
m-733 -863 c0 -130 -3 -165 -13 -165 -7 0 -42 -17 -77 -39 l-64 -38 -130 75
c-72 41 -133 77 -135 79 -16 13 142 139 229 183 34 18 163 65 188 70 1 0 2
-74 2 -165z m489 104 c35 -16 91 -49 125 -73 62 -45 133 -113 125 -120 -2 -2
-63 -37 -135 -78 l-130 -75 -64 39 c-35 21 -70 38 -77 38 -10 0 -13 35 -13
164 l0 165 53 -15 c28 -9 81 -29 116 -45z m-921 -569 l112 -64 0 -86 0 -86
-129 -74 c-71 -40 -133 -73 -138 -72 -18 1 -42 130 -42 227 -1 87 17 208 35
237 3 5 15 3 27 -5 12 -7 73 -42 135 -77z m1366 10 c21 -90 20 -246 -2 -328
-9 -35 -21 -64 -25 -64 -5 -1 -67 32 -138 72 l-129 74 0 86 0 85 133 76 c72
43 135 75 139 73 3 -2 14 -35 22 -74z m-696 -30 c45 -28 72 -76 72 -130 0 -54
-27 -102 -72 -130 -69 -42 -166 -17 -208 52 -60 99 14 228 130 228 27 0 58 -8
78 -20z m-285 -566 l47 -24 0 -160 0 -159 -52 15 c-79 23 -174 69 -242 118
-70 51 -136 117 -121 123 6 2 66 37 135 77 l125 74 30 -20 c17 -10 51 -30 78
-44z m786 -91 c8 -6 -64 -75 -125 -119 -68 -49 -163 -95 -241 -118 l-53 -15 0
159 0 160 48 24 c26 14 60 34 76 44 l28 20 132 -76 c72 -42 133 -77 135 -79z
m-2654 -10 c8 -68 272 -1807 280 -1840 l5 -23 -305 0 -305 0 0 960 0 960 159
0 160 0 6 -57z m4475 -903 l0 -960 -305 0 -305 0 5 23 c8 33 272 1772 280
1840 l6 57 160 0 159 0 0 -960z m-895 -652 c-2 -7 -13 -79 -25 -160 l-22 -148
-1459 0 c-1383 0 -1459 1 -1460 18 0 9 -10 81 -23 160 l-22 142 1508 0 c1201
0 1507 -3 1503 -12z"/>
<path d="M5832 7020 c-48 -30 -72 -75 -72 -140 0 -65 24 -110 72 -140 22 -14
51 -20 88 -20 37 0 66 6 88 20 48 30 72 75 72 140 0 37 -6 66 -20 88 -30 48
-75 72 -140 72 -37 0 -66 -6 -88 -20z"/>
<path d="M6792 7020 c-48 -30 -72 -75 -72 -140 0 -65 24 -110 72 -140 22 -14
51 -20 88 -20 37 0 66 6 88 20 48 30 72 75 72 140 0 65 -24 110 -72 140 -22
14 -51 20 -88 20 -37 0 -66 -6 -88 -20z"/>
<path d="M5917 6403 l-148 -74 32 -59 c64 -120 166 -217 294 -280 109 -54 179
-70 305 -70 126 0 196 16 305 70 128 63 230 160 294 280 l32 59 -149 75 -148
74 -24 -44 c-33 -63 -119 -138 -185 -163 -74 -28 -176 -28 -249 0 -66 24 -147
95 -184 159 l-27 47 -148 -74z"/>
</g>
</svg>
