<?xml version="1.0" standalone="no"?>
<!DOCTYPE svg PUBLIC "-//W3C//DTD SVG 20010904//EN"
 "http://www.w3.org/TR/2001/REC-SVG-20010904/DTD/svg10.dtd">
<svg version="1.0" xmlns="http://www.w3.org/2000/svg"
 width="1280.000000pt" height="1024.000000pt" viewBox="0 0 1280.000000 1024.000000"
 preserveAspectRatio="xMidYMid meet">
<metadata>
Created by potrace 1.16, written by Peter Selinger 2001-2019
</metadata>
<g transform="translate(0.000000,1024.000000) scale(0.100000,-0.100000)"
fill="#000000" stroke="none">
<path d="M2261 9000 c-39 -9 -77 -35 -105 -74 -21 -27 -21 -38 -24 -719 -2
-381 0 -706 3 -724 7 -39 46 -87 89 -111 27 -15 75 -17 406 -20 415 -4 464 -1
512 31 43 29 78 83 78 118 l0 29 215 0 215 0 0 -2447 c0 -1677 3 -2460 11
-2486 5 -21 24 -52 42 -69 37 -35 2618 -1282 2674 -1291 19 -3 53 0 76 7 68
22 2619 1254 2645 1279 55 50 52 -110 52 2547 l0 2460 215 0 215 0 0 -22 c0
-35 41 -100 78 -125 48 -32 97 -35 512 -31 326 3 379 5 405 20 39 21 71 56 84
91 15 39 15 1395 0 1434 -13 35 -45 70 -84 91 -26 15 -80 17 -427 20 -262 2
-411 -1 -437 -8 -70 -19 -131 -86 -131 -145 l0 -25 -3180 0 -3180 0 0 25 c0
58 -60 126 -128 145 -44 12 -779 12 -831 0z m609 -820 l0 -470 -195 0 -195 0
0 470 0 470 195 0 195 0 0 -470z m7450 0 l0 -470 -195 0 -195 0 0 470 0 470
195 0 195 0 0 -470z m-750 0 l0 -300 -3175 0 -3175 0 0 300 0 300 3175 0 3175
0 0 -300z m-772 -3035 l-3 -2386 -1193 -574 c-656 -316 -1197 -575 -1202 -575
-4 0 -545 259 -1202 575 l-1193 575 -3 2385 -2 2385 2400 0 2400 0 -2 -2385z"/>
<path d="M4695 6774 c-68 -35 -95 -82 -95 -161 0 -66 33 -120 90 -150 44 -24
48 -24 306 -21 259 3 261 3 297 28 110 75 100 248 -16 304 -51 23 -536 24
-582 0z"/>
<path d="M5995 6767 c-96 -54 -114 -188 -37 -271 50 -53 70 -56 339 -56 230 0
250 1 290 21 63 30 87 70 91 149 3 55 0 70 -20 99 -52 77 -48 76 -351 79 -267
2 -273 2 -312 -21z"/>
<path d="M7325 6776 c-132 -59 -135 -248 -5 -313 42 -22 55 -23 290 -23 217 0
250 3 286 19 130 59 137 241 13 310 -34 20 -53 21 -295 21 -194 -1 -267 -4
-289 -14z"/>
<path d="M4929 5737 c-53 -35 -79 -82 -79 -140 0 -68 236 -1393 257 -1440 9
-22 33 -51 52 -65 l34 -27 1194 -3 c1172 -2 1194 -2 1232 18 74 37 72 29 207
783 88 489 124 708 121 745 -4 59 -25 94 -77 130 -42 28 -130 30 -177 5 -17
-10 -181 -162 -363 -338 -182 -176 -334 -321 -338 -322 -4 -2 -101 129 -217
289 -115 160 -223 307 -240 326 -53 63 -141 80 -220 43 -34 -15 -72 -63 -269
-335 -126 -174 -232 -319 -236 -321 -4 -3 -159 141 -343 319 -184 178 -348
331 -365 340 -47 24 -132 21 -173 -7z m1682 -742 c111 -154 213 -293 228 -309
51 -56 143 -73 208 -38 17 9 129 111 248 226 146 141 214 201 211 185 -3 -13
-28 -152 -56 -309 -28 -157 -53 -297 -56 -312 l-6 -28 -988 0 -988 0 -6 28
c-3 15 -28 155 -56 312 -28 157 -53 296 -56 309 -3 16 65 -44 211 -185 119
-115 231 -217 248 -226 39 -21 106 -23 150 -4 44 18 62 41 292 359 110 152
203 276 207 275 4 -2 98 -129 209 -283z"/>
<path d="M4688 3360 c-61 -33 -83 -74 -83 -155 0 -84 24 -127 89 -156 36 -16
69 -19 292 -19 243 0 252 1 295 23 120 63 119 244 -1 305 -42 21 -54 22 -300
22 -233 -1 -258 -3 -292 -20z"/>
<path d="M6000 3357 c-53 -28 -90 -90 -90 -152 0 -62 37 -124 90 -152 42 -22
51 -23 294 -23 241 0 254 1 296 23 65 32 90 75 90 152 0 74 -24 118 -85 152
-39 22 -49 23 -296 23 -248 0 -257 -1 -299 -23z"/>
<path d="M7325 3366 c-77 -33 -119 -127 -96 -213 14 -50 76 -109 123 -118 18
-3 146 -5 284 -3 l251 3 36 28 c86 66 99 176 29 259 -46 55 -66 58 -344 58
-186 -1 -261 -4 -283 -14z"/>
</g>
</svg>
