<?xml version="1.0" standalone="no"?>
<!DOCTYPE svg PUBLIC "-//W3C//DTD SVG 20010904//EN"
 "http://www.w3.org/TR/2001/REC-SVG-20010904/DTD/svg10.dtd">
<svg version="1.0" xmlns="http://www.w3.org/2000/svg"
 width="1280.000000pt" height="1024.000000pt" viewBox="0 0 1280.000000 1024.000000"
 preserveAspectRatio="xMidYMid meet">
<metadata>
Created by potrace 1.16, written by Peter Selinger 2001-2019
</metadata>
<g transform="translate(0.000000,1024.000000) scale(0.100000,-0.100000)"
fill="#000000" stroke="none">
<path d="M3585 9380 c-315 -63 -552 -431 -632 -980 -22 -156 -23 -415 0 -491
20 -66 69 -134 125 -172 79 -55 96 -57 641 -67 277 -5 506 -12 509 -14 8 -9
-17 -151 -49 -281 -128 -514 -487 -1352 -1042 -2430 -235 -457 -364 -721 -492
-1010 -522 -1178 -611 -1921 -273 -2290 113 -123 268 -205 464 -244 147 -29
327 -46 4324 -412 1340 -122 1562 -140 1670 -135 139 5 254 25 373 63 326 102
615 348 734 623 113 262 120 599 18 858 -84 210 -254 359 -470 411 -44 11
-298 52 -565 92 -267 40 -488 75 -492 78 -4 3 24 89 61 191 199 545 461 1096
916 1930 464 851 773 1531 980 2155 226 681 296 1205 205 1542 -43 157 -143
315 -259 407 -105 84 -165 114 -316 160 l-70 21 -3160 1 c-1738 1 -3178 -2
-3200 -6z m5274 -402 c-99 -123 -174 -275 -206 -422 -10 -42 -16 -119 -16
-191 -1 -138 22 -237 79 -351 18 -37 32 -69 29 -72 -5 -5 -5020 75 -5282 84
l-171 6 -4 47 c-13 137 28 400 89 575 75 218 166 345 271 376 15 5 1205 9
2644 9 l2618 1 -51 -62z m1046 47 c225 -48 349 -207 371 -478 13 -164 -28
-472 -102 -767 -170 -679 -521 -1491 -1114 -2575 -355 -649 -625 -1206 -809
-1669 -407 -1020 -505 -1768 -289 -2200 16 -32 27 -60 24 -63 -5 -5 -411 31
-2886 258 -2239 205 -2212 202 -2346 263 -286 131 -307 557 -63 1287 135 406
306 794 658 1489 472 933 602 1205 801 1670 233 544 382 995 420 1265 6 44 13
95 16 113 l5 32 108 0 c59 0 515 -7 1012 -15 3873 -65 3817 -64 3877 -49 163
41 286 145 365 306 52 106 67 168 67 272 0 203 -131 391 -346 497 -54 27 -72
31 -122 27 -71 -5 -117 -34 -143 -92 -23 -50 -24 -95 -4 -143 21 -51 41 -71
100 -100 103 -52 165 -126 165 -196 0 -46 -39 -133 -77 -170 -56 -57 -105 -71
-199 -59 -157 21 -303 124 -366 259 -83 176 -28 421 135 599 179 195 484 293
742 239z m-1342 -6426 c111 -17 203 -32 204 -33 2 -1 -13 -32 -32 -68 -51 -95
-75 -200 -75 -322 1 -56 5 -120 9 -143 10 -51 36 -49 -229 -23 -113 11 -212
20 -221 20 -14 0 -14 11 -3 104 16 134 27 190 66 359 29 128 33 137 55 137 13
0 114 -14 226 -31z m901 -153 c140 -69 211 -222 209 -456 -1 -191 -37 -303
-138 -438 -93 -123 -255 -236 -423 -295 -84 -29 -93 -31 -262 -31 -154 -1
-185 2 -255 22 -148 43 -243 111 -308 222 -25 44 -75 196 -66 203 2 2 159 -11
349 -29 190 -18 363 -33 386 -34 61 0 123 37 151 90 35 66 31 112 -21 211 -95
181 -101 341 -17 456 78 108 261 145 395 79z"/>
<path d="M4975 7164 c-68 -35 -98 -84 -98 -159 0 -84 44 -144 122 -165 20 -6
446 -23 946 -40 501 -16 1403 -46 2007 -66 l1096 -37 44 22 c118 57 131 227
22 301 -46 31 3 28 -1594 80 -679 22 -1498 49 -1818 60 -701 24 -689 24 -727
4z"/>
<path d="M4603 6329 c-46 -13 -100 -71 -113 -121 -22 -80 10 -157 80 -197 46
-26 -70 -20 1160 -61 1500 -50 2768 -90 2847 -90 112 0 153 15 190 71 67 101
18 240 -95 268 -20 5 -203 14 -407 20 -203 7 -568 18 -810 26 -242 8 -928 31
-1525 50 -597 19 -1132 36 -1190 39 -58 2 -120 0 -137 -5z"/>
<path d="M4195 5478 c-65 -36 -98 -91 -98 -165 0 -62 34 -123 84 -149 42 -21
47 -22 749 -44 338 -11 1224 -40 1969 -65 944 -31 1365 -42 1390 -35 41 11 94
61 110 103 29 77 -4 171 -74 212 l-43 25 -888 30 c-3419 114 -3166 107 -3199
88z"/>
<path d="M3803 4631 c-102 -47 -130 -183 -56 -272 46 -54 68 -58 375 -69 635
-23 3600 -120 3682 -120 105 0 147 16 183 71 67 101 18 239 -95 268 -20 5
-399 21 -842 35 -443 15 -1343 44 -2000 66 -657 22 -1197 40 -1200 40 -3 0
-24 -9 -47 -19z"/>
<path d="M3437 3797 c-78 -19 -137 -114 -122 -196 9 -52 48 -105 92 -126 32
-16 78 -20 293 -27 2192 -76 3777 -124 3805 -117 70 19 124 93 125 168 0 56
-36 118 -87 148 l-44 26 -842 28 c-463 15 -1332 44 -1932 63 -599 19 -1126 37
-1170 39 -44 2 -97 -1 -118 -6z"/>
<path d="M3025 2947 c-68 -32 -112 -116 -100 -194 8 -53 60 -117 108 -132 18
-6 235 -17 482 -25 2496 -84 3560 -117 3591 -112 22 5 52 22 75 44 70 67 76
167 13 241 -48 58 -55 59 -734 81 -344 11 -1165 38 -1825 60 -1693 56 -1575
53 -1610 37z"/>
</g>
</svg>
