<?xml version="1.0" encoding="UTF-8" standalone="no" ?>
<!DOCTYPE svg PUBLIC "-//W3C//DTD SVG 1.1//EN" "http://www.w3.org/Graphics/SVG/1.1/DTD/svg11.dtd">
<svg xmlns="http://www.w3.org/2000/svg" xmlns:xlink="http://www.w3.org/1999/xlink" version="1.1" width="640" height="480" viewBox="0 0 640 480" xml:space="preserve">
<desc>Created with Fabric.js 3.6.6</desc>
<defs>
</defs>
<g transform="matrix(0.7 0 0 0.7 317.67 310.67)"  >
<g style=""   >
		<g transform="matrix(1.33 0 0 1.33 0 -93.33)"  >
<path style="stroke: none; stroke-width: 1; stroke-dasharray: none; stroke-linecap: butt; stroke-dashoffset: 0; stroke-linejoin: miter; stroke-miterlimit: 4; fill: rgb(0,0,0); fill-rule: nonzero; opacity: 1;"  transform=" translate(-350, -280)" d="m 350 56 c -123.51 0 -224 100.49 -224 224 s 100.49 224 224 224 s 224 -100.49 224 -224 s -100.49 -224 -224 -224 z m 139.25 224 c 0 76.781 -62.469 139.25 -139.25 139.25 s -139.25 -62.469 -139.25 -139.25 s 62.469 -139.25 139.25 -139.25 s 139.25 62.469 139.25 139.25 z m 8.4922 -28.32 l 56.027 28.32 l -56.027 28.32 c 1.7539 -9.1797 2.707 -18.637 2.707 -28.32 s -0.95312 -19.141 -2.707 -28.32 z m -23.262 112.72 l 19.602 59.684 l -59.684 -19.602 c 15.75 -10.711 29.371 -24.332 40.082 -40.082 z m -96.16 63.344 l -28.32 56.027 l -28.32 -56.031 c 9.1797 1.7578 18.637 2.7109 28.32 2.7109 s 19.141 -0.95312 28.32 -2.707 z m -112.72 -23.262 l -59.684 19.602 l 19.602 -59.684 c 10.711 15.75 24.332 29.371 40.082 40.082 z m -63.344 -96.16 l -56.027 -28.32 l 56.027 -28.32 c -1.7539 9.1797 -2.707 18.637 -2.707 28.32 s 0.95312 19.141 2.707 28.32 z m 23.262 -112.72 l -19.602 -59.684 l 59.684 19.602 c -15.75 10.711 -29.371 24.332 -40.082 40.082 z m 96.16 -63.344 l 28.32 -56.027 l 28.32 56.027 c -9.1797 -1.7539 -18.637 -2.707 -28.32 -2.707 s -19.141 0.95312 -28.32 2.707 z m 112.72 23.262 l 59.684 -19.602 l -19.602 59.684 c -10.711 -15.754 -24.332 -29.371 -40.082 -40.082 z m -12.543 -7.6719 c -9.2031 -5.0234 -18.992 -9.082 -29.227 -12.109 l -34.539 -68.332 c 52.559 1.9766 100.29 23.086 136.42 56.578 z m -114.48 -12.109 c -10.23 3.0273 -20.023 7.0859 -29.227 12.109 l -72.66 -23.863 c 36.133 -33.492 83.863 -54.602 136.42 -56.578 z m -113.39 -0.25 l 23.863 72.66 c -5.0234 9.1992 -9.082 18.996 -12.109 29.227 l -68.332 34.539 c 1.9766 -52.566 23.086 -100.3 56.578 -136.43 z m 11.754 187.14 c 3.0273 10.23 7.0859 20.023 12.109 29.227 l -23.863 72.66 c -33.492 -36.133 -54.602 -83.863 -56.578 -136.42 z m 72.406 89.523 c 9.2031 5.0234 18.992 9.082 29.227 12.109 l 34.539 68.332 c -52.559 -1.9766 -100.29 -23.086 -136.42 -56.578 z m 114.48 12.109 c 10.23 -3.0273 20.023 -7.0859 29.227 -12.109 l 72.66 23.863 c -36.133 33.492 -83.863 54.602 -136.42 56.578 z m 113.39 0.25 l -23.863 -72.66 c 5.0234 -9.1992 9.082 -18.996 12.109 -29.227 l 68.332 -34.539 c -1.9766 52.566 -23.086 100.3 -56.578 136.43 z m -11.754 -187.14 c -3.0273 -10.23 -7.0859 -20.023 -12.109 -29.227 l 23.863 -72.66 c 33.492 36.133 54.602 83.863 56.578 136.42 z" stroke-linecap="round" />
</g>
		<g transform="matrix(1.33 0 0 1.33 0 -93.34)"  >
<path style="stroke: none; stroke-width: 1; stroke-dasharray: none; stroke-linecap: butt; stroke-dashoffset: 0; stroke-linejoin: miter; stroke-miterlimit: 4; fill: rgb(0,0,0); fill-rule: nonzero; opacity: 1;"  transform=" translate(-350, -280)" d="m 350 213.51 c -36.664 0 -66.488 29.828 -66.488 66.488 c 0 36.664 29.824 66.488 66.488 66.488 s 66.488 -29.824 66.488 -66.488 s -29.824 -66.488 -66.488 -66.488 z m 0 121.78 c -30.488 0 -55.289 -24.801 -55.289 -55.289 s 24.801 -55.289 55.289 -55.289 s 55.289 24.801 55.289 55.289 s -24.801 55.289 -55.289 55.289 z" stroke-linecap="round" />
</g>
		<g transform="matrix(1.33 0 0 1.33 -359.9 378.41)"  >
<path style="stroke: none; stroke-width: 1; stroke-dasharray: none; stroke-linecap: butt; stroke-dashoffset: 0; stroke-linejoin: miter; stroke-miterlimit: 4; fill: rgb(0,0,0); fill-rule: nonzero; opacity: 1;"  transform=" translate(-10.08, 10.2)" d="m 18.766 -1.125 c -0.96875 0.5 -1.9805 0.875 -3.0312 1.125 c -1.043 0.25781 -2.1367 0.39062 -3.2812 0.39062 c -3.3984 0 -6.0898 -0.94531 -8.0781 -2.8438 c -1.9922 -1.9062 -2.9844 -4.4844 -2.9844 -7.7344 c 0 -3.2578 0.99219 -5.8359 2.9844 -7.7344 c 1.9883 -1.9062 4.6797 -2.8594 8.0781 -2.8594 c 1.1445 0 2.2383 0.13281 3.2812 0.39062 c 1.0508 0.25 2.0625 0.625 3.0312 1.125 v 4.2188 c -0.98047 -0.65625 -1.9453 -1.1406 -2.8906 -1.4531 c -0.94922 -0.3125 -1.9492 -0.46875 -3 -0.46875 c -1.875 0 -3.3516 0.60547 -4.4219 1.8125 c -1.0742 1.1992 -1.6094 2.8555 -1.6094 4.9688 c 0 2.1055 0.53516 3.7617 1.6094 4.9688 c 1.0703 1.1992 2.5469 1.7969 4.4219 1.7969 c 1.0508 0 2.0508 -0.14844 3 -0.45312 c 0.94531 -0.3125 1.9102 -0.80078 2.8906 -1.4688 z" stroke-linecap="round" />
</g>
		<g transform="matrix(1.33 0 0 1.33 -335.2 381.54)"  >
<path style="stroke: none; stroke-width: 1; stroke-dasharray: none; stroke-linecap: butt; stroke-dashoffset: 0; stroke-linejoin: miter; stroke-miterlimit: 4; fill: rgb(0,0,0); fill-rule: nonzero; opacity: 1;"  transform=" translate(-8.05, 7.84)" d="m 13.734 -11.141 c -0.4375 -0.19531 -0.87109 -0.34375 -1.2969 -0.4375 c -0.41797 -0.10156 -0.83984 -0.15625 -1.2656 -0.15625 c -1.2617 0 -2.2305 0.40625 -2.9062 1.2188 c -0.67969 0.80469 -1.0156 1.9531 -1.0156 3.4531 v 7.0625 h -4.8906 v -15.312 h 4.8906 v 2.5156 c 0.625 -1 1.3438 -1.7266 2.1562 -2.1875 c 0.82031 -0.46875 1.8008 -0.70312 2.9375 -0.70312 c 0.16406 0 0.34375 0.011719 0.53125 0.03125 c 0.19531 0.011719 0.47656 0.039062 0.84375 0.078125 z" stroke-linecap="round" />
</g>
		<g transform="matrix(1.33 0 0 1.33 -314.96 381.8)"  >
<path style="stroke: none; stroke-width: 1; stroke-dasharray: none; stroke-linecap: butt; stroke-dashoffset: 0; stroke-linejoin: miter; stroke-miterlimit: 4; fill: rgb(0,0,0); fill-rule: nonzero; opacity: 1;"  transform=" translate(-9.42, 7.65)" d="m 17.641 -7.7031 v 1.4062 h -11.453 c 0.125 1.1484 0.53906 2.0078 1.25 2.5781 c 0.70703 0.57422 1.7031 0.85938 2.9844 0.85938 c 1.0312 0 2.082 -0.14844 3.1562 -0.45312 c 1.082 -0.3125 2.1914 -0.77344 3.3281 -1.3906 v 3.7656 c -1.1562 0.4375 -2.3125 0.76562 -3.4688 0.98438 c -1.1562 0.22656 -2.3125 0.34375 -3.4688 0.34375 c -2.7734 0 -4.9297 -0.70312 -6.4688 -2.1094 c -1.5312 -1.4062 -2.2969 -3.3789 -2.2969 -5.9219 c 0 -2.5 0.75391 -4.4609 2.2656 -5.8906 c 1.5078 -1.4375 3.582 -2.1562 6.2188 -2.1562 c 2.4062 0 4.332 0.73047 5.7812 2.1875 c 1.4453 1.4492 2.1719 3.3828 2.1719 5.7969 z m -5.0312 -1.625 c 0 -0.92578 -0.27344 -1.6719 -0.8125 -2.2344 c -0.54297 -0.57031 -1.25 -0.85938 -2.125 -0.85938 c -0.94922 0 -1.7188 0.26562 -2.3125 0.79688 s -0.96484 1.2969 -1.1094 2.2969 z" stroke-linecap="round" />
</g>
		<g transform="matrix(1.33 0 0 1.33 -290.28 381.8)"  >
<path style="stroke: none; stroke-width: 1; stroke-dasharray: none; stroke-linecap: butt; stroke-dashoffset: 0; stroke-linejoin: miter; stroke-miterlimit: 4; fill: rgb(0,0,0); fill-rule: nonzero; opacity: 1;"  transform=" translate(-8.95, 7.65)" d="m 9.2188 -6.8906 c -1.0234 0 -1.793 0.17188 -2.3125 0.51562 c -0.51172 0.34375 -0.76562 0.85547 -0.76562 1.5312 c 0 0.625 0.20703 1.1172 0.625 1.4688 c 0.41406 0.34375 0.98828 0.51562 1.7188 0.51562 c 0.92578 0 1.7031 -0.32812 2.3281 -0.98438 c 0.63281 -0.66406 0.95312 -1.4922 0.95312 -2.4844 v -0.5625 z m 7.4688 -1.8438 v 8.7344 h -4.9219 v -2.2656 c -0.65625 0.92969 -1.3984 1.6055 -2.2188 2.0312 c -0.82422 0.41406 -1.8242 0.625 -3 0.625 c -1.5859 0 -2.8711 -0.45703 -3.8594 -1.375 c -0.99219 -0.92578 -1.4844 -2.1289 -1.4844 -3.6094 c 0 -1.7891 0.61328 -3.1016 1.8438 -3.9375 c 1.2383 -0.84375 3.1797 -1.2656 5.8281 -1.2656 h 2.8906 v -0.39062 c 0 -0.76953 -0.30859 -1.332 -0.92188 -1.6875 c -0.61719 -0.36328 -1.5703 -0.54688 -2.8594 -0.54688 c -1.0547 0 -2.0312 0.10547 -2.9375 0.3125 c -0.89844 0.21094 -1.7305 0.52344 -2.5 0.9375 v -3.7344 c 1.0391 -0.25 2.0859 -0.44141 3.1406 -0.57812 c 1.0625 -0.13281 2.125 -0.20312 3.1875 -0.20312 c 2.7578 0 4.75 0.54688 5.9688 1.6406 c 1.2266 1.0859 1.8438 2.8555 1.8438 5.3125 z" stroke-linecap="round" />
</g>
		<g transform="matrix(1.33 0 0 1.33 -268.26 378.9)"  >
<path style="stroke: none; stroke-width: 1; stroke-dasharray: none; stroke-linecap: butt; stroke-dashoffset: 0; stroke-linejoin: miter; stroke-miterlimit: 4; fill: rgb(0,0,0); fill-rule: nonzero; opacity: 1;"  transform=" translate(-6.56, 9.83)" d="m 7.7031 -19.656 v 4.3438 h 5.0469 v 3.5 h -5.0469 v 6.5 c 0 0.71094 0.14062 1.1875 0.42188 1.4375 s 0.83594 0.375 1.6719 0.375 h 2.5156 v 3.5 h -4.1875 c -1.9375 0 -3.3125 -0.39844 -4.125 -1.2031 c -0.80469 -0.8125 -1.2031 -2.1797 -1.2031 -4.1094 v -6.5 h -2.4219 v -3.5 h 2.4219 v -4.3438 z" stroke-linecap="round" />
</g>
		<g transform="matrix(1.33 0 0 1.33 -246.6 381.8)"  >
<path style="stroke: none; stroke-width: 1; stroke-dasharray: none; stroke-linecap: butt; stroke-dashoffset: 0; stroke-linejoin: miter; stroke-miterlimit: 4; fill: rgb(0,0,0); fill-rule: nonzero; opacity: 1;"  transform=" translate(-9.42, 7.65)" d="m 17.641 -7.7031 v 1.4062 h -11.453 c 0.125 1.1484 0.53906 2.0078 1.25 2.5781 c 0.70703 0.57422 1.7031 0.85938 2.9844 0.85938 c 1.0312 0 2.082 -0.14844 3.1562 -0.45312 c 1.082 -0.3125 2.1914 -0.77344 3.3281 -1.3906 v 3.7656 c -1.1562 0.4375 -2.3125 0.76562 -3.4688 0.98438 c -1.1562 0.22656 -2.3125 0.34375 -3.4688 0.34375 c -2.7734 0 -4.9297 -0.70312 -6.4688 -2.1094 c -1.5312 -1.4062 -2.2969 -3.3789 -2.2969 -5.9219 c 0 -2.5 0.75391 -4.4609 2.2656 -5.8906 c 1.5078 -1.4375 3.582 -2.1562 6.2188 -2.1562 c 2.4062 0 4.332 0.73047 5.7812 2.1875 c 1.4453 1.4492 2.1719 3.3828 2.1719 5.7969 z m -5.0312 -1.625 c 0 -0.92578 -0.27344 -1.6719 -0.8125 -2.2344 c -0.54297 -0.57031 -1.25 -0.85938 -2.125 -0.85938 c -0.94922 0 -1.7188 0.26562 -2.3125 0.79688 s -0.96484 1.2969 -1.1094 2.2969 z" stroke-linecap="round" />
</g>
		<g transform="matrix(1.33 0 0 1.33 -221.21 378.07)"  >
<path style="stroke: none; stroke-width: 1; stroke-dasharray: none; stroke-linecap: butt; stroke-dashoffset: 0; stroke-linejoin: miter; stroke-miterlimit: 4; fill: rgb(0,0,0); fill-rule: nonzero; opacity: 1;"  transform=" translate(-9.48, 10.45)" d="m 12.766 -13.078 v -8.2031 h 4.9219 v 21.281 h -4.9219 v -2.2188 c -0.66797 0.90625 -1.4062 1.5703 -2.2188 1.9844 s -1.7578 0.625 -2.8281 0.625 c -1.8867 0 -3.4336 -0.75 -4.6406 -2.25 c -1.2109 -1.5 -1.8125 -3.4258 -1.8125 -5.7812 c 0 -2.3633 0.60156 -4.2969 1.8125 -5.7969 c 1.207 -1.5 2.7539 -2.25 4.6406 -2.25 c 1.0625 0 2 0.21484 2.8125 0.64062 c 0.82031 0.42969 1.5664 1.0859 2.2344 1.9688 z m -3.2188 9.9219 c 1.0391 0 1.8359 -0.37891 2.3906 -1.1406 c 0.55078 -0.76953 0.82812 -1.8828 0.82812 -3.3438 c 0 -1.457 -0.27734 -2.5664 -0.82812 -3.3281 c -0.55469 -0.76953 -1.3516 -1.1562 -2.3906 -1.1562 c -1.043 0 -1.8398 0.38672 -2.3906 1.1562 c -0.55469 0.76172 -0.82812 1.8711 -0.82812 3.3281 c 0 1.4609 0.27344 2.5742 0.82812 3.3438 c 0.55078 0.76172 1.3477 1.1406 2.3906 1.1406 z" stroke-linecap="round" />
</g>
		<g transform="matrix(1.33 0 0 1.33 -180.03 378.07)"  >
<path style="stroke: none; stroke-width: 1; stroke-dasharray: none; stroke-linecap: butt; stroke-dashoffset: 0; stroke-linejoin: miter; stroke-miterlimit: 4; fill: rgb(0,0,0); fill-rule: nonzero; opacity: 1;"  transform=" translate(-10.57, 10.45)" d="m 10.5 -3.1562 c 1.0508 0 1.8516 -0.37891 2.4062 -1.1406 c 0.55078 -0.76953 0.82812 -1.8828 0.82812 -3.3438 c 0 -1.457 -0.27734 -2.5664 -0.82812 -3.3281 c -0.55469 -0.76953 -1.3555 -1.1562 -2.4062 -1.1562 c -1.0547 0 -1.8594 0.38672 -2.4219 1.1562 c -0.55469 0.77344 -0.82812 1.8828 -0.82812 3.3281 c 0 1.4492 0.27344 2.5586 0.82812 3.3281 c 0.5625 0.77344 1.3672 1.1562 2.4219 1.1562 z m -3.25 -9.9219 c 0.67578 -0.88281 1.4219 -1.5391 2.2344 -1.9688 c 0.82031 -0.42578 1.7656 -0.64062 2.8281 -0.64062 c 1.8945 0 3.4453 0.75 4.6562 2.25 c 1.207 1.5 1.8125 3.4336 1.8125 5.7969 c 0 2.3555 -0.60547 4.2812 -1.8125 5.7812 c -1.2109 1.5 -2.7617 2.25 -4.6562 2.25 c -1.0625 0 -2.0078 -0.21094 -2.8281 -0.625 c -0.8125 -0.42578 -1.5586 -1.0859 -2.2344 -1.9844 v 2.2188 h -4.8906 v -21.281 h 4.8906 z" stroke-linecap="round" />
</g>
		<g transform="matrix(1.33 0 0 1.33 -155.33 385.82)"  >
<path style="stroke: none; stroke-width: 1; stroke-dasharray: none; stroke-linecap: butt; stroke-dashoffset: 0; stroke-linejoin: miter; stroke-miterlimit: 4; fill: rgb(0,0,0); fill-rule: nonzero; opacity: 1;"  transform=" translate(-9.05, 4.63)" d="m 0.34375 -15.312 h 4.8906 l 4.125 10.391 l 3.5 -10.391 h 4.8906 l -6.4375 16.766 c -0.64844 1.6953 -1.4023 2.8828 -2.2656 3.5625 c -0.86719 0.6875 -2 1.0312 -3.4062 1.0312 h -2.8438 v -3.2188 h 1.5312 c 0.83203 0 1.4375 -0.13672 1.8125 -0.40625 c 0.38281 -0.26172 0.67969 -0.73047 0.89062 -1.4062 l 0.14062 -0.42188 z" stroke-linecap="round" />
</g>
		<g transform="matrix(1.33 0 0 1.33 -111.49 378.4)"  >
<path style="stroke: none; stroke-width: 1; stroke-dasharray: none; stroke-linecap: butt; stroke-dashoffset: 0; stroke-linejoin: miter; stroke-miterlimit: 4; fill: rgb(0,0,0); fill-rule: nonzero; opacity: 1;"  transform=" translate(-13.93, 10.2)" d="m 2.5781 -20.406 h 6.6875 l 4.6562 10.922 l 4.6719 -10.922 h 6.6875 v 20.406 h -4.9844 v -14.938 l -4.7031 11.016 h -3.3281 l -4.7031 -11.016 v 14.938 h -4.9844 z" stroke-linecap="round" />
</g>
		<g transform="matrix(1.33 0 0 1.33 -80.99 381.8)"  >
<path style="stroke: none; stroke-width: 1; stroke-dasharray: none; stroke-linecap: butt; stroke-dashoffset: 0; stroke-linejoin: miter; stroke-miterlimit: 4; fill: rgb(0,0,0); fill-rule: nonzero; opacity: 1;"  transform=" translate(-8.95, 7.65)" d="m 9.2188 -6.8906 c -1.0234 0 -1.793 0.17188 -2.3125 0.51562 c -0.51172 0.34375 -0.76562 0.85547 -0.76562 1.5312 c 0 0.625 0.20703 1.1172 0.625 1.4688 c 0.41406 0.34375 0.98828 0.51562 1.7188 0.51562 c 0.92578 0 1.7031 -0.32812 2.3281 -0.98438 c 0.63281 -0.66406 0.95312 -1.4922 0.95312 -2.4844 v -0.5625 z m 7.4688 -1.8438 v 8.7344 h -4.9219 v -2.2656 c -0.65625 0.92969 -1.3984 1.6055 -2.2188 2.0312 c -0.82422 0.41406 -1.8242 0.625 -3 0.625 c -1.5859 0 -2.8711 -0.45703 -3.8594 -1.375 c -0.99219 -0.92578 -1.4844 -2.1289 -1.4844 -3.6094 c 0 -1.7891 0.61328 -3.1016 1.8438 -3.9375 c 1.2383 -0.84375 3.1797 -1.2656 5.8281 -1.2656 h 2.8906 v -0.39062 c 0 -0.76953 -0.30859 -1.332 -0.92188 -1.6875 c -0.61719 -0.36328 -1.5703 -0.54688 -2.8594 -0.54688 c -1.0547 0 -2.0312 0.10547 -2.9375 0.3125 c -0.89844 0.21094 -1.7305 0.52344 -2.5 0.9375 v -3.7344 c 1.0391 -0.25 2.0859 -0.44141 3.1406 -0.57812 c 1.0625 -0.13281 2.125 -0.20312 3.1875 -0.20312 c 2.7578 0 4.75 0.54688 5.9688 1.6406 c 1.2266 1.0859 1.8438 2.8555 1.8438 5.3125 z" stroke-linecap="round" />
</g>
		<g transform="matrix(1.33 0 0 1.33 -55.08 378.07)"  >
<path style="stroke: none; stroke-width: 1; stroke-dasharray: none; stroke-linecap: butt; stroke-dashoffset: 0; stroke-linejoin: miter; stroke-miterlimit: 4; fill: rgb(0,0,0); fill-rule: nonzero; opacity: 1;"  transform=" translate(-9.48, 10.45)" d="m 12.766 -13.078 v -8.2031 h 4.9219 v 21.281 h -4.9219 v -2.2188 c -0.66797 0.90625 -1.4062 1.5703 -2.2188 1.9844 s -1.7578 0.625 -2.8281 0.625 c -1.8867 0 -3.4336 -0.75 -4.6406 -2.25 c -1.2109 -1.5 -1.8125 -3.4258 -1.8125 -5.7812 c 0 -2.3633 0.60156 -4.2969 1.8125 -5.7969 c 1.207 -1.5 2.7539 -2.25 4.6406 -2.25 c 1.0625 0 2 0.21484 2.8125 0.64062 c 0.82031 0.42969 1.5664 1.0859 2.2344 1.9688 z m -3.2188 9.9219 c 1.0391 0 1.8359 -0.37891 2.3906 -1.1406 c 0.55078 -0.76953 0.82812 -1.8828 0.82812 -3.3438 c 0 -1.457 -0.27734 -2.5664 -0.82812 -3.3281 c -0.55469 -0.76953 -1.3516 -1.1562 -2.3906 -1.1562 c -1.043 0 -1.8398 0.38672 -2.3906 1.1562 c -0.55469 0.76172 -0.82812 1.8711 -0.82812 3.3281 c 0 1.4609 0.27344 2.5742 0.82812 3.3438 c 0.55078 0.76172 1.3477 1.1406 2.3906 1.1406 z" stroke-linecap="round" />
</g>
		<g transform="matrix(1.33 0 0 1.33 -28.44 381.8)"  >
<path style="stroke: none; stroke-width: 1; stroke-dasharray: none; stroke-linecap: butt; stroke-dashoffset: 0; stroke-linejoin: miter; stroke-miterlimit: 4; fill: rgb(0,0,0); fill-rule: nonzero; opacity: 1;"  transform=" translate(-9.42, 7.65)" d="m 17.641 -7.7031 v 1.4062 h -11.453 c 0.125 1.1484 0.53906 2.0078 1.25 2.5781 c 0.70703 0.57422 1.7031 0.85938 2.9844 0.85938 c 1.0312 0 2.082 -0.14844 3.1562 -0.45312 c 1.082 -0.3125 2.1914 -0.77344 3.3281 -1.3906 v 3.7656 c -1.1562 0.4375 -2.3125 0.76562 -3.4688 0.98438 c -1.1562 0.22656 -2.3125 0.34375 -3.4688 0.34375 c -2.7734 0 -4.9297 -0.70312 -6.4688 -2.1094 c -1.5312 -1.4062 -2.2969 -3.3789 -2.2969 -5.9219 c 0 -2.5 0.75391 -4.4609 2.2656 -5.8906 c 1.5078 -1.4375 3.582 -2.1562 6.2188 -2.1562 c 2.4062 0 4.332 0.73047 5.7812 2.1875 c 1.4453 1.4492 2.1719 3.3828 2.1719 5.7969 z m -5.0312 -1.625 c 0 -0.92578 -0.27344 -1.6719 -0.8125 -2.2344 c -0.54297 -0.57031 -1.25 -0.85938 -2.125 -0.85938 c -0.94922 0 -1.7188 0.26562 -2.3125 0.79688 s -0.96484 1.2969 -1.1094 2.2969 z" stroke-linecap="round" />
</g>
		<g transform="matrix(1.33 0 0 1.33 9.36 381.79)"  >
<path style="stroke: none; stroke-width: 1; stroke-dasharray: none; stroke-linecap: butt; stroke-dashoffset: 0; stroke-linejoin: miter; stroke-miterlimit: 4; fill: rgb(0,0,0); fill-rule: nonzero; opacity: 1;"  transform=" translate(-9.03, 7.66)" d="m 6.2188 -7.8281 l -5.5156 -7.4844 h 5.1719 l 3.1406 4.5312 l 3.1719 -4.5312 h 5.1719 l -5.5156 7.4531 l 5.7969 7.8594 h -5.1875 l -3.4375 -4.8438 l -3.4062 4.8438 h -5.1875 z" stroke-linecap="round" />
</g>
		<g transform="matrix(1.33 0 0 1.33 52.97 378.4)"  >
<path style="stroke: none; stroke-width: 1; stroke-dasharray: none; stroke-linecap: butt; stroke-dashoffset: 0; stroke-linejoin: miter; stroke-miterlimit: 4; fill: rgb(0,0,0); fill-rule: nonzero; opacity: 1;"  transform=" translate(-13.93, 10.2)" d="m 2.5781 -20.406 h 6.6875 l 4.6562 10.922 l 4.6719 -10.922 h 6.6875 v 20.406 h -4.9844 v -14.938 l -4.7031 11.016 h -3.3281 l -4.7031 -11.016 v 14.938 h -4.9844 z" stroke-linecap="round" />
</g>
		<g transform="matrix(1.33 0 0 1.33 83.48 381.8)"  >
<path style="stroke: none; stroke-width: 1; stroke-dasharray: none; stroke-linecap: butt; stroke-dashoffset: 0; stroke-linejoin: miter; stroke-miterlimit: 4; fill: rgb(0,0,0); fill-rule: nonzero; opacity: 1;"  transform=" translate(-8.95, 7.65)" d="m 9.2188 -6.8906 c -1.0234 0 -1.793 0.17188 -2.3125 0.51562 c -0.51172 0.34375 -0.76562 0.85547 -0.76562 1.5312 c 0 0.625 0.20703 1.1172 0.625 1.4688 c 0.41406 0.34375 0.98828 0.51562 1.7188 0.51562 c 0.92578 0 1.7031 -0.32812 2.3281 -0.98438 c 0.63281 -0.66406 0.95312 -1.4922 0.95312 -2.4844 v -0.5625 z m 7.4688 -1.8438 v 8.7344 h -4.9219 v -2.2656 c -0.65625 0.92969 -1.3984 1.6055 -2.2188 2.0312 c -0.82422 0.41406 -1.8242 0.625 -3 0.625 c -1.5859 0 -2.8711 -0.45703 -3.8594 -1.375 c -0.99219 -0.92578 -1.4844 -2.1289 -1.4844 -3.6094 c 0 -1.7891 0.61328 -3.1016 1.8438 -3.9375 c 1.2383 -0.84375 3.1797 -1.2656 5.8281 -1.2656 h 2.8906 v -0.39062 c 0 -0.76953 -0.30859 -1.332 -0.92188 -1.6875 c -0.61719 -0.36328 -1.5703 -0.54688 -2.8594 -0.54688 c -1.0547 0 -2.0312 0.10547 -2.9375 0.3125 c -0.89844 0.21094 -1.7305 0.52344 -2.5 0.9375 v -3.7344 c 1.0391 -0.25 2.0859 -0.44141 3.1406 -0.57812 c 1.0625 -0.13281 2.125 -0.20312 3.1875 -0.20312 c 2.7578 0 4.75 0.54688 5.9688 1.6406 c 1.2266 1.0859 1.8438 2.8555 1.8438 5.3125 z" stroke-linecap="round" />
</g>
		<g transform="matrix(1.33 0 0 1.33 109.38 378.07)"  >
<path style="stroke: none; stroke-width: 1; stroke-dasharray: none; stroke-linecap: butt; stroke-dashoffset: 0; stroke-linejoin: miter; stroke-miterlimit: 4; fill: rgb(0,0,0); fill-rule: nonzero; opacity: 1;"  transform=" translate(-9.48, 10.45)" d="m 12.766 -13.078 v -8.2031 h 4.9219 v 21.281 h -4.9219 v -2.2188 c -0.66797 0.90625 -1.4062 1.5703 -2.2188 1.9844 s -1.7578 0.625 -2.8281 0.625 c -1.8867 0 -3.4336 -0.75 -4.6406 -2.25 c -1.2109 -1.5 -1.8125 -3.4258 -1.8125 -5.7812 c 0 -2.3633 0.60156 -4.2969 1.8125 -5.7969 c 1.207 -1.5 2.7539 -2.25 4.6406 -2.25 c 1.0625 0 2 0.21484 2.8125 0.64062 c 0.82031 0.42969 1.5664 1.0859 2.2344 1.9688 z m -3.2188 9.9219 c 1.0391 0 1.8359 -0.37891 2.3906 -1.1406 c 0.55078 -0.76953 0.82812 -1.8828 0.82812 -3.3438 c 0 -1.457 -0.27734 -2.5664 -0.82812 -3.3281 c -0.55469 -0.76953 -1.3516 -1.1562 -2.3906 -1.1562 c -1.043 0 -1.8398 0.38672 -2.3906 1.1562 c -0.55469 0.76172 -0.82812 1.8711 -0.82812 3.3281 c 0 1.4609 0.27344 2.5742 0.82812 3.3438 c 0.55078 0.76172 1.3477 1.1406 2.3906 1.1406 z" stroke-linecap="round" />
</g>
		<g transform="matrix(1.33 0 0 1.33 136.03 381.8)"  >
<path style="stroke: none; stroke-width: 1; stroke-dasharray: none; stroke-linecap: butt; stroke-dashoffset: 0; stroke-linejoin: miter; stroke-miterlimit: 4; fill: rgb(0,0,0); fill-rule: nonzero; opacity: 1;"  transform=" translate(-9.42, 7.65)" d="m 17.641 -7.7031 v 1.4062 h -11.453 c 0.125 1.1484 0.53906 2.0078 1.25 2.5781 c 0.70703 0.57422 1.7031 0.85938 2.9844 0.85938 c 1.0312 0 2.082 -0.14844 3.1562 -0.45312 c 1.082 -0.3125 2.1914 -0.77344 3.3281 -1.3906 v 3.7656 c -1.1562 0.4375 -2.3125 0.76562 -3.4688 0.98438 c -1.1562 0.22656 -2.3125 0.34375 -3.4688 0.34375 c -2.7734 0 -4.9297 -0.70312 -6.4688 -2.1094 c -1.5312 -1.4062 -2.2969 -3.3789 -2.2969 -5.9219 c 0 -2.5 0.75391 -4.4609 2.2656 -5.8906 c 1.5078 -1.4375 3.582 -2.1562 6.2188 -2.1562 c 2.4062 0 4.332 0.73047 5.7812 2.1875 c 1.4453 1.4492 2.1719 3.3828 2.1719 5.7969 z m -5.0312 -1.625 c 0 -0.92578 -0.27344 -1.6719 -0.8125 -2.2344 c -0.54297 -0.57031 -1.25 -0.85938 -2.125 -0.85938 c -0.94922 0 -1.7188 0.26562 -2.3125 0.79688 s -0.96484 1.2969 -1.1094 2.2969 z" stroke-linecap="round" />
</g>
		<g transform="matrix(1.33 0 0 1.33 -364.7 415.15)"  >
<path style="stroke: none; stroke-width: 1; stroke-dasharray: none; stroke-linecap: butt; stroke-dashoffset: 0; stroke-linejoin: miter; stroke-miterlimit: 4; fill: rgb(0,0,0); fill-rule: nonzero; opacity: 1;"  transform=" translate(-6.48, 10.64)" d="m 12.422 -21.281 v 3.2188 h -2.7031 c -0.6875 0 -1.1719 0.125 -1.4531 0.375 c -0.27344 0.25 -0.40625 0.6875 -0.40625 1.3125 v 1.0625 h 4.1875 v 3.5 h -4.1875 v 11.812 h -4.8906 v -11.812 h -2.4375 v -3.5 h 2.4375 v -1.0625 c 0 -1.6641 0.46094 -2.8984 1.3906 -3.7031 c 0.92578 -0.80078 2.3672 -1.2031 4.3281 -1.2031 z" stroke-linecap="round" />
</g>
		<g transform="matrix(1.33 0 0 1.33 -346.36 418.87)"  >
<path style="stroke: none; stroke-width: 1; stroke-dasharray: none; stroke-linecap: butt; stroke-dashoffset: 0; stroke-linejoin: miter; stroke-miterlimit: 4; fill: rgb(0,0,0); fill-rule: nonzero; opacity: 1;"  transform=" translate(-8.05, 7.84)" d="m 13.734 -11.141 c -0.4375 -0.19531 -0.87109 -0.34375 -1.2969 -0.4375 c -0.41797 -0.10156 -0.83984 -0.15625 -1.2656 -0.15625 c -1.2617 0 -2.2305 0.40625 -2.9062 1.2188 c -0.67969 0.80469 -1.0156 1.9531 -1.0156 3.4531 v 7.0625 h -4.8906 v -15.312 h 4.8906 v 2.5156 c 0.625 -1 1.3438 -1.7266 2.1562 -2.1875 c 0.82031 -0.46875 1.8008 -0.70312 2.9375 -0.70312 c 0.16406 0 0.34375 0.011719 0.53125 0.03125 c 0.19531 0.011719 0.47656 0.039062 0.84375 0.078125 z" stroke-linecap="round" />
</g>
		<g transform="matrix(1.33 0 0 1.33 -325.85 419.13)"  >
<path style="stroke: none; stroke-width: 1; stroke-dasharray: none; stroke-linecap: butt; stroke-dashoffset: 0; stroke-linejoin: miter; stroke-miterlimit: 4; fill: rgb(0,0,0); fill-rule: nonzero; opacity: 1;"  transform=" translate(-9.62, 7.65)" d="m 9.6406 -12.188 c -1.0859 0 -1.9141 0.39062 -2.4844 1.1719 c -0.57422 0.78125 -0.85938 1.9062 -0.85938 3.375 s 0.28516 2.5938 0.85938 3.375 c 0.57031 0.77344 1.3984 1.1562 2.4844 1.1562 c 1.0625 0 1.875 -0.38281 2.4375 -1.1562 c 0.57031 -0.78125 0.85938 -1.9062 0.85938 -3.375 s -0.28906 -2.5938 -0.85938 -3.375 c -0.5625 -0.78125 -1.375 -1.1719 -2.4375 -1.1719 z m 0 -3.5 c 2.6328 0 4.6914 0.71484 6.1719 2.1406 c 1.4766 1.418 2.2188 3.3867 2.2188 5.9062 c 0 2.5117 -0.74219 4.4805 -2.2188 5.9062 c -1.4805 1.418 -3.5391 2.125 -6.1719 2.125 c -2.6484 0 -4.7148 -0.70703 -6.2031 -2.125 c -1.4922 -1.4258 -2.2344 -3.3945 -2.2344 -5.9062 c 0 -2.5195 0.74219 -4.4883 2.2344 -5.9062 c 1.4883 -1.4258 3.5547 -2.1406 6.2031 -2.1406 z" stroke-linecap="round" />
</g>
		<g transform="matrix(1.33 0 0 1.33 -293.5 418.87)"  >
<path style="stroke: none; stroke-width: 1; stroke-dasharray: none; stroke-linecap: butt; stroke-dashoffset: 0; stroke-linejoin: miter; stroke-miterlimit: 4; fill: rgb(0,0,0); fill-rule: nonzero; opacity: 1;"  transform=" translate(-14.65, 7.84)" d="m 16.547 -12.766 c 0.61328 -0.94531 1.3477 -1.6719 2.2031 -2.1719 c 0.85156 -0.5 1.7891 -0.75 2.8125 -0.75 c 1.7578 0 3.0977 0.54688 4.0156 1.6406 c 0.92578 1.0859 1.3906 2.6562 1.3906 4.7188 v 9.3281 h -4.9219 v -7.9844 v -0.35938 c 0.007813 -0.13281 0.015625 -0.32031 0.015625 -0.5625 c 0 -1.082 -0.16406 -1.8633 -0.48438 -2.3438 c -0.3125 -0.48828 -0.82422 -0.73438 -1.5312 -0.73438 c -0.92969 0 -1.6484 0.38672 -2.1562 1.1562 c -0.51172 0.76172 -0.77344 1.8672 -0.78125 3.3125 v 7.5156 h -4.9219 v -7.9844 c 0 -1.6953 -0.14844 -2.7852 -0.4375 -3.2656 c -0.29297 -0.48828 -0.8125 -0.73438 -1.5625 -0.73438 c -0.9375 0 -1.6641 0.38672 -2.1719 1.1562 c -0.51172 0.76172 -0.76562 1.8594 -0.76562 3.2969 v 7.5312 h -4.9219 v -15.312 h 4.9219 v 2.2344 c 0.60156 -0.86328 1.2891 -1.5156 2.0625 -1.9531 c 0.78125 -0.4375 1.6406 -0.65625 2.5781 -0.65625 c 1.0625 0 2 0.25781 2.8125 0.76562 c 0.8125 0.51172 1.4258 1.2305 1.8438 2.1562 z" stroke-linecap="round" />
</g>
		<g transform="matrix(1.33 0 0 1.33 -252.38 416.23)"  >
<path style="stroke: none; stroke-width: 1; stroke-dasharray: none; stroke-linecap: butt; stroke-dashoffset: 0; stroke-linejoin: miter; stroke-miterlimit: 4; fill: rgb(0,0,0); fill-rule: nonzero; opacity: 1;"  transform=" translate(-6.56, 9.83)" d="m 7.7031 -19.656 v 4.3438 h 5.0469 v 3.5 h -5.0469 v 6.5 c 0 0.71094 0.14062 1.1875 0.42188 1.4375 s 0.83594 0.375 1.6719 0.375 h 2.5156 v 3.5 h -4.1875 c -1.9375 0 -3.3125 -0.39844 -4.125 -1.2031 c -0.80469 -0.8125 -1.2031 -2.1797 -1.2031 -4.1094 v -6.5 h -2.4219 v -3.5 h 2.4219 v -4.3438 z" stroke-linecap="round" />
</g>
		<g transform="matrix(1.33 0 0 1.33 -229.88 415.15)"  >
<path style="stroke: none; stroke-width: 1; stroke-dasharray: none; stroke-linecap: butt; stroke-dashoffset: 0; stroke-linejoin: miter; stroke-miterlimit: 4; fill: rgb(0,0,0); fill-rule: nonzero; opacity: 1;"  transform=" translate(-10.05, 10.64)" d="m 17.75 -9.3281 v 9.3281 h -4.9219 v -7.1094 c 0 -1.3438 -0.03125 -2.2656 -0.09375 -2.7656 s -0.16797 -0.86719 -0.3125 -1.1094 c -0.1875 -0.3125 -0.44922 -0.55469 -0.78125 -0.73438 c -0.32422 -0.17578 -0.69531 -0.26562 -1.1094 -0.26562 c -1.0234 0 -1.8242 0.39844 -2.4062 1.1875 c -0.58594 0.78125 -0.875 1.8711 -0.875 3.2656 v 7.5312 h -4.8906 v -21.281 h 4.8906 v 8.2031 c 0.73828 -0.88281 1.5195 -1.5391 2.3438 -1.9688 c 0.83203 -0.42578 1.75 -0.64062 2.75 -0.64062 c 1.7695 0 3.1133 0.54688 4.0312 1.6406 c 0.91406 1.0859 1.375 2.6562 1.375 4.7188 z" stroke-linecap="round" />
</g>
		<g transform="matrix(1.33 0 0 1.33 -204.15 419.14)"  >
<path style="stroke: none; stroke-width: 1; stroke-dasharray: none; stroke-linecap: butt; stroke-dashoffset: 0; stroke-linejoin: miter; stroke-miterlimit: 4; fill: rgb(0,0,0); fill-rule: nonzero; opacity: 1;"  transform=" translate(-9.42, 7.65)" d="m 17.641 -7.7031 v 1.4062 h -11.453 c 0.125 1.1484 0.53906 2.0078 1.25 2.5781 c 0.70703 0.57422 1.7031 0.85938 2.9844 0.85938 c 1.0312 0 2.082 -0.14844 3.1562 -0.45312 c 1.082 -0.3125 2.1914 -0.77344 3.3281 -1.3906 v 3.7656 c -1.1562 0.4375 -2.3125 0.76562 -3.4688 0.98438 c -1.1562 0.22656 -2.3125 0.34375 -3.4688 0.34375 c -2.7734 0 -4.9297 -0.70312 -6.4688 -2.1094 c -1.5312 -1.4062 -2.2969 -3.3789 -2.2969 -5.9219 c 0 -2.5 0.75391 -4.4609 2.2656 -5.8906 c 1.5078 -1.4375 3.582 -2.1562 6.2188 -2.1562 c 2.4062 0 4.332 0.73047 5.7812 2.1875 c 1.4453 1.4492 2.1719 3.3828 2.1719 5.7969 z m -5.0312 -1.625 c 0 -0.92578 -0.27344 -1.6719 -0.8125 -2.2344 c -0.54297 -0.57031 -1.25 -0.85938 -2.125 -0.85938 c -0.94922 0 -1.7188 0.26562 -2.3125 0.79688 s -0.96484 1.2969 -1.1094 2.2969 z" stroke-linecap="round" />
</g>
		<g transform="matrix(1.33 0 0 1.33 -162.77 415.73)"  >
<path style="stroke: none; stroke-width: 1; stroke-dasharray: none; stroke-linecap: butt; stroke-dashoffset: 0; stroke-linejoin: miter; stroke-miterlimit: 4; fill: rgb(0,0,0); fill-rule: nonzero; opacity: 1;"  transform=" translate(-11.72, 10.2)" d="m 2.5781 -20.406 h 5.875 l 7.4219 14 v -14 h 4.9844 v 20.406 h -5.875 l -7.4219 -14 v 14 h -4.9844 z" stroke-linecap="round" />
</g>
		<g transform="matrix(1.33 0 0 1.33 -134.32 419.13)"  >
<path style="stroke: none; stroke-width: 1; stroke-dasharray: none; stroke-linecap: butt; stroke-dashoffset: 0; stroke-linejoin: miter; stroke-miterlimit: 4; fill: rgb(0,0,0); fill-rule: nonzero; opacity: 1;"  transform=" translate(-9.62, 7.65)" d="m 9.6406 -12.188 c -1.0859 0 -1.9141 0.39062 -2.4844 1.1719 c -0.57422 0.78125 -0.85938 1.9062 -0.85938 3.375 s 0.28516 2.5938 0.85938 3.375 c 0.57031 0.77344 1.3984 1.1562 2.4844 1.1562 c 1.0625 0 1.875 -0.38281 2.4375 -1.1562 c 0.57031 -0.78125 0.85938 -1.9062 0.85938 -3.375 s -0.28906 -2.5938 -0.85938 -3.375 c -0.5625 -0.78125 -1.375 -1.1719 -2.4375 -1.1719 z m 0 -3.5 c 2.6328 0 4.6914 0.71484 6.1719 2.1406 c 1.4766 1.418 2.2188 3.3867 2.2188 5.9062 c 0 2.5117 -0.74219 4.4805 -2.2188 5.9062 c -1.4805 1.418 -3.5391 2.125 -6.1719 2.125 c -2.6484 0 -4.7148 -0.70703 -6.2031 -2.125 c -1.4922 -1.4258 -2.2344 -3.3945 -2.2344 -5.9062 c 0 -2.5195 0.74219 -4.4883 2.2344 -5.9062 c 1.4883 -1.4258 3.5547 -2.1406 6.2031 -2.1406 z" stroke-linecap="round" />
</g>
		<g transform="matrix(1.33 0 0 1.33 -108.32 419.38)"  >
<path style="stroke: none; stroke-width: 1; stroke-dasharray: none; stroke-linecap: butt; stroke-dashoffset: 0; stroke-linejoin: miter; stroke-miterlimit: 4; fill: rgb(0,0,0); fill-rule: nonzero; opacity: 1;"  transform=" translate(-9.88, 7.46)" d="m 2.1875 -5.9688 v -9.3438 h 4.9219 v 1.5312 c 0 0.83594 -0.007813 1.875 -0.015625 3.125 c -0.011719 1.25 -0.015625 2.0859 -0.015625 2.5 c 0 1.2422 0.03125 2.1328 0.09375 2.6719 c 0.070313 0.54297 0.17969 0.93359 0.32812 1.1719 c 0.20703 0.32422 0.47266 0.57422 0.79688 0.75 c 0.32031 0.16797 0.69141 0.25 1.1094 0.25 c 1.0195 0 1.8203 -0.39062 2.4062 -1.1719 c 0.58203 -0.78125 0.875 -1.8672 0.875 -3.2656 v -7.5625 h 4.8906 v 15.312 h -4.8906 v -2.2188 c -0.74219 0.89844 -1.5234 1.5586 -2.3438 1.9844 c -0.82422 0.41406 -1.7344 0.625 -2.7344 0.625 c -1.7617 0 -3.1055 -0.53906 -4.0312 -1.625 c -0.92969 -1.082 -1.3906 -2.6602 -1.3906 -4.7344 z" stroke-linecap="round" />
</g>
		<g transform="matrix(1.33 0 0 1.33 -81.51 418.88)"  >
<path style="stroke: none; stroke-width: 1; stroke-dasharray: none; stroke-linecap: butt; stroke-dashoffset: 0; stroke-linejoin: miter; stroke-miterlimit: 4; fill: rgb(0,0,0); fill-rule: nonzero; opacity: 1;"  transform=" translate(-10.05, 7.84)" d="m 17.75 -9.3281 v 9.3281 h -4.9219 v -7.1406 c 0 -1.3203 -0.03125 -2.2344 -0.09375 -2.7344 s -0.16797 -0.86719 -0.3125 -1.1094 c -0.1875 -0.3125 -0.44922 -0.55469 -0.78125 -0.73438 c -0.32422 -0.17578 -0.69531 -0.26562 -1.1094 -0.26562 c -1.0234 0 -1.8242 0.39844 -2.4062 1.1875 c -0.58594 0.78125 -0.875 1.8711 -0.875 3.2656 v 7.5312 h -4.8906 v -15.312 h 4.8906 v 2.2344 c 0.73828 -0.88281 1.5195 -1.5391 2.3438 -1.9688 c 0.83203 -0.42578 1.75 -0.64062 2.75 -0.64062 c 1.7695 0 3.1133 0.54688 4.0312 1.6406 c 0.91406 1.0859 1.375 2.6562 1.375 4.7188 z" stroke-linecap="round" />
</g>
		<g transform="matrix(1.33 0 0 1.33 -40.71 415.73)"  >
<path style="stroke: none; stroke-width: 1; stroke-dasharray: none; stroke-linecap: butt; stroke-dashoffset: 0; stroke-linejoin: miter; stroke-miterlimit: 4; fill: rgb(0,0,0); fill-rule: nonzero; opacity: 1;"  transform=" translate(-10.98, 10.2)" d="m 2.5781 -20.406 h 8.7344 c 2.5938 0 4.582 0.57812 5.9688 1.7344 c 1.3945 1.1484 2.0938 2.7891 2.0938 4.9219 c 0 2.1367 -0.69922 3.7812 -2.0938 4.9375 c -1.3867 1.1562 -3.375 1.7344 -5.9688 1.7344 h -3.4844 v 7.0781 h -5.25 z m 5.25 3.8125 v 5.7031 h 2.9219 c 1.0195 0 1.8047 -0.25 2.3594 -0.75 c 0.5625 -0.5 0.84375 -1.2031 0.84375 -2.1094 c 0 -0.91406 -0.28125 -1.6172 -0.84375 -2.1094 c -0.55469 -0.48828 -1.3398 -0.73438 -2.3594 -0.73438 z" stroke-linecap="round" />
</g>
		<g transform="matrix(1.33 0 0 1.33 -17.25 418.87)"  >
<path style="stroke: none; stroke-width: 1; stroke-dasharray: none; stroke-linecap: butt; stroke-dashoffset: 0; stroke-linejoin: miter; stroke-miterlimit: 4; fill: rgb(0,0,0); fill-rule: nonzero; opacity: 1;"  transform=" translate(-8.05, 7.84)" d="m 13.734 -11.141 c -0.4375 -0.19531 -0.87109 -0.34375 -1.2969 -0.4375 c -0.41797 -0.10156 -0.83984 -0.15625 -1.2656 -0.15625 c -1.2617 0 -2.2305 0.40625 -2.9062 1.2188 c -0.67969 0.80469 -1.0156 1.9531 -1.0156 3.4531 v 7.0625 h -4.8906 v -15.312 h 4.8906 v 2.5156 c 0.625 -1 1.3438 -1.7266 2.1562 -2.1875 c 0.82031 -0.46875 1.8008 -0.70312 2.9375 -0.70312 c 0.16406 0 0.34375 0.011719 0.53125 0.03125 c 0.19531 0.011719 0.47656 0.039062 0.84375 0.078125 z" stroke-linecap="round" />
</g>
		<g transform="matrix(1.33 0 0 1.33 3.25 419.13)"  >
<path style="stroke: none; stroke-width: 1; stroke-dasharray: none; stroke-linecap: butt; stroke-dashoffset: 0; stroke-linejoin: miter; stroke-miterlimit: 4; fill: rgb(0,0,0); fill-rule: nonzero; opacity: 1;"  transform=" translate(-9.62, 7.65)" d="m 9.6406 -12.188 c -1.0859 0 -1.9141 0.39062 -2.4844 1.1719 c -0.57422 0.78125 -0.85938 1.9062 -0.85938 3.375 s 0.28516 2.5938 0.85938 3.375 c 0.57031 0.77344 1.3984 1.1562 2.4844 1.1562 c 1.0625 0 1.875 -0.38281 2.4375 -1.1562 c 0.57031 -0.78125 0.85938 -1.9062 0.85938 -3.375 s -0.28906 -2.5938 -0.85938 -3.375 c -0.5625 -0.78125 -1.375 -1.1719 -2.4375 -1.1719 z m 0 -3.5 c 2.6328 0 4.6914 0.71484 6.1719 2.1406 c 1.4766 1.418 2.2188 3.3867 2.2188 5.9062 c 0 2.5117 -0.74219 4.4805 -2.2188 5.9062 c -1.4805 1.418 -3.5391 2.125 -6.1719 2.125 c -2.6484 0 -4.7148 -0.70703 -6.2031 -2.125 c -1.4922 -1.4258 -2.2344 -3.3945 -2.2344 -5.9062 c 0 -2.5195 0.74219 -4.4883 2.2344 -5.9062 c 1.4883 -1.4258 3.5547 -2.1406 6.2031 -2.1406 z" stroke-linecap="round" />
</g>
		<g transform="matrix(1.33 0 0 1.33 20.29 419.18)"  >
<path style="stroke: none; stroke-width: 1; stroke-dasharray: none; stroke-linecap: butt; stroke-dashoffset: 0; stroke-linejoin: miter; stroke-miterlimit: 4; fill: rgb(0,0,0); fill-rule: nonzero; opacity: 1;"  transform=" translate(-3.16, 7.62)" d="m 2.3594 -15.312 h 4.8906 v 15.031 c 0 2.0508 -0.49609 3.6172 -1.4844 4.7031 c -0.98047 1.082 -2.4062 1.625 -4.2812 1.625 h -2.4219 v -3.2188 h 0.85938 c 0.92578 0 1.5625 -0.21094 1.9062 -0.625 c 0.35156 -0.41797 0.53125 -1.2461 0.53125 -2.4844 z m 0 -5.9688 h 4.8906 v 4 h -4.8906 z" stroke-linecap="round" />
</g>
		<g transform="matrix(1.33 0 0 1.33 41.44 419.14)"  >
<path style="stroke: none; stroke-width: 1; stroke-dasharray: none; stroke-linecap: butt; stroke-dashoffset: 0; stroke-linejoin: miter; stroke-miterlimit: 4; fill: rgb(0,0,0); fill-rule: nonzero; opacity: 1;"  transform=" translate(-9.42, 7.65)" d="m 17.641 -7.7031 v 1.4062 h -11.453 c 0.125 1.1484 0.53906 2.0078 1.25 2.5781 c 0.70703 0.57422 1.7031 0.85938 2.9844 0.85938 c 1.0312 0 2.082 -0.14844 3.1562 -0.45312 c 1.082 -0.3125 2.1914 -0.77344 3.3281 -1.3906 v 3.7656 c -1.1562 0.4375 -2.3125 0.76562 -3.4688 0.98438 c -1.1562 0.22656 -2.3125 0.34375 -3.4688 0.34375 c -2.7734 0 -4.9297 -0.70312 -6.4688 -2.1094 c -1.5312 -1.4062 -2.2969 -3.3789 -2.2969 -5.9219 c 0 -2.5 0.75391 -4.4609 2.2656 -5.8906 c 1.5078 -1.4375 3.582 -2.1562 6.2188 -2.1562 c 2.4062 0 4.332 0.73047 5.7812 2.1875 c 1.4453 1.4492 2.1719 3.3828 2.1719 5.7969 z m -5.0312 -1.625 c 0 -0.92578 -0.27344 -1.6719 -0.8125 -2.2344 c -0.54297 -0.57031 -1.25 -0.85938 -2.125 -0.85938 c -0.94922 0 -1.7188 0.26562 -2.3125 0.79688 s -0.96484 1.2969 -1.1094 2.2969 z" stroke-linecap="round" />
</g>
		<g transform="matrix(1.33 0 0 1.33 64.81 419.14)"  >
<path style="stroke: none; stroke-width: 1; stroke-dasharray: none; stroke-linecap: butt; stroke-dashoffset: 0; stroke-linejoin: miter; stroke-miterlimit: 4; fill: rgb(0,0,0); fill-rule: nonzero; opacity: 1;"  transform=" translate(-7.96, 7.65)" d="m 14.719 -14.828 v 3.9844 c -0.65625 -0.45703 -1.3242 -0.79688 -2 -1.0156 c -0.66797 -0.21875 -1.3594 -0.32812 -2.0781 -0.32812 c -1.3672 0 -2.4336 0.40234 -3.2031 1.2031 c -0.76172 0.79297 -1.1406 1.9062 -1.1406 3.3438 c 0 1.4297 0.37891 2.543 1.1406 3.3438 c 0.76953 0.79297 1.8359 1.1875 3.2031 1.1875 c 0.75781 0 1.4844 -0.10938 2.1719 -0.32812 c 0.6875 -0.22656 1.3203 -0.56641 1.9062 -1.0156 v 4 c -0.76172 0.28125 -1.5391 0.48828 -2.3281 0.625 c -0.78125 0.14453 -1.5742 0.21875 -2.375 0.21875 c -2.7617 0 -4.9219 -0.70703 -6.4844 -2.125 c -1.5547 -1.4141 -2.3281 -3.3828 -2.3281 -5.9062 c 0 -2.5312 0.77344 -4.5039 2.3281 -5.9219 c 1.5625 -1.4141 3.7227 -2.125 6.4844 -2.125 c 0.80078 0 1.5938 0.074219 2.375 0.21875 c 0.78125 0.13672 1.5547 0.35156 2.3281 0.64062 z" stroke-linecap="round" />
</g>
		<g transform="matrix(1.33 0 0 1.33 85.07 416.23)"  >
<path style="stroke: none; stroke-width: 1; stroke-dasharray: none; stroke-linecap: butt; stroke-dashoffset: 0; stroke-linejoin: miter; stroke-miterlimit: 4; fill: rgb(0,0,0); fill-rule: nonzero; opacity: 1;"  transform=" translate(-6.56, 9.83)" d="m 7.7031 -19.656 v 4.3438 h 5.0469 v 3.5 h -5.0469 v 6.5 c 0 0.71094 0.14062 1.1875 0.42188 1.4375 s 0.83594 0.375 1.6719 0.375 h 2.5156 v 3.5 h -4.1875 c -1.9375 0 -3.3125 -0.39844 -4.125 -1.2031 c -0.80469 -0.8125 -1.2031 -2.1797 -1.2031 -4.1094 v -6.5 h -2.4219 v -3.5 h 2.4219 v -4.3438 z" stroke-linecap="round" />
</g>
</g>
</g>
</svg>