<svg width="1600" height="1280" version="1.1" xmlns="http://www.w3.org/2000/svg" desc="Created with imagetracer.js version 1.2.6" ><path fill="rgb(0,0,0)" stroke="rgb(0,0,0)" stroke-width="1" opacity="0" d="M 0 0 L 1600 0 L 1600 1280 L 0 1280 L 0 0 Z M 294 424 L 294 457 Q 294 457 290 457 L 290 459 L 288 469 L 279 496 L 268 540 L 254 615 L 250 651 L 249 652 L 249 659 L 248 660 L 248 668 L 247 669 L 246 687 L 245 688 L 243 724 L 242 725 L 242 739 L 241 740 L 241 760 L 240 761 L 240 866 L 241 867 L 242 923 L 243 924 L 243 936 L 244 937 L 245 958 L 246 959 L 246 969 L 247 970 L 248 988 L 249 989 L 249 997 L 252 1014 L 252 1021 L 253 1022 L 253 1029 L 254 1030 L 256 1050 L 258 1057 L 258 1063 L 263 1088 L 263 1093 L 273 1144 L 286 1199 L 304 1259 L 306 1260 L 1035 1260 L 1037 1257 L 1041 1245 L 1058 1180 L 1211 1180 L 1212 1179 L 1233 1179 Q 1234 1177 1240 1178 Q 1308 1163 1351 1122 Q 1389 1087 1409 1033 L 1416 1009 L 1418 999 L 1418 992 L 1419 991 L 1419 929 L 1420 928 L 1420 651 L 1413 621 L 1403 593 Q 1387 556 1361 529 Q 1319 482 1249 464 L 1239 462 L 1232 462 L 1231 461 L 1217 461 L 1216 460 L 1049 460 L 1047 453 L 1047 425 L 1047 424 L 294 424 Z " /><path fill="rgb(0,0,0)" stroke="rgb(0,0,0)" stroke-width="1" opacity="0" d="M 956.5 459 L 1021 459 L 1021 525.5 L 1022 525.5 L 1022.5 517 L 1027 532.5 L 1039 588.5 L 1039 593.5 L 1045 624.5 L 1047 644.5 L 1048 645.5 L 1051 677.5 L 1052 678.5 L 1052 687.5 L 1053 688.5 L 1054 709.5 L 1055 710.5 L 1057 754.5 L 1058 755.5 L 1058 774.5 L 1059 780 L 884 780 L 884 704.5 L 881 694.5 L 880 460 L 955.5 460 L 956.5 459 Z " /><path fill="rgb(0,0,0)" stroke="rgb(0,0,0)" stroke-width="1" opacity="0" d="M 334 460 L 460 460 L 460 612.5 L 461 613.5 L 461 630.5 L 465 641.5 L 465 663.5 L 464 664.5 L 464 679.5 L 463 680.5 L 463 695.5 L 462 696.5 L 462 715.5 L 461 716.5 L 460 780 L 282.5 780 L 282 779.5 L 282 756.5 L 283 755.5 L 283 738.5 L 284 737.5 L 284 723.5 L 285 722.5 L 287 688.5 L 288 687.5 L 288 679.5 L 289 678.5 L 289 670.5 L 290 669.5 L 293 638.5 L 294 637.5 L 294 631.5 L 295 630.5 L 295 624.5 L 296 623.5 L 300 594.5 L 308 554.5 L 318 513.5 L 334 460 Z " /><path fill="rgb(0,0,0)" stroke="rgb(0,0,0)" stroke-width="1" opacity="0" d="M 500 460 L 599 460.5 L 598 461.5 L 598 494.5 L 599 495.5 L 599 568.5 L 598 569.5 L 598 602.5 L 599 603.5 L 600 780 L 502 780 L 502 733.5 L 501 732.5 L 501 571.5 L 500 570.5 L 500 460 Z " /><path fill="rgb(0,0,0)" stroke="rgb(0,0,0)" stroke-width="1" opacity="0" d="M 640 460 L 737.5 460 L 738 460.5 L 738 780 L 641 780 L 641 743.5 L 640 742.5 L 640 672.5 L 641 671.5 L 641 635.5 L 640 634.5 L 640 460 Z " /><path fill="rgb(0,0,0)" stroke="rgb(0,0,0)" stroke-width="1" opacity="0" d="M 782 460 L 839.5 460 L 840 460.5 L 840 780 L 782.5 780 L 782 779.5 L 782 460 Z " /><path fill="rgb(0,0,0)" stroke="rgb(0,0,0)" stroke-width="1" opacity="0" d="M 1062 500 L 1210.5 501 L 1211.5 502 L 1220.5 502 L 1242.5 506 Q 1300.1 521.9 1334 561.5 Q 1352.2 581.8 1364 608.5 L 1374 636.5 L 1378 658.5 L 1378 680.5 L 1379 681.5 L 1379 965.5 L 1378 966.5 L 1378 983.5 L 1376 994.5 L 1371 1013.5 L 1365 1029.5 Q 1347.8 1068.8 1317.5 1095 Q 1283.5 1126 1229.5 1137 L 1207.5 1138 L 1206.5 1139 L 1125.5 1139 L 1124.5 1140 L 1068 1140 L 1079 1080 L 1200.5 1080 L 1201.5 1079 L 1223.5 1079 Q 1224.7 1076.8 1229.5 1078 Q 1269.4 1065.9 1293 1037.5 Q 1304.6 1024.1 1312 1006.5 L 1316 995.5 L 1320 975.5 L 1320 963.5 L 1321 962.5 L 1321 677.5 L 1320 676.5 L 1320 664.5 L 1319 663.5 L 1318 652.5 L 1312 633.5 Q 1299.8 605.2 1277.5 587 Q 1263.8 575.7 1246.5 568 L 1223.5 561 L 1205.5 561 L 1204.5 560 L 1076.5 560 L 1075 558.5 L 1072 540.5 L 1062 500 Z " /><path fill="rgb(0,0,0)" stroke="rgb(0,0,0)" stroke-width="1" opacity="0" d="M 1083.5 600 L 1144.5 600 L 1145.5 601 L 1204.5 601 L 1205.5 602 L 1215.5 602 Q 1242.9 609.1 1259 627.5 Q 1273.2 642.3 1278 666.5 Q 1276.5 672 1279 673.5 L 1279 764.5 L 1280 769.5 L 1279 770.5 L 1279 959.5 L 1278 960.5 L 1278 975.5 Q 1270.9 1002.9 1252.5 1019 Q 1237.8 1032.3 1215.5 1038 L 1204.5 1038 L 1203.5 1039 L 1128.5 1039 L 1127.5 1040 L 1111.5 1040 L 1110.5 1039 L 1085 1039 L 1086 1036.5 L 1088 1012.5 L 1091 995.5 L 1091 986.5 L 1092 985.5 L 1094 956.5 L 1096 945.5 L 1096 934.5 L 1097 933.5 L 1098 907.5 L 1099 906.5 L 1100 785.5 L 1099 784.5 L 1099 741.5 L 1098 740.5 L 1098 721.5 L 1097 720.5 L 1096 698.5 L 1095 697.5 L 1095 688.5 L 1094 687.5 L 1094 678.5 L 1093 677.5 L 1093 668.5 L 1091 659.5 L 1089 635.5 L 1084 607.5 L 1084 601.5 L 1083.5 600 Z " /><path fill="rgb(0,0,0)" stroke="rgb(0,0,0)" stroke-width="1" opacity="0" d="M 552.5 819 L 848.5 819 L 849.5 820 L 1058 820 L 1058 884.5 L 1057 885.5 L 1057 900 L 283.5 900 L 283 899.5 L 283 885.5 L 282 884.5 L 282 820 L 551.5 820 L 552.5 819 Z " /><path fill="rgb(0,0,0)" stroke="rgb(0,0,0)" stroke-width="1" opacity="0" d="M 287 940 L 433.5 940 L 434.5 941 L 464 941 L 464 953.5 L 465 954.5 L 465 964.5 L 466 965.5 L 466 974.5 L 468 984.5 L 470 1012.5 L 471 1013.5 L 473 1036.5 L 474 1037.5 L 474 1043.5 L 475 1044.5 L 475 1050.5 L 476 1051.5 L 476 1057.5 L 478 1064.5 L 482 1094.5 L 495 1158.5 L 506 1202.5 L 511 1217.5 L 509.5 1219 L 490.5 1219 L 489.5 1220 L 336.5 1220 L 334 1215.5 L 321 1164.5 L 305 1087.5 L 303 1070.5 L 300 1058.5 L 299 1045.5 L 297 1038.5 L 295 1018.5 L 294 1017.5 L 292 994.5 L 291 993.5 L 291 985.5 L 290 984.5 L 290 976.5 L 288 966.5 L 288 956.5 L 287 955.5 L 287 940 Z " /><path fill="rgb(0,0,0)" stroke="rgb(0,0,0)" stroke-width="1" opacity="0" d="M 505 940 L 834.5 940 L 835 942.5 L 834 943.5 L 834 953.5 L 833 954.5 L 833 964.5 L 832 965.5 L 832 980.5 L 831 981.5 L 831 991.5 L 830 992.5 L 830 1002.5 L 829 1003.5 L 829 1014.5 L 826 1023.5 L 817 1085.5 L 799 1170.5 L 785 1220 L 555.5 1220 L 555 1217.5 L 540 1166.5 L 524 1090.5 L 524 1085.5 L 519 1060.5 L 519 1054.5 L 517 1047.5 L 516 1034.5 L 515 1033.5 L 515 1026.5 L 514 1025.5 L 512 1002.5 L 511 1001.5 L 511 993.5 L 510 992.5 L 507 953.5 L 506 952.5 L 506 942.5 L 505 940 Z " /><path fill="rgb(0,0,0)" stroke="rgb(0,0,0)" stroke-width="1" opacity="0" d="M 876 940 L 1052.5 940 L 1053 940.5 L 1053 955.5 L 1052 956.5 L 1052 966.5 L 1051 967.5 L 1051 975.5 L 1050 976.5 L 1050 984.5 L 1049 985.5 L 1046 1017.5 L 1045 1018.5 L 1043 1038.5 L 1042 1039.5 L 1034 1092.5 L 1021 1155.5 L 1005 1220 L 845.5 1220 L 844.5 1219 L 829 1218.5 L 847 1149.5 L 860 1082.5 L 866 1037.5 L 869 1027.5 L 869 1020.5 L 871 1012.5 L 872 993.5 L 873 992.5 L 873 975.5 L 874 974.5 L 875 955.5 L 876 954.5 L 876 940 Z " /><path fill="rgb(0,0,0)" stroke="rgb(0,0,0)" stroke-width="1" opacity="0.8784313725490196" d="M 1168.5 460 L 1199 460.5 L 1168.5 461 L 1168.5 460 Z " /><path fill="rgb(0,0,0)" stroke="rgb(0,0,0)" stroke-width="1" opacity="0.8784313725490196" d="M 1222.5 461 L 1226 461.5 L 1222.5 462 L 1222.5 461 Z " /><path fill="rgb(0,0,0)" stroke="rgb(0,0,0)" stroke-width="1" opacity="0.8784313725490196" d="M 1326.5 499 L 1327.5 501 L 1326.5 499 Z " /><path fill="rgb(0,0,0)" stroke="rgb(0,0,0)" stroke-width="1" opacity="0.8784313725490196" d="M 1195.5 500 L 1204 500.5 L 1195.5 501 L 1195.5 500 Z " /><path fill="rgb(0,0,0)" stroke="rgb(0,0,0)" stroke-width="1" opacity="0.8784313725490196" d="M 1215.5 501 L 1218 501.5 L 1215.5 502 L 1215.5 501 Z " /><path fill="rgb(0,0,0)" stroke="rgb(0,0,0)" stroke-width="1" opacity="0.8784313725490196" d="M 460.5 502 L 461 558.5 L 460 558.5 L 460.5 502 Z " /><path fill="rgb(0,0,0)" stroke="rgb(0,0,0)" stroke-width="1" opacity="0.8784313725490196" d="M 1339.5 509 L 1340.5 511 L 1339.5 509 Z " /><path fill="rgb(0,0,0)" stroke="rgb(0,0,0)" stroke-width="1" opacity="0.8784313725490196" d="M 1021 514 L 1023 514.5 L 1021.5 521 L 1021 514 Z " /><path fill="rgb(0,0,0)" stroke="rgb(0,0,0)" stroke-width="1" opacity="0.8784313725490196" d="M 1345.5 514 L 1348.5 518 L 1345.5 514 Z " /><path fill="rgb(0,0,0)" stroke="rgb(0,0,0)" stroke-width="1" opacity="0.8784313725490196" d="M 1361.5 530 L 1364.5 534 L 1361.5 530 Z " /><path fill="rgb(0,0,0)" stroke="rgb(0,0,0)" stroke-width="1" opacity="0.8784313725490196" d="M 1303.5 533 L 1304.5 535 L 1303.5 533 Z " /><path fill="rgb(0,0,0)" stroke="rgb(0,0,0)" stroke-width="1" opacity="0.8784313725490196" d="M 1307.5 536 L 1308.5 538 L 1307.5 536 Z " /><path fill="rgb(0,0,0)" stroke="rgb(0,0,0)" stroke-width="1" opacity="0.8784313725490196" d="M 1368.5 538 L 1370.5 541 L 1368.5 538 Z " /><path fill="rgb(0,0,0)" stroke="rgb(0,0,0)" stroke-width="1" opacity="0.8784313725490196" d="M 1312.5 540 L 1313.5 542 L 1312.5 540 Z " /><path fill="rgb(0,0,0)" stroke="rgb(0,0,0)" stroke-width="1" opacity="0.8784313725490196" d="M 1318.5 545 L 1322.5 550 L 1318.5 545 Z " /><path fill="rgb(0,0,0)" stroke="rgb(0,0,0)" stroke-width="1" opacity="0.8784313725490196" d="M 1329.5 556 L 1333.5 561 L 1329.5 556 Z " /><path fill="rgb(0,0,0)" stroke="rgb(0,0,0)" stroke-width="1" opacity="0.8784313725490196" d="M 1107.5 560 L 1156 560.5 L 1107.5 561 L 1107.5 560 Z " /><path fill="rgb(0,0,0)" stroke="rgb(0,0,0)" stroke-width="1" opacity="0.8784313725490196" d="M 1215.5 561 L 1220 561.5 L 1215.5 562 L 1215.5 561 Z " /><path fill="rgb(0,0,0)" stroke="rgb(0,0,0)" stroke-width="1" opacity="0.8784313725490196" d="M 1338.5 566 L 1339.5 568 L 1338.5 566 Z " /><path fill="rgb(0,0,0)" stroke="rgb(0,0,0)" stroke-width="1" opacity="0.8784313725490196" d="M 1342.5 571 L 1343.5 573 L 1342.5 571 Z " /><path fill="rgb(0,0,0)" stroke="rgb(0,0,0)" stroke-width="1" opacity="0.8784313725490196" d="M 1347.5 578 L 1348.5 580 L 1347.5 578 Z " /><path fill="rgb(0,0,0)" stroke="rgb(0,0,0)" stroke-width="1" opacity="0.8784313725490196" d="M 1270.5 582 L 1271.5 584 L 1270.5 582 Z " /><path fill="rgb(0,0,0)" stroke="rgb(0,0,0)" stroke-width="1" opacity="0.8784313725490196" d="M 1274.5 585 L 1276.5 588 L 1274.5 585 Z " /><path fill="rgb(0,0,0)" stroke="rgb(0,0,0)" stroke-width="1" opacity="0.8784313725490196" d="M 1280.5 590 L 1289.5 600 L 1280.5 590 Z " /><path fill="rgb(0,0,0)" stroke="rgb(0,0,0)" stroke-width="1" opacity="0.8784313725490196" d="M 1083.5 599 L 1110 599.5 L 1083.5 600 L 1083.5 599 Z " /><path fill="rgb(0,0,0)" stroke="rgb(0,0,0)" stroke-width="1" opacity="0.8784313725490196" d="M 1184.5 600 L 1195 600.5 L 1184.5 601 L 1184.5 600 Z " /><path fill="rgb(0,0,0)" stroke="rgb(0,0,0)" stroke-width="1" opacity="0.8784313725490196" d="M 1211.5 601 L 1214 601.5 L 1211.5 602 L 1211.5 601 Z " /><path fill="rgb(0,0,0)" stroke="rgb(0,0,0)" stroke-width="1" opacity="0.8784313725490196" d="M 500.5 602 L 501 610.5 L 500 610.5 L 500.5 602 Z " /><path fill="rgb(0,0,0)" stroke="rgb(0,0,0)" stroke-width="1" opacity="0.8784313725490196" d="M 1293.5 604 L 1294.5 606 L 1293.5 604 Z " /><path fill="rgb(0,0,0)" stroke="rgb(0,0,0)" stroke-width="1" opacity="0.8784313725490196" d="M 461.5 622 L 462 626.5 L 461 626.5 L 461.5 622 Z " /><path fill="rgb(0,0,0)" stroke="rgb(0,0,0)" stroke-width="1" opacity="0.8784313725490196" d="M 1254.5 622 L 1257.5 626 L 1254.5 622 Z " /><path fill="rgb(0,0,0)" stroke="rgb(0,0,0)" stroke-width="1" opacity="0.8784313725490196" d="M 1262.5 631 L 1263.5 633 L 1262.5 631 Z " /><path fill="rgb(0,0,0)" stroke="rgb(0,0,0)" stroke-width="1" opacity="0.8784313725490196" d="M 250.5 646 L 251 648.5 L 250 648.5 L 250.5 646 Z " /><path fill="rgb(0,0,0)" stroke="rgb(0,0,0)" stroke-width="1" opacity="0.8784313725490196" d="M 1089.5 646 L 1090 648.5 L 1089 648.5 L 1089.5 646 Z " /><path fill="rgb(0,0,0)" stroke="rgb(0,0,0)" stroke-width="1" opacity="0.8784313725490196" d="M 1377.5 651 L 1378 653.5 L 1377 653.5 L 1377.5 651 Z " /><path fill="rgb(0,0,0)" stroke="rgb(0,0,0)" stroke-width="1" opacity="0.8784313725490196" d="M 249.5 654 L 250 656.5 L 249 656.5 L 249.5 654 Z " /><path fill="rgb(0,0,0)" stroke="rgb(0,0,0)" stroke-width="1" opacity="0.8784313725490196" d="M 290.5 655 L 291 657.5 L 290 657.5 L 290.5 655 Z " /><path fill="rgb(0,0,0)" stroke="rgb(0,0,0)" stroke-width="1" opacity="0.8784313725490196" d="M 465.5 655 L 466 658.5 L 465 658.5 L 465.5 655 Z " /><path fill="rgb(0,0,0)" stroke="rgb(0,0,0)" stroke-width="1" opacity="0.8784313725490196" d="M 1378.5 662 L 1379 666.5 L 1378 666.5 L 1378.5 662 Z " /><path fill="rgb(0,0,0)" stroke="rgb(0,0,0)" stroke-width="1" opacity="0.8784313725490196" d="M 1319.5 668 L 1320 670.5 L 1319 670.5 L 1319.5 668 Z " /><path fill="rgb(0,0,0)" stroke="rgb(0,0,0)" stroke-width="1" opacity="0.8784313725490196" d="M 464.5 671 L 465 674.5 L 464 674.5 L 464.5 671 Z " /><path fill="rgb(0,0,0)" stroke="rgb(0,0,0)" stroke-width="1" opacity="0.8784313725490196" d="M 247.5 672 L 248 674.5 L 247 674.5 L 247.5 672 Z " /><path fill="rgb(0,0,0)" stroke="rgb(0,0,0)" stroke-width="1" opacity="0.8784313725490196" d="M 288.5 672 L 289 674.5 L 288 674.5 L 288.5 672 Z " /><path fill="rgb(0,0,0)" stroke="rgb(0,0,0)" stroke-width="1" opacity="0.8784313725490196" d="M 1092.5 672 L 1093 674.5 L 1092 674.5 L 1092.5 672 Z " /><path fill="rgb(0,0,0)" stroke="rgb(0,0,0)" stroke-width="1" opacity="0.8784313725490196" d="M 880.5 678 L 881 689.5 L 880 689.5 L 880.5 678 Z " /><path fill="rgb(0,0,0)" stroke="rgb(0,0,0)" stroke-width="1" opacity="0.8784313725490196" d="M 1279.5 678 L 1280 687.5 L 1279 687.5 L 1279.5 678 Z " /><path fill="rgb(0,0,0)" stroke="rgb(0,0,0)" stroke-width="1" opacity="0.8784313725490196" d="M 1052.5 681 L 1053 683.5 L 1052 683.5 L 1052.5 681 Z " /><path fill="rgb(0,0,0)" stroke="rgb(0,0,0)" stroke-width="1" opacity="0.8784313725490196" d="M 1093.5 682 L 1094 684.5 L 1093 684.5 L 1093.5 682 Z " /><path fill="rgb(0,0,0)" stroke="rgb(0,0,0)" stroke-width="1" opacity="0.8784313725490196" d="M 463.5 687 L 464 691.5 L 463 691.5 L 463.5 687 Z " /><path fill="rgb(0,0,0)" stroke="rgb(0,0,0)" stroke-width="1" opacity="0.8784313725490196" d="M 286.5 691 L 287 693.5 L 286 693.5 L 286.5 691 Z " /><path fill="rgb(0,0,0)" stroke="rgb(0,0,0)" stroke-width="1" opacity="0.8784313725490196" d="M 1053.5 691 L 1054 693.5 L 1053 693.5 L 1053.5 691 Z " /><path fill="rgb(0,0,0)" stroke="rgb(0,0,0)" stroke-width="1" opacity="0.8784313725490196" d="M 245.5 692 L 246 694.5 L 245 694.5 L 245.5 692 Z " /><path fill="rgb(0,0,0)" stroke="rgb(0,0,0)" stroke-width="1" opacity="0.8784313725490196" d="M 1094.5 692 L 1095 694.5 L 1094 694.5 L 1094.5 692 Z " /><path fill="rgb(0,0,0)" stroke="rgb(0,0,0)" stroke-width="1" opacity="0.8784313725490196" d="M 1379.5 694 L 1380 762.5 L 1379 762.5 L 1379.5 694 Z " /><path fill="rgb(0,0,0)" stroke="rgb(0,0,0)" stroke-width="1" opacity="0.8784313725490196" d="M 738.5 700 L 739 779.5 L 738 779.5 L 738.5 700 Z " /><path fill="rgb(0,0,0)" stroke="rgb(0,0,0)" stroke-width="1" opacity="0.8784313725490196" d="M 1320.5 701 L 1321 727.5 L 1320 727.5 L 1320.5 701 Z " /><path fill="rgb(0,0,0)" stroke="rgb(0,0,0)" stroke-width="1" opacity="0.8784313725490196" d="M 285.5 702 L 286 704.5 L 285 704.5 L 285.5 702 Z " /><path fill="rgb(0,0,0)" stroke="rgb(0,0,0)" stroke-width="1" opacity="0.8784313725490196" d="M 1054.5 702 L 1055 704.5 L 1054 704.5 L 1054.5 702 Z " /><path fill="rgb(0,0,0)" stroke="rgb(0,0,0)" stroke-width="1" opacity="0.8784313725490196" d="M 244.5 703 L 245 705.5 L 244 705.5 L 244.5 703 Z " /><path fill="rgb(0,0,0)" stroke="rgb(0,0,0)" stroke-width="1" opacity="0.8784313725490196" d="M 1095.5 703 L 1096 705.5 L 1095 705.5 L 1095.5 703 Z " /><path fill="rgb(0,0,0)" stroke="rgb(0,0,0)" stroke-width="1" opacity="0.8784313725490196" d="M 462.5 705 L 463 709.5 L 462 709.5 L 462.5 705 Z " /><path fill="rgb(0,0,0)" stroke="rgb(0,0,0)" stroke-width="1" opacity="0.8784313725490196" d="M 284.5 714 L 285 716.5 L 284 716.5 L 284.5 714 Z " /><path fill="rgb(0,0,0)" stroke="rgb(0,0,0)" stroke-width="1" opacity="0.8784313725490196" d="M 1055.5 714 L 1056 716.5 L 1055 716.5 L 1055.5 714 Z " /><path fill="rgb(0,0,0)" stroke="rgb(0,0,0)" stroke-width="1" opacity="0.8784313725490196" d="M 1096.5 714 L 1097 716.5 L 1096 716.5 L 1096.5 714 Z " /><path fill="rgb(0,0,0)" stroke="rgb(0,0,0)" stroke-width="1" opacity="0.8784313725490196" d="M 243.5 716 L 244 718.5 L 243 718.5 L 243.5 716 Z " /><path fill="rgb(0,0,0)" stroke="rgb(0,0,0)" stroke-width="1" opacity="0.8784313725490196" d="M 461.5 725 L 462 731.5 L 461 731.5 L 461.5 725 Z " /><path fill="rgb(0,0,0)" stroke="rgb(0,0,0)" stroke-width="1" opacity="0.8784313725490196" d="M 283.5 727 L 284 730.5 L 283 730.5 L 283.5 727 Z " /><path fill="rgb(0,0,0)" stroke="rgb(0,0,0)" stroke-width="1" opacity="0.8784313725490196" d="M 1056.5 727 L 1057 730.5 L 1056 730.5 L 1056.5 727 Z " /><path fill="rgb(0,0,0)" stroke="rgb(0,0,0)" stroke-width="1" opacity="0.8784313725490196" d="M 1097.5 728 L 1098 732.5 L 1097 732.5 L 1097.5 728 Z " /><path fill="rgb(0,0,0)" stroke="rgb(0,0,0)" stroke-width="1" opacity="0.8784313725490196" d="M 242.5 729 L 243 733.5 L 242 733.5 L 242.5 729 Z " /><path fill="rgb(0,0,0)" stroke="rgb(0,0,0)" stroke-width="1" opacity="0.8784313725490196" d="M 1057.5 742 L 1058 746.5 L 1057 746.5 L 1057.5 742 Z " /><path fill="rgb(0,0,0)" stroke="rgb(0,0,0)" stroke-width="1" opacity="0.8784313725490196" d="M 282.5 743 L 283 746.5 L 282 746.5 L 282.5 743 Z " /><path fill="rgb(0,0,0)" stroke="rgb(0,0,0)" stroke-width="1" opacity="0.8784313725490196" d="M 501.5 744 L 502 751.5 L 501 751.5 L 501.5 744 Z " /><path fill="rgb(0,0,0)" stroke="rgb(0,0,0)" stroke-width="1" opacity="0.8784313725490196" d="M 241.5 746 L 242 750.5 L 241 750.5 L 241.5 746 Z " /><path fill="rgb(0,0,0)" stroke="rgb(0,0,0)" stroke-width="1" opacity="0.8784313725490196" d="M 460.5 752 L 461 764.5 L 460 764.5 L 460.5 752 Z " /><path fill="rgb(0,0,0)" stroke="rgb(0,0,0)" stroke-width="1" opacity="0.8784313725490196" d="M 1098.5 756 L 1099 767.5 L 1098 767.5 L 1098.5 756 Z " /><path fill="rgb(0,0,0)" stroke="rgb(0,0,0)" stroke-width="1" opacity="0.8784313725490196" d="M 1058.5 760 L 1059 764.5 L 1058 764.5 L 1058.5 760 Z " /><path fill="rgb(0,0,0)" stroke="rgb(0,0,0)" stroke-width="1" opacity="0.8784313725490196" d="M 281.5 762 L 282 767.5 L 281 767.5 L 281.5 762 Z " /><path fill="rgb(0,0,0)" stroke="rgb(0,0,0)" stroke-width="1" opacity="0.8784313725490196" d="M 240.5 783 L 241 831.5 L 240 831.5 L 240.5 783 Z " /><path fill="rgb(0,0,0)" stroke="rgb(0,0,0)" stroke-width="1" opacity="0.8784313725490196" d="M 281.5 869 L 282 876.5 L 281 876.5 L 281.5 869 Z " /><path fill="rgb(0,0,0)" stroke="rgb(0,0,0)" stroke-width="1" opacity="0.8784313725490196" d="M 1058.5 869 L 1059 876.5 L 1058 876.5 L 1058.5 869 Z " /><path fill="rgb(0,0,0)" stroke="rgb(0,0,0)" stroke-width="1" opacity="0.8784313725490196" d="M 241.5 878 L 242 889.5 L 241 889.5 L 241.5 878 Z " /><path fill="rgb(0,0,0)" stroke="rgb(0,0,0)" stroke-width="1" opacity="0.8784313725490196" d="M 1379.5 878 L 1380 944.5 L 1379 944.5 L 1379.5 878 Z " /><path fill="rgb(0,0,0)" stroke="rgb(0,0,0)" stroke-width="1" opacity="0.8784313725490196" d="M 1098.5 884 L 1099 894.5 L 1098 894.5 L 1098.5 884 Z " /><path fill="rgb(0,0,0)" stroke="rgb(0,0,0)" stroke-width="1" opacity="0.8784313725490196" d="M 282.5 895 L 283 899.5 L 282 899.5 L 282.5 895 Z " /><path fill="rgb(0,0,0)" stroke="rgb(0,0,0)" stroke-width="1" opacity="0.8784313725490196" d="M 1057.5 895 L 1058 899.5 L 1057 899.5 L 1057.5 895 Z " /><path fill="rgb(0,0,0)" stroke="rgb(0,0,0)" stroke-width="1" opacity="0.8784313725490196" d="M 242.5 910 L 243 914.5 L 242 914.5 L 242.5 910 Z " /><path fill="rgb(0,0,0)" stroke="rgb(0,0,0)" stroke-width="1" opacity="0.8784313725490196" d="M 1279.5 911 L 1280 940.5 L 1279 940.5 L 1279.5 911 Z " /><path fill="rgb(0,0,0)" stroke="rgb(0,0,0)" stroke-width="1" opacity="0.8784313725490196" d="M 1097.5 912 L 1098 915.5 L 1097 915.5 L 1097.5 912 Z " /><path fill="rgb(0,0,0)" stroke="rgb(0,0,0)" stroke-width="1" opacity="0.8784313725490196" d="M 1320.5 912 L 1321 937.5 L 1320 937.5 L 1320.5 912 Z " /><path fill="rgb(0,0,0)" stroke="rgb(0,0,0)" stroke-width="1" opacity="0.8784313725490196" d="M 1096.5 925 L 1097 927.5 L 1096 927.5 L 1096.5 925 Z " /><path fill="rgb(0,0,0)" stroke="rgb(0,0,0)" stroke-width="1" opacity="0.8784313725490196" d="M 243.5 928 L 244 930.5 L 243 930.5 L 243.5 928 Z " /><path fill="rgb(0,0,0)" stroke="rgb(0,0,0)" stroke-width="1" opacity="0.8784313725490196" d="M 1095.5 938 L 1096 940.5 L 1095 940.5 L 1095.5 938 Z " /><path fill="rgb(0,0,0)" stroke="rgb(0,0,0)" stroke-width="1" opacity="0.8784313725490196" d="M 244.5 940 L 245 942.5 L 244 942.5 L 244.5 940 Z " /><path fill="rgb(0,0,0)" stroke="rgb(0,0,0)" stroke-width="1" opacity="0.8784313725490196" d="M 464.5 945 L 465 948.5 L 464 948.5 L 464.5 945 Z " /><path fill="rgb(0,0,0)" stroke="rgb(0,0,0)" stroke-width="1" opacity="0.8784313725490196" d="M 875.5 946 L 876 949.5 L 875 949.5 L 875.5 946 Z " /><path fill="rgb(0,0,0)" stroke="rgb(0,0,0)" stroke-width="1" opacity="0.8784313725490196" d="M 505.5 947 L 506 949.5 L 505 949.5 L 505.5 947 Z " /><path fill="rgb(0,0,0)" stroke="rgb(0,0,0)" stroke-width="1" opacity="0.8784313725490196" d="M 834.5 948 L 835 950.5 L 834 950.5 L 834.5 948 Z " /><path fill="rgb(0,0,0)" stroke="rgb(0,0,0)" stroke-width="1" opacity="0.8784313725490196" d="M 286.5 949 L 287 952.5 L 286 952.5 L 286.5 949 Z " /><path fill="rgb(0,0,0)" stroke="rgb(0,0,0)" stroke-width="1" opacity="0.8784313725490196" d="M 1094.5 949 L 1095 951.5 L 1094 951.5 L 1094.5 949 Z " /><path fill="rgb(0,0,0)" stroke="rgb(0,0,0)" stroke-width="1" opacity="0.8784313725490196" d="M 1053.5 950 L 1054 952.5 L 1053 952.5 L 1053.5 950 Z " /><path fill="rgb(0,0,0)" stroke="rgb(0,0,0)" stroke-width="1" opacity="0.8784313725490196" d="M 245.5 951 L 246 953.5 L 245 953.5 L 245.5 951 Z " /><path fill="rgb(0,0,0)" stroke="rgb(0,0,0)" stroke-width="1" opacity="0.8784313725490196" d="M 465.5 957 L 466 959.5 L 465 959.5 L 465.5 957 Z " /><path fill="rgb(0,0,0)" stroke="rgb(0,0,0)" stroke-width="1" opacity="0.8784313725490196" d="M 506.5 957 L 507 959.5 L 506 959.5 L 506.5 957 Z " /><path fill="rgb(0,0,0)" stroke="rgb(0,0,0)" stroke-width="1" opacity="0.8784313725490196" d="M 833.5 959 L 834 961.5 L 833 961.5 L 833.5 959 Z " /><path fill="rgb(0,0,0)" stroke="rgb(0,0,0)" stroke-width="1" opacity="0.8784313725490196" d="M 874.5 959 L 875 961.5 L 874 961.5 L 874.5 959 Z " /><path fill="rgb(0,0,0)" stroke="rgb(0,0,0)" stroke-width="1" opacity="0.8784313725490196" d="M 1093.5 960 L 1094 962.5 L 1093 962.5 L 1093.5 960 Z " /><path fill="rgb(0,0,0)" stroke="rgb(0,0,0)" stroke-width="1" opacity="0.8784313725490196" d="M 287.5 961 L 288 963.5 L 287 963.5 L 287.5 961 Z " /><path fill="rgb(0,0,0)" stroke="rgb(0,0,0)" stroke-width="1" opacity="0.8784313725490196" d="M 1052.5 961 L 1053 963.5 L 1052 963.5 L 1052.5 961 Z " /><path fill="rgb(0,0,0)" stroke="rgb(0,0,0)" stroke-width="1" opacity="0.8784313725490196" d="M 507.5 967 L 508 969.5 L 507 969.5 L 507.5 967 Z " /><path fill="rgb(0,0,0)" stroke="rgb(0,0,0)" stroke-width="1" opacity="0.8784313725490196" d="M 1319.5 969 L 1320 971.5 L 1319 971.5 L 1319.5 969 Z " /><path fill="rgb(0,0,0)" stroke="rgb(0,0,0)" stroke-width="1" opacity="0.8784313725490196" d="M 832.5 970 L 833 972.5 L 832 972.5 L 832.5 970 Z " /><path fill="rgb(0,0,0)" stroke="rgb(0,0,0)" stroke-width="1" opacity="0.8784313725490196" d="M 1092.5 970 L 1093 972.5 L 1092 972.5 L 1092.5 970 Z " /><path fill="rgb(0,0,0)" stroke="rgb(0,0,0)" stroke-width="1" opacity="0.8784313725490196" d="M 1278.5 970 L 1279 972.5 L 1278 972.5 L 1278.5 970 Z " /><path fill="rgb(0,0,0)" stroke="rgb(0,0,0)" stroke-width="1" opacity="0.8784313725490196" d="M 1418.5 970 L 1419 981.5 L 1418 981.5 L 1418.5 970 Z " /><path fill="rgb(0,0,0)" stroke="rgb(0,0,0)" stroke-width="1" opacity="0.8784313725490196" d="M 288.5 971 L 289 973.5 L 288 973.5 L 288.5 971 Z " /><path fill="rgb(0,0,0)" stroke="rgb(0,0,0)" stroke-width="1" opacity="0.8784313725490196" d="M 1051.5 971 L 1052 973.5 L 1051 973.5 L 1051.5 971 Z " /><path fill="rgb(0,0,0)" stroke="rgb(0,0,0)" stroke-width="1" opacity="0.8784313725490196" d="M 508.5 977 L 509 979.5 L 508 979.5 L 508.5 977 Z " /><path fill="rgb(0,0,0)" stroke="rgb(0,0,0)" stroke-width="1" opacity="0.8784313725490196" d="M 1378.5 977 L 1379 980.5 L 1378 980.5 L 1378.5 977 Z " /><path fill="rgb(0,0,0)" stroke="rgb(0,0,0)" stroke-width="1" opacity="0.8784313725490196" d="M 289.5 980 L 290 982.5 L 289 982.5 L 289.5 980 Z " /><path fill="rgb(0,0,0)" stroke="rgb(0,0,0)" stroke-width="1" opacity="0.8784313725490196" d="M 1050.5 980 L 1051 982.5 L 1050 982.5 L 1050.5 980 Z " /><path fill="rgb(0,0,0)" stroke="rgb(0,0,0)" stroke-width="1" opacity="0.8784313725490196" d="M 248.5 981 L 249 983.5 L 248 983.5 L 248.5 981 Z " /><path fill="rgb(0,0,0)" stroke="rgb(0,0,0)" stroke-width="1" opacity="0.8784313725490196" d="M 872.5 984 L 873 987.5 L 872 987.5 L 872.5 984 Z " /><path fill="rgb(0,0,0)" stroke="rgb(0,0,0)" stroke-width="1" opacity="0.8784313725490196" d="M 831.5 986 L 832 988.5 L 831 988.5 L 831.5 986 Z " /><path fill="rgb(0,0,0)" stroke="rgb(0,0,0)" stroke-width="1" opacity="0.8784313725490196" d="M 468.5 987 L 469 989.5 L 468 989.5 L 468.5 987 Z " /><path fill="rgb(0,0,0)" stroke="rgb(0,0,0)" stroke-width="1" opacity="0.8784313725490196" d="M 509.5 987 L 510 989.5 L 509 989.5 L 509.5 987 Z " /><path fill="rgb(0,0,0)" stroke="rgb(0,0,0)" stroke-width="1" opacity="0.8784313725490196" d="M 1090.5 989 L 1091 991.5 L 1090 991.5 L 1090.5 989 Z " /><path fill="rgb(0,0,0)" stroke="rgb(0,0,0)" stroke-width="1" opacity="0.8784313725490196" d="M 249.5 990 L 250 992.5 L 249 992.5 L 249.5 990 Z " /><path fill="rgb(0,0,0)" stroke="rgb(0,0,0)" stroke-width="1" opacity="0.8784313725490196" d="M 469.5 997 L 470 999.5 L 469 999.5 L 469.5 997 Z " /><path fill="rgb(0,0,0)" stroke="rgb(0,0,0)" stroke-width="1" opacity="0.8784313725490196" d="M 830.5 997 L 831 999.5 L 830 999.5 L 830.5 997 Z " /><path fill="rgb(0,0,0)" stroke="rgb(0,0,0)" stroke-width="1" opacity="0.8784313725490196" d="M 871.5 997 L 872 999.5 L 871 999.5 L 871.5 997 Z " /><path fill="rgb(0,0,0)" stroke="rgb(0,0,0)" stroke-width="1" opacity="0.8784313725490196" d="M 1048.5 997 L 1049 999.5 L 1048 999.5 L 1048.5 997 Z " /><path fill="rgb(0,0,0)" stroke="rgb(0,0,0)" stroke-width="1" opacity="0.8784313725490196" d="M 511.5 1005 L 512 1007.5 L 511 1007.5 L 511.5 1005 Z " /><path fill="rgb(0,0,0)" stroke="rgb(0,0,0)" stroke-width="1" opacity="0.8784313725490196" d="M 251.5 1007 L 252 1009.5 L 251 1009.5 L 251.5 1007 Z " /><path fill="rgb(0,0,0)" stroke="rgb(0,0,0)" stroke-width="1" opacity="0.8784313725490196" d="M 1263.5 1007 L 1262.5 1009 L 1263.5 1007 Z " /><path fill="rgb(0,0,0)" stroke="rgb(0,0,0)" stroke-width="1" opacity="0.8784313725490196" d="M 829.5 1008 L 830 1010.5 L 829 1010.5 L 829.5 1008 Z " /><path fill="rgb(0,0,0)" stroke="rgb(0,0,0)" stroke-width="1" opacity="0.8784313725490196" d="M 1258.5 1013 L 1253.5 1019 L 1258.5 1013 Z " /><path fill="rgb(0,0,0)" stroke="rgb(0,0,0)" stroke-width="1" opacity="0.8784313725490196" d="M 252.5 1015 L 253 1017.5 L 252 1017.5 L 252.5 1015 Z " /><path fill="rgb(0,0,0)" stroke="rgb(0,0,0)" stroke-width="1" opacity="0.8784313725490196" d="M 868.5 1020 L 869 1024.5 L 868 1024.5 L 868.5 1020 Z " /><path fill="rgb(0,0,0)" stroke="rgb(0,0,0)" stroke-width="1" opacity="0.8784313725490196" d="M 1248.5 1022 L 1247.5 1024 L 1248.5 1022 Z " /><path fill="rgb(0,0,0)" stroke="rgb(0,0,0)" stroke-width="1" opacity="0.8784313725490196" d="M 1085.5 1031 L 1086 1033.5 L 1085 1033.5 L 1085.5 1031 Z " /><path fill="rgb(0,0,0)" stroke="rgb(0,0,0)" stroke-width="1" opacity="0.8784313725490196" d="M 1294.5 1034 L 1293.5 1036 L 1294.5 1034 Z " /><path fill="rgb(0,0,0)" stroke="rgb(0,0,0)" stroke-width="1" opacity="0.8784313725490196" d="M 1211.5 1038 L 1214 1038.5 L 1211.5 1039 L 1211.5 1038 Z " /><path fill="rgb(0,0,0)" stroke="rgb(0,0,0)" stroke-width="1" opacity="0.8784313725490196" d="M 1178.5 1039 L 1192 1039.5 L 1178.5 1040 L 1178.5 1039 Z " /><path fill="rgb(0,0,0)" stroke="rgb(0,0,0)" stroke-width="1" opacity="0.8784313725490196" d="M 1289.5 1040 L 1280.5 1050 L 1289.5 1040 Z " /><path fill="rgb(0,0,0)" stroke="rgb(0,0,0)" stroke-width="1" opacity="0.8784313725490196" d="M 1276.5 1052 L 1274.5 1055 L 1276.5 1052 Z " /><path fill="rgb(0,0,0)" stroke="rgb(0,0,0)" stroke-width="1" opacity="0.8784313725490196" d="M 1350.5 1057 L 1349.5 1059 L 1350.5 1057 Z " /><path fill="rgb(0,0,0)" stroke="rgb(0,0,0)" stroke-width="1" opacity="0.8784313725490196" d="M 1348.5 1060 L 1347.5 1062 L 1348.5 1060 Z " /><path fill="rgb(0,0,0)" stroke="rgb(0,0,0)" stroke-width="1" opacity="0.8784313725490196" d="M 1343.5 1067 L 1342.5 1069 L 1343.5 1067 Z " /><path fill="rgb(0,0,0)" stroke="rgb(0,0,0)" stroke-width="1" opacity="0.8784313725490196" d="M 1339.5 1072 L 1338.5 1074 L 1339.5 1072 Z " /><path fill="rgb(0,0,0)" stroke="rgb(0,0,0)" stroke-width="1" opacity="0.8784313725490196" d="M 1335.5 1077 L 1331.5 1082 L 1335.5 1077 Z " /><path fill="rgb(0,0,0)" stroke="rgb(0,0,0)" stroke-width="1" opacity="0.8784313725490196" d="M 1215.5 1078 L 1220 1078.5 L 1215.5 1079 L 1215.5 1078 Z " /><path fill="rgb(0,0,0)" stroke="rgb(0,0,0)" stroke-width="1" opacity="0.8784313725490196" d="M 1110.5 1079 L 1158 1079.5 L 1110.5 1080 L 1110.5 1079 Z " /><path fill="rgb(0,0,0)" stroke="rgb(0,0,0)" stroke-width="1" opacity="0.8784313725490196" d="M 1377.5 1090 L 1376.5 1092 L 1377.5 1090 Z " /><path fill="rgb(0,0,0)" stroke="rgb(0,0,0)" stroke-width="1" opacity="0.8784313725490196" d="M 1321.5 1091 L 1318.5 1095 L 1321.5 1091 Z " /><path fill="rgb(0,0,0)" stroke="rgb(0,0,0)" stroke-width="1" opacity="0.8784313725490196" d="M 1374.5 1094 L 1373.5 1096 L 1374.5 1094 Z " /><path fill="rgb(0,0,0)" stroke="rgb(0,0,0)" stroke-width="1" opacity="0.8784313725490196" d="M 1313.5 1098 L 1312.5 1100 L 1313.5 1098 Z " /><path fill="rgb(0,0,0)" stroke="rgb(0,0,0)" stroke-width="1" opacity="0.8784313725490196" d="M 1370.5 1099 L 1369.5 1101 L 1370.5 1099 Z " /><path fill="rgb(0,0,0)" stroke="rgb(0,0,0)" stroke-width="1" opacity="0.8784313725490196" d="M 1308.5 1102 L 1307.5 1104 L 1308.5 1102 Z " /><path fill="rgb(0,0,0)" stroke="rgb(0,0,0)" stroke-width="1" opacity="0.8784313725490196" d="M 1365.5 1105 L 1362.5 1109 L 1365.5 1105 Z " /><path fill="rgb(0,0,0)" stroke="rgb(0,0,0)" stroke-width="1" opacity="0.8784313725490196" d="M 1349.5 1121 L 1345.5 1126 L 1349.5 1121 Z " /><path fill="rgb(0,0,0)" stroke="rgb(0,0,0)" stroke-width="1" opacity="0.8784313725490196" d="M 1340.5 1129 L 1339.5 1131 L 1340.5 1129 Z " /><path fill="rgb(0,0,0)" stroke="rgb(0,0,0)" stroke-width="1" opacity="0.8784313725490196" d="M 1335.5 1133 L 1334.5 1135 L 1335.5 1133 Z " /><path fill="rgb(0,0,0)" stroke="rgb(0,0,0)" stroke-width="1" opacity="0.8784313725490196" d="M 1331.5 1136 L 1330.5 1138 L 1331.5 1136 Z " /><path fill="rgb(0,0,0)" stroke="rgb(0,0,0)" stroke-width="1" opacity="0.8784313725490196" d="M 1216.5 1138 L 1220 1138.5 L 1216.5 1139 L 1216.5 1138 Z " /><path fill="rgb(0,0,0)" stroke="rgb(0,0,0)" stroke-width="1" opacity="0.8784313725490196" d="M 1180.5 1139 L 1194 1139.5 L 1180.5 1140 L 1180.5 1139 Z " /><path fill="rgb(0,0,0)" stroke="rgb(0,0,0)" stroke-width="1" opacity="0.8784313725490196" d="M 1067.5 1140 L 1093 1140.5 L 1067.5 1141 L 1067.5 1140 Z " /><path fill="rgb(0,0,0)" stroke="rgb(0,0,0)" stroke-width="1" opacity="0.8784313725490196" d="M 1222.5 1178 L 1228 1178.5 L 1222.5 1179 L 1222.5 1178 Z " /><path fill="rgb(0,0,0)" stroke="rgb(0,0,0)" stroke-width="1" opacity="0.8784313725490196" d="M 1095.5 1179 L 1154 1179.5 L 1095.5 1180 L 1095.5 1179 Z " /><path fill="rgb(0,0,0)" stroke="rgb(0,0,0)" stroke-width="1" opacity="0.8784313725490196" d="M 506.5 1219 L 509 1219.5 L 506.5 1220 L 506.5 1219 Z " /><path fill="rgb(0,0,0)" stroke="rgb(0,0,0)" stroke-width="1" opacity="0.8784313725490196" d="M 354.5 1259 L 719 1259.5 L 354.5 1260 L 354.5 1259 Z " /><path fill="rgb(0,0,0)" stroke="rgb(0,0,0)" stroke-width="1" opacity="0.47058823529411764" d="M 289.5 457 L 291 459.5 L 290 459.5 L 289.5 457 Z " /><path fill="rgb(0,0,0)" stroke="rgb(0,0,0)" stroke-width="1" opacity="0.47058823529411764" d="M 738.5 460 L 739 699.5 L 738 699.5 L 738.5 460 Z " /><path fill="rgb(0,0,0)" stroke="rgb(0,0,0)" stroke-width="1" opacity="0.47058823529411764" d="M 781.5 460 L 782 779.5 L 781 779.5 L 781.5 460 Z " /><path fill="rgb(0,0,0)" stroke="rgb(0,0,0)" stroke-width="1" opacity="0.47058823529411764" d="M 1199.5 460 L 1216 460.5 L 1199.5 461 L 1199.5 460 Z " /><path fill="rgb(0,0,0)" stroke="rgb(0,0,0)" stroke-width="1" opacity="0.47058823529411764" d="M 598.5 461 L 599 494.5 L 598 494.5 L 598.5 461 Z " /><path fill="rgb(0,0,0)" stroke="rgb(0,0,0)" stroke-width="1" opacity="0.47058823529411764" d="M 1226.5 461 L 1231 461.5 L 1226.5 462 L 1226.5 461 Z " /><path fill="rgb(0,0,0)" stroke="rgb(0,0,0)" stroke-width="1" opacity="0.47058823529411764" d="M 1236.5 462 L 1239 462.5 L 1236.5 463 L 1236.5 462 Z " /><path fill="rgb(0,0,0)" stroke="rgb(0,0,0)" stroke-width="1" opacity="0.47058823529411764" d="M 1166.5 500 L 1195 500.5 L 1166.5 501 L 1166.5 500 Z " /><path fill="rgb(0,0,0)" stroke="rgb(0,0,0)" stroke-width="1" opacity="0.47058823529411764" d="M 1328.5 500 L 1329.5 502 L 1328.5 500 Z " /><path fill="rgb(0,0,0)" stroke="rgb(0,0,0)" stroke-width="1" opacity="0.47058823529411764" d="M 1211.5 501 L 1215 501.5 L 1211.5 502 L 1211.5 501 Z " /><path fill="rgb(0,0,0)" stroke="rgb(0,0,0)" stroke-width="1" opacity="0.47058823529411764" d="M 1221.5 502 L 1224 502.5 L 1221.5 503 L 1221.5 502 Z " /><path fill="rgb(0,0,0)" stroke="rgb(0,0,0)" stroke-width="1" opacity="0.47058823529411764" d="M 1228.5 503 L 1231 503.5 L 1228.5 504 L 1228.5 503 Z " /><path fill="rgb(0,0,0)" stroke="rgb(0,0,0)" stroke-width="1" opacity="0.47058823529411764" d="M 1332.5 503 L 1333.5 505 L 1332.5 503 Z " /><path fill="rgb(0,0,0)" stroke="rgb(0,0,0)" stroke-width="1" opacity="0.47058823529411764" d="M 1336.5 506 L 1338.5 509 L 1336.5 506 Z " /><path fill="rgb(0,0,0)" stroke="rgb(0,0,0)" stroke-width="1" opacity="0.47058823529411764" d="M 1341.5 510 L 1344.5 514 L 1341.5 510 Z " /><path fill="rgb(0,0,0)" stroke="rgb(0,0,0)" stroke-width="1" opacity="0.47058823529411764" d="M 1350.5 518 L 1360.5 529 L 1350.5 518 Z " /><path fill="rgb(0,0,0)" stroke="rgb(0,0,0)" stroke-width="1" opacity="0.47058823529411764" d="M 1021.5 521 L 1022 525.5 L 1021 525.5 L 1021.5 521 Z " /><path fill="rgb(0,0,0)" stroke="rgb(0,0,0)" stroke-width="1" opacity="0.47058823529411764" d="M 1290.5 525 L 1291.5 527 L 1290.5 525 Z " /><path fill="rgb(0,0,0)" stroke="rgb(0,0,0)" stroke-width="1" opacity="0.47058823529411764" d="M 1295.5 528 L 1296.5 530 L 1295.5 528 Z " /><path fill="rgb(0,0,0)" stroke="rgb(0,0,0)" stroke-width="1" opacity="0.47058823529411764" d="M 1298.5 530 L 1299.5 532 L 1298.5 530 Z " /><path fill="rgb(0,0,0)" stroke="rgb(0,0,0)" stroke-width="1" opacity="0.47058823529411764" d="M 1301.5 532 L 1302.5 534 L 1301.5 532 Z " /><path fill="rgb(0,0,0)" stroke="rgb(0,0,0)" stroke-width="1" opacity="0.47058823529411764" d="M 1365.5 534 L 1368.5 538 L 1365.5 534 Z " /><path fill="rgb(0,0,0)" stroke="rgb(0,0,0)" stroke-width="1" opacity="0.47058823529411764" d="M 1305.5 535 L 1306.5 537 L 1305.5 535 Z " /><path fill="rgb(0,0,0)" stroke="rgb(0,0,0)" stroke-width="1" opacity="0.47058823529411764" d="M 1309.5 538 L 1310.5 540 L 1309.5 538 Z " /><path fill="rgb(0,0,0)" stroke="rgb(0,0,0)" stroke-width="1" opacity="0.47058823529411764" d="M 1371.5 541 L 1372.5 543 L 1371.5 541 Z " /><path fill="rgb(0,0,0)" stroke="rgb(0,0,0)" stroke-width="1" opacity="0.47058823529411764" d="M 1314.5 542 L 1316.5 545 L 1314.5 542 Z " /><path fill="rgb(0,0,0)" stroke="rgb(0,0,0)" stroke-width="1" opacity="0.47058823529411764" d="M 1374.5 545 L 1375.5 547 L 1374.5 545 Z " /><path fill="rgb(0,0,0)" stroke="rgb(0,0,0)" stroke-width="1" opacity="0.47058823529411764" d="M 266.5 548 L 267 550.5 L 266 550.5 L 266.5 548 Z " /><path fill="rgb(0,0,0)" stroke="rgb(0,0,0)" stroke-width="1" opacity="0.47058823529411764" d="M 1377.5 549 L 1378.5 551 L 1377.5 549 Z " /><path fill="rgb(0,0,0)" stroke="rgb(0,0,0)" stroke-width="1" opacity="0.47058823529411764" d="M 1323.5 550 L 1328.5 556 L 1323.5 550 Z " /><path fill="rgb(0,0,0)" stroke="rgb(0,0,0)" stroke-width="1" opacity="0.47058823529411764" d="M 1382.5 556 L 1383.5 558 L 1382.5 556 Z " /><path fill="rgb(0,0,0)" stroke="rgb(0,0,0)" stroke-width="1" opacity="0.47058823529411764" d="M 460.5 559 L 461 612.5 L 460 612.5 L 460.5 559 Z " /><path fill="rgb(0,0,0)" stroke="rgb(0,0,0)" stroke-width="1" opacity="0.47058823529411764" d="M 1156.5 560 L 1205 560.5 L 1156.5 561 L 1156.5 560 Z " /><path fill="rgb(0,0,0)" stroke="rgb(0,0,0)" stroke-width="1" opacity="0.47058823529411764" d="M 1220.5 561 L 1224 561.5 L 1220.5 562 L 1220.5 561 Z " /><path fill="rgb(0,0,0)" stroke="rgb(0,0,0)" stroke-width="1" opacity="0.47058823529411764" d="M 1334.5 562 L 1337.5 566 L 1334.5 562 Z " /><path fill="rgb(0,0,0)" stroke="rgb(0,0,0)" stroke-width="1" opacity="0.47058823529411764" d="M 598.5 569 L 599 602.5 L 598 602.5 L 598.5 569 Z " /><path fill="rgb(0,0,0)" stroke="rgb(0,0,0)" stroke-width="1" opacity="0.47058823529411764" d="M 1340.5 569 L 1341.5 571 L 1340.5 569 Z " /><path fill="rgb(0,0,0)" stroke="rgb(0,0,0)" stroke-width="1" opacity="0.47058823529411764" d="M 1390.5 569 L 1391.5 571 L 1390.5 569 Z " /><path fill="rgb(0,0,0)" stroke="rgb(0,0,0)" stroke-width="1" opacity="0.47058823529411764" d="M 500.5 571 L 501 601.5 L 500 601.5 L 500.5 571 Z " /><path fill="rgb(0,0,0)" stroke="rgb(0,0,0)" stroke-width="1" opacity="0.47058823529411764" d="M 261.5 573 L 262 575.5 L 261 575.5 L 261.5 573 Z " /><path fill="rgb(0,0,0)" stroke="rgb(0,0,0)" stroke-width="1" opacity="0.47058823529411764" d="M 1343.5 573 L 1344.5 575 L 1343.5 573 Z " /><path fill="rgb(0,0,0)" stroke="rgb(0,0,0)" stroke-width="1" opacity="0.47058823529411764" d="M 303.5 576 L 304 578.5 L 303 578.5 L 303.5 576 Z " /><path fill="rgb(0,0,0)" stroke="rgb(0,0,0)" stroke-width="1" opacity="0.47058823529411764" d="M 302.5 581 L 303 583.5 L 302 583.5 L 302.5 581 Z " /><path fill="rgb(0,0,0)" stroke="rgb(0,0,0)" stroke-width="1" opacity="0.47058823529411764" d="M 259.5 584 L 260 586.5 L 259 586.5 L 259.5 584 Z " /><path fill="rgb(0,0,0)" stroke="rgb(0,0,0)" stroke-width="1" opacity="0.47058823529411764" d="M 1351.5 585 L 1352.5 587 L 1351.5 585 Z " /><path fill="rgb(0,0,0)" stroke="rgb(0,0,0)" stroke-width="1" opacity="0.47058823529411764" d="M 1277.5 587 L 1279.5 590 L 1277.5 587 Z " /><path fill="rgb(0,0,0)" stroke="rgb(0,0,0)" stroke-width="1" opacity="0.47058823529411764" d="M 258.5 590 L 259 592.5 L 258 592.5 L 258.5 590 Z " /><path fill="rgb(0,0,0)" stroke="rgb(0,0,0)" stroke-width="1" opacity="0.47058823529411764" d="M 1040.5 597 L 1041 599.5 L 1040 599.5 L 1040.5 597 Z " /><path fill="rgb(0,0,0)" stroke="rgb(0,0,0)" stroke-width="1" opacity="0.47058823529411764" d="M 1145.5 600 L 1184 600.5 L 1145.5 601 L 1145.5 600 Z " /><path fill="rgb(0,0,0)" stroke="rgb(0,0,0)" stroke-width="1" opacity="0.47058823529411764" d="M 1290.5 600 L 1292.5 603 L 1290.5 600 Z " /><path fill="rgb(0,0,0)" stroke="rgb(0,0,0)" stroke-width="1" opacity="0.47058823529411764" d="M 1083.5 601 L 1084 603.5 L 1083 603.5 L 1083.5 601 Z " /><path fill="rgb(0,0,0)" stroke="rgb(0,0,0)" stroke-width="1" opacity="0.47058823529411764" d="M 1205.5 601 L 1211 601.5 L 1205.5 602 L 1205.5 601 Z " /><path fill="rgb(0,0,0)" stroke="rgb(0,0,0)" stroke-width="1" opacity="0.47058823529411764" d="M 256.5 602 L 257 604.5 L 256 604.5 L 256.5 602 Z " /><path fill="rgb(0,0,0)" stroke="rgb(0,0,0)" stroke-width="1" opacity="0.47058823529411764" d="M 298.5 603 L 299 605.5 L 298 605.5 L 298.5 603 Z " /><path fill="rgb(0,0,0)" stroke="rgb(0,0,0)" stroke-width="1" opacity="0.47058823529411764" d="M 1295.5 606 L 1296.5 608 L 1295.5 606 Z " /><path fill="rgb(0,0,0)" stroke="rgb(0,0,0)" stroke-width="1" opacity="0.47058823529411764" d="M 255.5 608 L 256 610.5 L 255 610.5 L 255.5 608 Z " /><path fill="rgb(0,0,0)" stroke="rgb(0,0,0)" stroke-width="1" opacity="0.47058823529411764" d="M 1084.5 608 L 1085 610.5 L 1084 610.5 L 1084.5 608 Z " /><path fill="rgb(0,0,0)" stroke="rgb(0,0,0)" stroke-width="1" opacity="0.47058823529411764" d="M 297.5 609 L 298 611.5 L 297 611.5 L 297.5 609 Z " /><path fill="rgb(0,0,0)" stroke="rgb(0,0,0)" stroke-width="1" opacity="0.47058823529411764" d="M 1298.5 610 L 1299.5 612 L 1298.5 610 Z " /><path fill="rgb(0,0,0)" stroke="rgb(0,0,0)" stroke-width="1" opacity="0.47058823529411764" d="M 1300.5 613 L 1301.5 615 L 1300.5 613 Z " /><path fill="rgb(0,0,0)" stroke="rgb(0,0,0)" stroke-width="1" opacity="0.47058823529411764" d="M 254.5 614 L 255 616.5 L 254 616.5 L 254.5 614 Z " /><path fill="rgb(0,0,0)" stroke="rgb(0,0,0)" stroke-width="1" opacity="0.47058823529411764" d="M 1085.5 614 L 1086 616.5 L 1085 616.5 L 1085.5 614 Z " /><path fill="rgb(0,0,0)" stroke="rgb(0,0,0)" stroke-width="1" opacity="0.47058823529411764" d="M 1043.5 615 L 1044 617.5 L 1043 617.5 L 1043.5 615 Z " /><path fill="rgb(0,0,0)" stroke="rgb(0,0,0)" stroke-width="1" opacity="0.47058823529411764" d="M 1245.5 615 L 1246.5 617 L 1245.5 615 Z " /><path fill="rgb(0,0,0)" stroke="rgb(0,0,0)" stroke-width="1" opacity="0.47058823529411764" d="M 1249.5 618 L 1252.5 622 L 1249.5 618 Z " /><path fill="rgb(0,0,0)" stroke="rgb(0,0,0)" stroke-width="1" opacity="0.47058823529411764" d="M 253.5 621 L 254 623.5 L 253 623.5 L 253.5 621 Z " /><path fill="rgb(0,0,0)" stroke="rgb(0,0,0)" stroke-width="1" opacity="0.47058823529411764" d="M 1044.5 621 L 1045 623.5 L 1044 623.5 L 1044.5 621 Z " /><path fill="rgb(0,0,0)" stroke="rgb(0,0,0)" stroke-width="1" opacity="0.47058823529411764" d="M 1086.5 621 L 1087 623.5 L 1086 623.5 L 1086.5 621 Z " /><path fill="rgb(0,0,0)" stroke="rgb(0,0,0)" stroke-width="1" opacity="0.47058823529411764" d="M 461.5 627 L 462 630.5 L 461 630.5 L 461.5 627 Z " /><path fill="rgb(0,0,0)" stroke="rgb(0,0,0)" stroke-width="1" opacity="0.47058823529411764" d="M 252.5 628 L 253 630.5 L 252 630.5 L 252.5 628 Z " /><path fill="rgb(0,0,0)" stroke="rgb(0,0,0)" stroke-width="1" opacity="0.47058823529411764" d="M 294.5 628 L 295 630.5 L 294 630.5 L 294.5 628 Z " /><path fill="rgb(0,0,0)" stroke="rgb(0,0,0)" stroke-width="1" opacity="0.47058823529411764" d="M 1045.5 628 L 1046 630.5 L 1045 630.5 L 1045.5 628 Z " /><path fill="rgb(0,0,0)" stroke="rgb(0,0,0)" stroke-width="1" opacity="0.47058823529411764" d="M 1087.5 628 L 1088 630.5 L 1087 630.5 L 1087.5 628 Z " /><path fill="rgb(0,0,0)" stroke="rgb(0,0,0)" stroke-width="1" opacity="0.47058823529411764" d="M 1259.5 628 L 1261.5 631 L 1259.5 628 Z " /><path fill="rgb(0,0,0)" stroke="rgb(0,0,0)" stroke-width="1" opacity="0.47058823529411764" d="M 1263.5 633 L 1264.5 635 L 1263.5 633 Z " /><path fill="rgb(0,0,0)" stroke="rgb(0,0,0)" stroke-width="1" opacity="0.47058823529411764" d="M 251.5 635 L 252 638.5 L 251 638.5 L 251.5 635 Z " /><path fill="rgb(0,0,0)" stroke="rgb(0,0,0)" stroke-width="1" opacity="0.47058823529411764" d="M 293.5 635 L 294 637.5 L 293 637.5 L 293.5 635 Z " /><path fill="rgb(0,0,0)" stroke="rgb(0,0,0)" stroke-width="1" opacity="0.47058823529411764" d="M 640.5 635 L 641 671.5 L 640 671.5 L 640.5 635 Z " /><path fill="rgb(0,0,0)" stroke="rgb(0,0,0)" stroke-width="1" opacity="0.47058823529411764" d="M 1046.5 635 L 1047 637.5 L 1046 637.5 L 1046.5 635 Z " /><path fill="rgb(0,0,0)" stroke="rgb(0,0,0)" stroke-width="1" opacity="0.47058823529411764" d="M 1088.5 635 L 1089 637.5 L 1088 637.5 L 1088.5 635 Z " /><path fill="rgb(0,0,0)" stroke="rgb(0,0,0)" stroke-width="1" opacity="0.47058823529411764" d="M 880.5 636 L 881 677.5 L 880 677.5 L 880.5 636 Z " /><path fill="rgb(0,0,0)" stroke="rgb(0,0,0)" stroke-width="1" opacity="0.47058823529411764" d="M 1267.5 639 L 1268.5 641 L 1267.5 639 Z " /><path fill="rgb(0,0,0)" stroke="rgb(0,0,0)" stroke-width="1" opacity="0.47058823529411764" d="M 292.5 642 L 293 645.5 L 292 645.5 L 292.5 642 Z " /><path fill="rgb(0,0,0)" stroke="rgb(0,0,0)" stroke-width="1" opacity="0.47058823529411764" d="M 1047.5 642 L 1048 644.5 L 1047 644.5 L 1047.5 642 Z " /><path fill="rgb(0,0,0)" stroke="rgb(0,0,0)" stroke-width="1" opacity="0.47058823529411764" d="M 250.5 643 L 251 645.5 L 250 645.5 L 250.5 643 Z " /><path fill="rgb(0,0,0)" stroke="rgb(0,0,0)" stroke-width="1" opacity="0.47058823529411764" d="M 465.5 643 L 466 654.5 L 465 654.5 L 465.5 643 Z " /><path fill="rgb(0,0,0)" stroke="rgb(0,0,0)" stroke-width="1" opacity="0.47058823529411764" d="M 1089.5 643 L 1090 645.5 L 1089 645.5 L 1089.5 643 Z " /><path fill="rgb(0,0,0)" stroke="rgb(0,0,0)" stroke-width="1" opacity="0.47058823529411764" d="M 1376.5 647 L 1377 649.5 L 1376 649.5 L 1376.5 647 Z " /><path fill="rgb(0,0,0)" stroke="rgb(0,0,0)" stroke-width="1" opacity="0.47058823529411764" d="M 1048.5 649 L 1049 652.5 L 1048 652.5 L 1048.5 649 Z " /><path fill="rgb(0,0,0)" stroke="rgb(0,0,0)" stroke-width="1" opacity="0.47058823529411764" d="M 291.5 650 L 292 652.5 L 291 652.5 L 291.5 650 Z " /><path fill="rgb(0,0,0)" stroke="rgb(0,0,0)" stroke-width="1" opacity="0.47058823529411764" d="M 1419.5 650 L 1420 927.5 L 1419 927.5 L 1419.5 650 Z " /><path fill="rgb(0,0,0)" stroke="rgb(0,0,0)" stroke-width="1" opacity="0.47058823529411764" d="M 249.5 651 L 250 653.5 L 249 653.5 L 249.5 651 Z " /><path fill="rgb(0,0,0)" stroke="rgb(0,0,0)" stroke-width="1" opacity="0.47058823529411764" d="M 1090.5 651 L 1091 654.5 L 1090 654.5 L 1090.5 651 Z " /><path fill="rgb(0,0,0)" stroke="rgb(0,0,0)" stroke-width="1" opacity="0.47058823529411764" d="M 1377.5 654 L 1378 657.5 L 1377 657.5 L 1377.5 654 Z " /><path fill="rgb(0,0,0)" stroke="rgb(0,0,0)" stroke-width="1" opacity="0.47058823529411764" d="M 1049.5 657 L 1050 660.5 L 1049 660.5 L 1049.5 657 Z " /><path fill="rgb(0,0,0)" stroke="rgb(0,0,0)" stroke-width="1" opacity="0.47058823529411764" d="M 1318.5 657 L 1319 659.5 L 1318 659.5 L 1318.5 657 Z " /><path fill="rgb(0,0,0)" stroke="rgb(0,0,0)" stroke-width="1" opacity="0.47058823529411764" d="M 290.5 658 L 291 660.5 L 290 660.5 L 290.5 658 Z " /><path fill="rgb(0,0,0)" stroke="rgb(0,0,0)" stroke-width="1" opacity="0.47058823529411764" d="M 248.5 659 L 249 662.5 L 248 662.5 L 248.5 659 Z " /><path fill="rgb(0,0,0)" stroke="rgb(0,0,0)" stroke-width="1" opacity="0.47058823529411764" d="M 1091.5 660 L 1092 662.5 L 1091 662.5 L 1091.5 660 Z " /><path fill="rgb(0,0,0)" stroke="rgb(0,0,0)" stroke-width="1" opacity="0.47058823529411764" d="M 464.5 664 L 465 670.5 L 464 670.5 L 464.5 664 Z " /><path fill="rgb(0,0,0)" stroke="rgb(0,0,0)" stroke-width="1" opacity="0.47058823529411764" d="M 1319.5 664 L 1320 667.5 L 1319 667.5 L 1319.5 664 Z " /><path fill="rgb(0,0,0)" stroke="rgb(0,0,0)" stroke-width="1" opacity="0.47058823529411764" d="M 1050.5 665 L 1051 668.5 L 1050 668.5 L 1050.5 665 Z " /><path fill="rgb(0,0,0)" stroke="rgb(0,0,0)" stroke-width="1" opacity="0.47058823529411764" d="M 289.5 666 L 290 669.5 L 289 669.5 L 289.5 666 Z " /><path fill="rgb(0,0,0)" stroke="rgb(0,0,0)" stroke-width="1" opacity="0.47058823529411764" d="M 1378.5 667 L 1379 680.5 L 1378 680.5 L 1378.5 667 Z " /><path fill="rgb(0,0,0)" stroke="rgb(0,0,0)" stroke-width="1" opacity="0.47058823529411764" d="M 247.5 668 L 248 671.5 L 247 671.5 L 247.5 668 Z " /><path fill="rgb(0,0,0)" stroke="rgb(0,0,0)" stroke-width="1" opacity="0.47058823529411764" d="M 1092.5 668 L 1093 671.5 L 1092 671.5 L 1092.5 668 Z " /><path fill="rgb(0,0,0)" stroke="rgb(0,0,0)" stroke-width="1" opacity="0.47058823529411764" d="M 1278.5 670 L 1279 672.5 L 1278 672.5 L 1278.5 670 Z " /><path fill="rgb(0,0,0)" stroke="rgb(0,0,0)" stroke-width="1" opacity="0.47058823529411764" d="M 1051.5 674 L 1052 677.5 L 1051 677.5 L 1051.5 674 Z " /><path fill="rgb(0,0,0)" stroke="rgb(0,0,0)" stroke-width="1" opacity="0.47058823529411764" d="M 288.5 675 L 289 678.5 L 288 678.5 L 288.5 675 Z " /><path fill="rgb(0,0,0)" stroke="rgb(0,0,0)" stroke-width="1" opacity="0.47058823529411764" d="M 1320.5 677 L 1321 700.5 L 1320 700.5 L 1320.5 677 Z " /><path fill="rgb(0,0,0)" stroke="rgb(0,0,0)" stroke-width="1" opacity="0.47058823529411764" d="M 246.5 678 L 247 681.5 L 246 681.5 L 246.5 678 Z " /><path fill="rgb(0,0,0)" stroke="rgb(0,0,0)" stroke-width="1" opacity="0.47058823529411764" d="M 1093.5 678 L 1094 681.5 L 1093 681.5 L 1093.5 678 Z " /><path fill="rgb(0,0,0)" stroke="rgb(0,0,0)" stroke-width="1" opacity="0.47058823529411764" d="M 463.5 680 L 464 686.5 L 463 686.5 L 463.5 680 Z " /><path fill="rgb(0,0,0)" stroke="rgb(0,0,0)" stroke-width="1" opacity="0.47058823529411764" d="M 287.5 684 L 288 687.5 L 287 687.5 L 287.5 684 Z " /><path fill="rgb(0,0,0)" stroke="rgb(0,0,0)" stroke-width="1" opacity="0.47058823529411764" d="M 1052.5 684 L 1053 687.5 L 1052 687.5 L 1052.5 684 Z " /><path fill="rgb(0,0,0)" stroke="rgb(0,0,0)" stroke-width="1" opacity="0.47058823529411764" d="M 245.5 687 L 246 691.5 L 245 691.5 L 245.5 687 Z " /><path fill="rgb(0,0,0)" stroke="rgb(0,0,0)" stroke-width="1" opacity="0.47058823529411764" d="M 599.5 688 L 600 701.5 L 599 701.5 L 599.5 688 Z " /><path fill="rgb(0,0,0)" stroke="rgb(0,0,0)" stroke-width="1" opacity="0.47058823529411764" d="M 1094.5 688 L 1095 691.5 L 1094 691.5 L 1094.5 688 Z " /><path fill="rgb(0,0,0)" stroke="rgb(0,0,0)" stroke-width="1" opacity="0.47058823529411764" d="M 1279.5 688 L 1280 764.5 L 1279 764.5 L 1279.5 688 Z " /><path fill="rgb(0,0,0)" stroke="rgb(0,0,0)" stroke-width="1" opacity="0.47058823529411764" d="M 286.5 694 L 287 698.5 L 286 698.5 L 286.5 694 Z " /><path fill="rgb(0,0,0)" stroke="rgb(0,0,0)" stroke-width="1" opacity="0.47058823529411764" d="M 1053.5 694 L 1054 698.5 L 1053 698.5 L 1053.5 694 Z " /><path fill="rgb(0,0,0)" stroke="rgb(0,0,0)" stroke-width="1" opacity="0.47058823529411764" d="M 881.5 695 L 882 697.5 L 881 697.5 L 881.5 695 Z " /><path fill="rgb(0,0,0)" stroke="rgb(0,0,0)" stroke-width="1" opacity="0.47058823529411764" d="M 462.5 696 L 463 704.5 L 462 704.5 L 462.5 696 Z " /><path fill="rgb(0,0,0)" stroke="rgb(0,0,0)" stroke-width="1" opacity="0.47058823529411764" d="M 244.5 698 L 245 702.5 L 244 702.5 L 244.5 698 Z " /><path fill="rgb(0,0,0)" stroke="rgb(0,0,0)" stroke-width="1" opacity="0.47058823529411764" d="M 1095.5 698 L 1096 702.5 L 1095 702.5 L 1095.5 698 Z " /><path fill="rgb(0,0,0)" stroke="rgb(0,0,0)" stroke-width="1" opacity="0.47058823529411764" d="M 285.5 705 L 286 709.5 L 285 709.5 L 285.5 705 Z " /><path fill="rgb(0,0,0)" stroke="rgb(0,0,0)" stroke-width="1" opacity="0.47058823529411764" d="M 1054.5 705 L 1055 709.5 L 1054 709.5 L 1054.5 705 Z " /><path fill="rgb(0,0,0)" stroke="rgb(0,0,0)" stroke-width="1" opacity="0.47058823529411764" d="M 1096.5 709 L 1097 713.5 L 1096 713.5 L 1096.5 709 Z " /><path fill="rgb(0,0,0)" stroke="rgb(0,0,0)" stroke-width="1" opacity="0.47058823529411764" d="M 243.5 710 L 244 715.5 L 243 715.5 L 243.5 710 Z " /><path fill="rgb(0,0,0)" stroke="rgb(0,0,0)" stroke-width="1" opacity="0.47058823529411764" d="M 461.5 716 L 462 724.5 L 461 724.5 L 461.5 716 Z " /><path fill="rgb(0,0,0)" stroke="rgb(0,0,0)" stroke-width="1" opacity="0.47058823529411764" d="M 284.5 717 L 285 722.5 L 284 722.5 L 284.5 717 Z " /><path fill="rgb(0,0,0)" stroke="rgb(0,0,0)" stroke-width="1" opacity="0.47058823529411764" d="M 1055.5 717 L 1056 722.5 L 1055 722.5 L 1055.5 717 Z " /><path fill="rgb(0,0,0)" stroke="rgb(0,0,0)" stroke-width="1" opacity="0.47058823529411764" d="M 1097.5 721 L 1098 727.5 L 1097 727.5 L 1097.5 721 Z " /><path fill="rgb(0,0,0)" stroke="rgb(0,0,0)" stroke-width="1" opacity="0.47058823529411764" d="M 242.5 724 L 243 728.5 L 242 728.5 L 242.5 724 Z " /><path fill="rgb(0,0,0)" stroke="rgb(0,0,0)" stroke-width="1" opacity="0.47058823529411764" d="M 283.5 731 L 284 737.5 L 283 737.5 L 283.5 731 Z " /><path fill="rgb(0,0,0)" stroke="rgb(0,0,0)" stroke-width="1" opacity="0.47058823529411764" d="M 1056.5 731 L 1057 737.5 L 1056 737.5 L 1056.5 731 Z " /><path fill="rgb(0,0,0)" stroke="rgb(0,0,0)" stroke-width="1" opacity="0.47058823529411764" d="M 241.5 739 L 242 745.5 L 241 745.5 L 241.5 739 Z " /><path fill="rgb(0,0,0)" stroke="rgb(0,0,0)" stroke-width="1" opacity="0.47058823529411764" d="M 460.5 740 L 461 751.5 L 460 751.5 L 460.5 740 Z " /><path fill="rgb(0,0,0)" stroke="rgb(0,0,0)" stroke-width="1" opacity="0.47058823529411764" d="M 1098.5 741 L 1099 755.5 L 1098 755.5 L 1098.5 741 Z " /><path fill="rgb(0,0,0)" stroke="rgb(0,0,0)" stroke-width="1" opacity="0.47058823529411764" d="M 640.5 743 L 641 779.5 L 640 779.5 L 640.5 743 Z " /><path fill="rgb(0,0,0)" stroke="rgb(0,0,0)" stroke-width="1" opacity="0.47058823529411764" d="M 282.5 747 L 283 755.5 L 282 755.5 L 282.5 747 Z " /><path fill="rgb(0,0,0)" stroke="rgb(0,0,0)" stroke-width="1" opacity="0.47058823529411764" d="M 1057.5 747 L 1058 754.5 L 1057 754.5 L 1057.5 747 Z " /><path fill="rgb(0,0,0)" stroke="rgb(0,0,0)" stroke-width="1" opacity="0.47058823529411764" d="M 501.5 752 L 502 779.5 L 501 779.5 L 501.5 752 Z " /><path fill="rgb(0,0,0)" stroke="rgb(0,0,0)" stroke-width="1" opacity="0.47058823529411764" d="M 240.5 760 L 241 782.5 L 240 782.5 L 240.5 760 Z " /><path fill="rgb(0,0,0)" stroke="rgb(0,0,0)" stroke-width="1" opacity="0.47058823529411764" d="M 1058.5 765 L 1059 774.5 L 1058 774.5 L 1058.5 765 Z " /><path fill="rgb(0,0,0)" stroke="rgb(0,0,0)" stroke-width="1" opacity="0.47058823529411764" d="M 1379.5 765 L 1380 877.5 L 1379 877.5 L 1379.5 765 Z " /><path fill="rgb(0,0,0)" stroke="rgb(0,0,0)" stroke-width="1" opacity="0.47058823529411764" d="M 281.5 768 L 282 779.5 L 281 779.5 L 281.5 768 Z " /><path fill="rgb(0,0,0)" stroke="rgb(0,0,0)" stroke-width="1" opacity="0.47058823529411764" d="M 1279.5 770 L 1280 910.5 L 1279 910.5 L 1279.5 770 Z " /><path fill="rgb(0,0,0)" stroke="rgb(0,0,0)" stroke-width="1" opacity="0.47058823529411764" d="M 1099.5 785 L 1100 867.5 L 1099 867.5 L 1099.5 785 Z " /><path fill="rgb(0,0,0)" stroke="rgb(0,0,0)" stroke-width="1" opacity="0.47058823529411764" d="M 281.5 820 L 282 868.5 L 281 868.5 L 281.5 820 Z " /><path fill="rgb(0,0,0)" stroke="rgb(0,0,0)" stroke-width="1" opacity="0.47058823529411764" d="M 1058.5 820 L 1059 868.5 L 1058 868.5 L 1058.5 820 Z " /><path fill="rgb(0,0,0)" stroke="rgb(0,0,0)" stroke-width="1" opacity="0.47058823529411764" d="M 240.5 832 L 241 865.5 L 240 865.5 L 240.5 832 Z " /><path fill="rgb(0,0,0)" stroke="rgb(0,0,0)" stroke-width="1" opacity="0.47058823529411764" d="M 282.5 885 L 283 894.5 L 282 894.5 L 282.5 885 Z " /><path fill="rgb(0,0,0)" stroke="rgb(0,0,0)" stroke-width="1" opacity="0.47058823529411764" d="M 1057.5 885 L 1058 894.5 L 1057 894.5 L 1057.5 885 Z " /><path fill="rgb(0,0,0)" stroke="rgb(0,0,0)" stroke-width="1" opacity="0.47058823529411764" d="M 241.5 890 L 242 901.5 L 241 901.5 L 241.5 890 Z " /><path fill="rgb(0,0,0)" stroke="rgb(0,0,0)" stroke-width="1" opacity="0.47058823529411764" d="M 1098.5 895 L 1099 906.5 L 1098 906.5 L 1098.5 895 Z " /><path fill="rgb(0,0,0)" stroke="rgb(0,0,0)" stroke-width="1" opacity="0.47058823529411764" d="M 242.5 915 L 243 922.5 L 242 922.5 L 242.5 915 Z " /><path fill="rgb(0,0,0)" stroke="rgb(0,0,0)" stroke-width="1" opacity="0.47058823529411764" d="M 1097.5 916 L 1098 920.5 L 1097 920.5 L 1097.5 916 Z " /><path fill="rgb(0,0,0)" stroke="rgb(0,0,0)" stroke-width="1" opacity="0.47058823529411764" d="M 1096.5 928 L 1097 933.5 L 1096 933.5 L 1096.5 928 Z " /><path fill="rgb(0,0,0)" stroke="rgb(0,0,0)" stroke-width="1" opacity="0.47058823529411764" d="M 243.5 931 L 244 935.5 L 243 935.5 L 243.5 931 Z " /><path fill="rgb(0,0,0)" stroke="rgb(0,0,0)" stroke-width="1" opacity="0.47058823529411764" d="M 1320.5 938 L 1321 962.5 L 1320 962.5 L 1320.5 938 Z " /><path fill="rgb(0,0,0)" stroke="rgb(0,0,0)" stroke-width="1" opacity="0.47058823529411764" d="M 286.5 940 L 287 948.5 L 286 948.5 L 286.5 940 Z " /><path fill="rgb(0,0,0)" stroke="rgb(0,0,0)" stroke-width="1" opacity="0.47058823529411764" d="M 434.5 940 L 462 940.5 L 434.5 941 L 434.5 940 Z " /><path fill="rgb(0,0,0)" stroke="rgb(0,0,0)" stroke-width="1" opacity="0.47058823529411764" d="M 1053.5 940 L 1054 949.5 L 1053 949.5 L 1053.5 940 Z " /><path fill="rgb(0,0,0)" stroke="rgb(0,0,0)" stroke-width="1" opacity="0.47058823529411764" d="M 1095.5 941 L 1096 945.5 L 1095 945.5 L 1095.5 941 Z " /><path fill="rgb(0,0,0)" stroke="rgb(0,0,0)" stroke-width="1" opacity="0.47058823529411764" d="M 505.5 942 L 506 946.5 L 505 946.5 L 505.5 942 Z " /><path fill="rgb(0,0,0)" stroke="rgb(0,0,0)" stroke-width="1" opacity="0.47058823529411764" d="M 244.5 943 L 245 947.5 L 244 947.5 L 244.5 943 Z " /><path fill="rgb(0,0,0)" stroke="rgb(0,0,0)" stroke-width="1" opacity="0.47058823529411764" d="M 834.5 943 L 835 947.5 L 834 947.5 L 834.5 943 Z " /><path fill="rgb(0,0,0)" stroke="rgb(0,0,0)" stroke-width="1" opacity="0.47058823529411764" d="M 464.5 949 L 465 953.5 L 464 953.5 L 464.5 949 Z " /><path fill="rgb(0,0,0)" stroke="rgb(0,0,0)" stroke-width="1" opacity="0.47058823529411764" d="M 875.5 950 L 876 954.5 L 875 954.5 L 875.5 950 Z " /><path fill="rgb(0,0,0)" stroke="rgb(0,0,0)" stroke-width="1" opacity="0.47058823529411764" d="M 1094.5 952 L 1095 955.5 L 1094 955.5 L 1094.5 952 Z " /><path fill="rgb(0,0,0)" stroke="rgb(0,0,0)" stroke-width="1" opacity="0.47058823529411764" d="M 506.5 953 L 507 956.5 L 506 956.5 L 506.5 953 Z " /><path fill="rgb(0,0,0)" stroke="rgb(0,0,0)" stroke-width="1" opacity="0.47058823529411764" d="M 245.5 954 L 246 957.5 L 245 957.5 L 245.5 954 Z " /><path fill="rgb(0,0,0)" stroke="rgb(0,0,0)" stroke-width="1" opacity="0.47058823529411764" d="M 833.5 954 L 834 958.5 L 833 958.5 L 833.5 954 Z " /><path fill="rgb(0,0,0)" stroke="rgb(0,0,0)" stroke-width="1" opacity="0.47058823529411764" d="M 287.5 956 L 288 960.5 L 287 960.5 L 287.5 956 Z " /><path fill="rgb(0,0,0)" stroke="rgb(0,0,0)" stroke-width="1" opacity="0.47058823529411764" d="M 1052.5 956 L 1053 960.5 L 1052 960.5 L 1052.5 956 Z " /><path fill="rgb(0,0,0)" stroke="rgb(0,0,0)" stroke-width="1" opacity="0.47058823529411764" d="M 465.5 960 L 466 964.5 L 465 964.5 L 465.5 960 Z " /><path fill="rgb(0,0,0)" stroke="rgb(0,0,0)" stroke-width="1" opacity="0.47058823529411764" d="M 1278.5 960 L 1279 969.5 L 1278 969.5 L 1278.5 960 Z " /><path fill="rgb(0,0,0)" stroke="rgb(0,0,0)" stroke-width="1" opacity="0.47058823529411764" d="M 874.5 962 L 875 965.5 L 874 965.5 L 874.5 962 Z " /><path fill="rgb(0,0,0)" stroke="rgb(0,0,0)" stroke-width="1" opacity="0.47058823529411764" d="M 507.5 963 L 508 966.5 L 507 966.5 L 507.5 963 Z " /><path fill="rgb(0,0,0)" stroke="rgb(0,0,0)" stroke-width="1" opacity="0.47058823529411764" d="M 1093.5 963 L 1094 966.5 L 1093 966.5 L 1093.5 963 Z " /><path fill="rgb(0,0,0)" stroke="rgb(0,0,0)" stroke-width="1" opacity="0.47058823529411764" d="M 246.5 964 L 247 968.5 L 246 968.5 L 246.5 964 Z " /><path fill="rgb(0,0,0)" stroke="rgb(0,0,0)" stroke-width="1" opacity="0.47058823529411764" d="M 832.5 965 L 833 969.5 L 832 969.5 L 832.5 965 Z " /><path fill="rgb(0,0,0)" stroke="rgb(0,0,0)" stroke-width="1" opacity="0.47058823529411764" d="M 1378.5 966 L 1379 976.5 L 1378 976.5 L 1378.5 966 Z " /><path fill="rgb(0,0,0)" stroke="rgb(0,0,0)" stroke-width="1" opacity="0.47058823529411764" d="M 288.5 967 L 289 970.5 L 288 970.5 L 288.5 967 Z " /><path fill="rgb(0,0,0)" stroke="rgb(0,0,0)" stroke-width="1" opacity="0.47058823529411764" d="M 1051.5 967 L 1052 970.5 L 1051 970.5 L 1051.5 967 Z " /><path fill="rgb(0,0,0)" stroke="rgb(0,0,0)" stroke-width="1" opacity="0.47058823529411764" d="M 466.5 970 L 467 974.5 L 466 974.5 L 466.5 970 Z " /><path fill="rgb(0,0,0)" stroke="rgb(0,0,0)" stroke-width="1" opacity="0.47058823529411764" d="M 873.5 971 L 874 974.5 L 873 974.5 L 873.5 971 Z " /><path fill="rgb(0,0,0)" stroke="rgb(0,0,0)" stroke-width="1" opacity="0.47058823529411764" d="M 1319.5 972 L 1320 975.5 L 1319 975.5 L 1319.5 972 Z " /><path fill="rgb(0,0,0)" stroke="rgb(0,0,0)" stroke-width="1" opacity="0.47058823529411764" d="M 508.5 973 L 509 976.5 L 508 976.5 L 508.5 973 Z " /><path fill="rgb(0,0,0)" stroke="rgb(0,0,0)" stroke-width="1" opacity="0.47058823529411764" d="M 1092.5 973 L 1093 976.5 L 1092 976.5 L 1092.5 973 Z " /><path fill="rgb(0,0,0)" stroke="rgb(0,0,0)" stroke-width="1" opacity="0.47058823529411764" d="M 247.5 974 L 248 977.5 L 247 977.5 L 247.5 974 Z " /><path fill="rgb(0,0,0)" stroke="rgb(0,0,0)" stroke-width="1" opacity="0.47058823529411764" d="M 289.5 976 L 290 979.5 L 289 979.5 L 289.5 976 Z " /><path fill="rgb(0,0,0)" stroke="rgb(0,0,0)" stroke-width="1" opacity="0.47058823529411764" d="M 1050.5 976 L 1051 979.5 L 1050 979.5 L 1050.5 976 Z " /><path fill="rgb(0,0,0)" stroke="rgb(0,0,0)" stroke-width="1" opacity="0.47058823529411764" d="M 467.5 980 L 468 983.5 L 467 983.5 L 467.5 980 Z " /><path fill="rgb(0,0,0)" stroke="rgb(0,0,0)" stroke-width="1" opacity="0.47058823529411764" d="M 1318.5 980 L 1319 982.5 L 1318 982.5 L 1318.5 980 Z " /><path fill="rgb(0,0,0)" stroke="rgb(0,0,0)" stroke-width="1" opacity="0.47058823529411764" d="M 831.5 981 L 832 985.5 L 831 985.5 L 831.5 981 Z " /><path fill="rgb(0,0,0)" stroke="rgb(0,0,0)" stroke-width="1" opacity="0.47058823529411764" d="M 1091.5 982 L 1092 985.5 L 1091 985.5 L 1091.5 982 Z " /><path fill="rgb(0,0,0)" stroke="rgb(0,0,0)" stroke-width="1" opacity="0.47058823529411764" d="M 1418.5 982 L 1419 990.5 L 1418 990.5 L 1418.5 982 Z " /><path fill="rgb(0,0,0)" stroke="rgb(0,0,0)" stroke-width="1" opacity="0.47058823529411764" d="M 509.5 983 L 510 986.5 L 509 986.5 L 509.5 983 Z " /><path fill="rgb(0,0,0)" stroke="rgb(0,0,0)" stroke-width="1" opacity="0.47058823529411764" d="M 248.5 984 L 249 987.5 L 248 987.5 L 248.5 984 Z " /><path fill="rgb(0,0,0)" stroke="rgb(0,0,0)" stroke-width="1" opacity="0.47058823529411764" d="M 1377.5 984 L 1378 986.5 L 1377 986.5 L 1377.5 984 Z " /><path fill="rgb(0,0,0)" stroke="rgb(0,0,0)" stroke-width="1" opacity="0.47058823529411764" d="M 290.5 985 L 291 988.5 L 290 988.5 L 290.5 985 Z " /><path fill="rgb(0,0,0)" stroke="rgb(0,0,0)" stroke-width="1" opacity="0.47058823529411764" d="M 1049.5 985 L 1050 988.5 L 1049 988.5 L 1049.5 985 Z " /><path fill="rgb(0,0,0)" stroke="rgb(0,0,0)" stroke-width="1" opacity="0.47058823529411764" d="M 872.5 988 L 873 992.5 L 872 992.5 L 872.5 988 Z " /><path fill="rgb(0,0,0)" stroke="rgb(0,0,0)" stroke-width="1" opacity="0.47058823529411764" d="M 468.5 990 L 469 993.5 L 468 993.5 L 468.5 990 Z " /><path fill="rgb(0,0,0)" stroke="rgb(0,0,0)" stroke-width="1" opacity="0.47058823529411764" d="M 830.5 992 L 831 996.5 L 830 996.5 L 830.5 992 Z " /><path fill="rgb(0,0,0)" stroke="rgb(0,0,0)" stroke-width="1" opacity="0.47058823529411764" d="M 1090.5 992 L 1091 995.5 L 1090 995.5 L 1090.5 992 Z " /><path fill="rgb(0,0,0)" stroke="rgb(0,0,0)" stroke-width="1" opacity="0.47058823529411764" d="M 249.5 993 L 250 996.5 L 249 996.5 L 249.5 993 Z " /><path fill="rgb(0,0,0)" stroke="rgb(0,0,0)" stroke-width="1" opacity="0.47058823529411764" d="M 510.5 993 L 511 996.5 L 510 996.5 L 510.5 993 Z " /><path fill="rgb(0,0,0)" stroke="rgb(0,0,0)" stroke-width="1" opacity="0.47058823529411764" d="M 291.5 994 L 292 997.5 L 291 997.5 L 291.5 994 Z " /><path fill="rgb(0,0,0)" stroke="rgb(0,0,0)" stroke-width="1" opacity="0.47058823529411764" d="M 1048.5 994 L 1049 996.5 L 1048 996.5 L 1048.5 994 Z " /><path fill="rgb(0,0,0)" stroke="rgb(0,0,0)" stroke-width="1" opacity="0.47058823529411764" d="M 1417.5 996 L 1418 998.5 L 1417 998.5 L 1417.5 996 Z " /><path fill="rgb(0,0,0)" stroke="rgb(0,0,0)" stroke-width="1" opacity="0.47058823529411764" d="M 469.5 1000 L 470 1003.5 L 469 1003.5 L 469.5 1000 Z " /><path fill="rgb(0,0,0)" stroke="rgb(0,0,0)" stroke-width="1" opacity="0.47058823529411764" d="M 871.5 1000 L 872 1003.5 L 871 1003.5 L 871.5 1000 Z " /><path fill="rgb(0,0,0)" stroke="rgb(0,0,0)" stroke-width="1" opacity="0.47058823529411764" d="M 1089.5 1000 L 1090 1003.5 L 1089 1003.5 L 1089.5 1000 Z " /><path fill="rgb(0,0,0)" stroke="rgb(0,0,0)" stroke-width="1" opacity="0.47058823529411764" d="M 250.5 1001 L 251 1004.5 L 250 1004.5 L 250.5 1001 Z " /><path fill="rgb(0,0,0)" stroke="rgb(0,0,0)" stroke-width="1" opacity="0.47058823529411764" d="M 292.5 1002 L 293 1005.5 L 292 1005.5 L 292.5 1002 Z " /><path fill="rgb(0,0,0)" stroke="rgb(0,0,0)" stroke-width="1" opacity="0.47058823529411764" d="M 511.5 1002 L 512 1004.5 L 511 1004.5 L 511.5 1002 Z " /><path fill="rgb(0,0,0)" stroke="rgb(0,0,0)" stroke-width="1" opacity="0.47058823529411764" d="M 1047.5 1002 L 1048 1005.5 L 1047 1005.5 L 1047.5 1002 Z " /><path fill="rgb(0,0,0)" stroke="rgb(0,0,0)" stroke-width="1" opacity="0.47058823529411764" d="M 829.5 1003 L 830 1007.5 L 829 1007.5 L 829.5 1003 Z " /><path fill="rgb(0,0,0)" stroke="rgb(0,0,0)" stroke-width="1" opacity="0.47058823529411764" d="M 1264.5 1005 L 1263.5 1007 L 1264.5 1005 Z " /><path fill="rgb(0,0,0)" stroke="rgb(0,0,0)" stroke-width="1" opacity="0.47058823529411764" d="M 470.5 1009 L 471 1012.5 L 470 1012.5 L 470.5 1009 Z " /><path fill="rgb(0,0,0)" stroke="rgb(0,0,0)" stroke-width="1" opacity="0.47058823529411764" d="M 870.5 1009 L 871 1012.5 L 870 1012.5 L 870.5 1009 Z " /><path fill="rgb(0,0,0)" stroke="rgb(0,0,0)" stroke-width="1" opacity="0.47058823529411764" d="M 1088.5 1009 L 1089 1011.5 L 1088 1011.5 L 1088.5 1009 Z " /><path fill="rgb(0,0,0)" stroke="rgb(0,0,0)" stroke-width="1" opacity="0.47058823529411764" d="M 1261.5 1009 L 1259.5 1012 L 1261.5 1009 Z " /><path fill="rgb(0,0,0)" stroke="rgb(0,0,0)" stroke-width="1" opacity="0.47058823529411764" d="M 251.5 1010 L 252 1012.5 L 251 1012.5 L 251.5 1010 Z " /><path fill="rgb(0,0,0)" stroke="rgb(0,0,0)" stroke-width="1" opacity="0.47058823529411764" d="M 293.5 1010 L 294 1012.5 L 293 1012.5 L 293.5 1010 Z " /><path fill="rgb(0,0,0)" stroke="rgb(0,0,0)" stroke-width="1" opacity="0.47058823529411764" d="M 512.5 1010 L 513 1013.5 L 512 1013.5 L 512.5 1010 Z " /><path fill="rgb(0,0,0)" stroke="rgb(0,0,0)" stroke-width="1" opacity="0.47058823529411764" d="M 1046.5 1010 L 1047 1012.5 L 1046 1012.5 L 1046.5 1010 Z " /><path fill="rgb(0,0,0)" stroke="rgb(0,0,0)" stroke-width="1" opacity="0.47058823529411764" d="M 828.5 1015 L 829 1017.5 L 828 1017.5 L 828.5 1015 Z " /><path fill="rgb(0,0,0)" stroke="rgb(0,0,0)" stroke-width="1" opacity="0.47058823529411764" d="M 471.5 1017 L 472 1020.5 L 471 1020.5 L 471.5 1017 Z " /><path fill="rgb(0,0,0)" stroke="rgb(0,0,0)" stroke-width="1" opacity="0.47058823529411764" d="M 1087.5 1017 L 1088 1020.5 L 1087 1020.5 L 1087.5 1017 Z " /><path fill="rgb(0,0,0)" stroke="rgb(0,0,0)" stroke-width="1" opacity="0.47058823529411764" d="M 252.5 1018 L 253 1020.5 L 252 1020.5 L 252.5 1018 Z " /><path fill="rgb(0,0,0)" stroke="rgb(0,0,0)" stroke-width="1" opacity="0.47058823529411764" d="M 294.5 1018 L 295 1020.5 L 294 1020.5 L 294.5 1018 Z " /><path fill="rgb(0,0,0)" stroke="rgb(0,0,0)" stroke-width="1" opacity="0.47058823529411764" d="M 513.5 1018 L 514 1021.5 L 513 1021.5 L 513.5 1018 Z " /><path fill="rgb(0,0,0)" stroke="rgb(0,0,0)" stroke-width="1" opacity="0.47058823529411764" d="M 1045.5 1018 L 1046 1020.5 L 1045 1020.5 L 1045.5 1018 Z " /><path fill="rgb(0,0,0)" stroke="rgb(0,0,0)" stroke-width="1" opacity="0.47058823529411764" d="M 1251.5 1019 L 1249.5 1022 L 1251.5 1019 Z " /><path fill="rgb(0,0,0)" stroke="rgb(0,0,0)" stroke-width="1" opacity="0.47058823529411764" d="M 826.5 1023 L 827 1025.5 L 826 1025.5 L 826.5 1023 Z " /><path fill="rgb(0,0,0)" stroke="rgb(0,0,0)" stroke-width="1" opacity="0.47058823529411764" d="M 1246.5 1023 L 1245.5 1025 L 1246.5 1023 Z " /><path fill="rgb(0,0,0)" stroke="rgb(0,0,0)" stroke-width="1" opacity="0.47058823529411764" d="M 253.5 1025 L 254 1028.5 L 253 1028.5 L 253.5 1025 Z " /><path fill="rgb(0,0,0)" stroke="rgb(0,0,0)" stroke-width="1" opacity="0.47058823529411764" d="M 295.5 1025 L 296 1027.5 L 295 1027.5 L 295.5 1025 Z " /><path fill="rgb(0,0,0)" stroke="rgb(0,0,0)" stroke-width="1" opacity="0.47058823529411764" d="M 472.5 1025 L 473 1028.5 L 472 1028.5 L 472.5 1025 Z " /><path fill="rgb(0,0,0)" stroke="rgb(0,0,0)" stroke-width="1" opacity="0.47058823529411764" d="M 868.5 1025 L 869 1027.5 L 868 1027.5 L 868.5 1025 Z " /><path fill="rgb(0,0,0)" stroke="rgb(0,0,0)" stroke-width="1" opacity="0.47058823529411764" d="M 1044.5 1025 L 1045 1027.5 L 1044 1027.5 L 1044.5 1025 Z " /><path fill="rgb(0,0,0)" stroke="rgb(0,0,0)" stroke-width="1" opacity="0.47058823529411764" d="M 1086.5 1025 L 1087 1028.5 L 1086 1028.5 L 1086.5 1025 Z " /><path fill="rgb(0,0,0)" stroke="rgb(0,0,0)" stroke-width="1" opacity="0.47058823529411764" d="M 1301.5 1025 L 1300.5 1027 L 1301.5 1025 Z " /><path fill="rgb(0,0,0)" stroke="rgb(0,0,0)" stroke-width="1" opacity="0.47058823529411764" d="M 514.5 1026 L 515 1028.5 L 514 1028.5 L 514.5 1026 Z " /><path fill="rgb(0,0,0)" stroke="rgb(0,0,0)" stroke-width="1" opacity="0.47058823529411764" d="M 1240.5 1027 L 1239.5 1029 L 1240.5 1027 Z " /><path fill="rgb(0,0,0)" stroke="rgb(0,0,0)" stroke-width="1" opacity="0.47058823529411764" d="M 1299.5 1028 L 1298.5 1030 L 1299.5 1028 Z " /><path fill="rgb(0,0,0)" stroke="rgb(0,0,0)" stroke-width="1" opacity="0.47058823529411764" d="M 825.5 1029 L 826 1031.5 L 825 1031.5 L 825.5 1029 Z " /><path fill="rgb(0,0,0)" stroke="rgb(0,0,0)" stroke-width="1" opacity="0.47058823529411764" d="M 296.5 1032 L 297 1034.5 L 296 1034.5 L 296.5 1032 Z " /><path fill="rgb(0,0,0)" stroke="rgb(0,0,0)" stroke-width="1" opacity="0.47058823529411764" d="M 1043.5 1032 L 1044 1034.5 L 1043 1034.5 L 1043.5 1032 Z " /><path fill="rgb(0,0,0)" stroke="rgb(0,0,0)" stroke-width="1" opacity="0.47058823529411764" d="M 1296.5 1032 L 1295.5 1034 L 1296.5 1032 Z " /><path fill="rgb(0,0,0)" stroke="rgb(0,0,0)" stroke-width="1" opacity="0.47058823529411764" d="M 254.5 1033 L 255 1035.5 L 254 1035.5 L 254.5 1033 Z " /><path fill="rgb(0,0,0)" stroke="rgb(0,0,0)" stroke-width="1" opacity="0.47058823529411764" d="M 473.5 1033 L 474 1036.5 L 473 1036.5 L 473.5 1033 Z " /><path fill="rgb(0,0,0)" stroke="rgb(0,0,0)" stroke-width="1" opacity="0.47058823529411764" d="M 515.5 1034 L 516 1036.5 L 515 1036.5 L 515.5 1034 Z " /><path fill="rgb(0,0,0)" stroke="rgb(0,0,0)" stroke-width="1" opacity="0.47058823529411764" d="M 866.5 1034 L 867 1036.5 L 866 1036.5 L 866.5 1034 Z " /><path fill="rgb(0,0,0)" stroke="rgb(0,0,0)" stroke-width="1" opacity="0.47058823529411764" d="M 1085.5 1034 L 1086 1036.5 L 1085 1036.5 L 1085.5 1034 Z " /><path fill="rgb(0,0,0)" stroke="rgb(0,0,0)" stroke-width="1" opacity="0.47058823529411764" d="M 824.5 1036 L 825 1038.5 L 824 1038.5 L 824.5 1036 Z " /><path fill="rgb(0,0,0)" stroke="rgb(0,0,0)" stroke-width="1" opacity="0.47058823529411764" d="M 1292.5 1037 L 1290.5 1040 L 1292.5 1037 Z " /><path fill="rgb(0,0,0)" stroke="rgb(0,0,0)" stroke-width="1" opacity="0.47058823529411764" d="M 1204.5 1038 L 1211 1038.5 L 1204.5 1039 L 1204.5 1038 Z " /><path fill="rgb(0,0,0)" stroke="rgb(0,0,0)" stroke-width="1" opacity="0.47058823529411764" d="M 297.5 1039 L 298 1041.5 L 297 1041.5 L 297.5 1039 Z " /><path fill="rgb(0,0,0)" stroke="rgb(0,0,0)" stroke-width="1" opacity="0.47058823529411764" d="M 1042.5 1039 L 1043 1041.5 L 1042 1041.5 L 1042.5 1039 Z " /><path fill="rgb(0,0,0)" stroke="rgb(0,0,0)" stroke-width="1" opacity="0.47058823529411764" d="M 1086.5 1039 L 1111 1039.5 L 1086.5 1040 L 1086.5 1039 Z " /><path fill="rgb(0,0,0)" stroke="rgb(0,0,0)" stroke-width="1" opacity="0.47058823529411764" d="M 1128.5 1039 L 1178 1039.5 L 1128.5 1040 L 1128.5 1039 Z " /><path fill="rgb(0,0,0)" stroke="rgb(0,0,0)" stroke-width="1" opacity="0.47058823529411764" d="M 255.5 1040 L 256 1042.5 L 255 1042.5 L 255.5 1040 Z " /><path fill="rgb(0,0,0)" stroke="rgb(0,0,0)" stroke-width="1" opacity="0.47058823529411764" d="M 474.5 1041 L 475 1043.5 L 474 1043.5 L 474.5 1041 Z " /><path fill="rgb(0,0,0)" stroke="rgb(0,0,0)" stroke-width="1" opacity="0.47058823529411764" d="M 516.5 1041 L 517 1043.5 L 516 1043.5 L 516.5 1041 Z " /><path fill="rgb(0,0,0)" stroke="rgb(0,0,0)" stroke-width="1" opacity="0.47058823529411764" d="M 865.5 1041 L 866 1043.5 L 865 1043.5 L 865.5 1041 Z " /><path fill="rgb(0,0,0)" stroke="rgb(0,0,0)" stroke-width="1" opacity="0.47058823529411764" d="M 823.5 1042 L 824 1044.5 L 823 1044.5 L 823.5 1042 Z " /><path fill="rgb(0,0,0)" stroke="rgb(0,0,0)" stroke-width="1" opacity="0.47058823529411764" d="M 298.5 1045 L 299 1047.5 L 298 1047.5 L 298.5 1045 Z " /><path fill="rgb(0,0,0)" stroke="rgb(0,0,0)" stroke-width="1" opacity="0.47058823529411764" d="M 1041.5 1045 L 1042 1047.5 L 1041 1047.5 L 1041.5 1045 Z " /><path fill="rgb(0,0,0)" stroke="rgb(0,0,0)" stroke-width="1" opacity="0.47058823529411764" d="M 256.5 1047 L 257 1049.5 L 256 1049.5 L 256.5 1047 Z " /><path fill="rgb(0,0,0)" stroke="rgb(0,0,0)" stroke-width="1" opacity="0.47058823529411764" d="M 475.5 1048 L 476 1050.5 L 475 1050.5 L 475.5 1048 Z " /><path fill="rgb(0,0,0)" stroke="rgb(0,0,0)" stroke-width="1" opacity="0.47058823529411764" d="M 517.5 1048 L 518 1050.5 L 517 1050.5 L 517.5 1048 Z " /><path fill="rgb(0,0,0)" stroke="rgb(0,0,0)" stroke-width="1" opacity="0.47058823529411764" d="M 864.5 1048 L 865 1050.5 L 864 1050.5 L 864.5 1048 Z " /><path fill="rgb(0,0,0)" stroke="rgb(0,0,0)" stroke-width="1" opacity="0.47058823529411764" d="M 822.5 1049 L 823 1051.5 L 822 1051.5 L 822.5 1049 Z " /><path fill="rgb(0,0,0)" stroke="rgb(0,0,0)" stroke-width="1" opacity="0.47058823529411764" d="M 1279.5 1050 L 1277.5 1053 L 1279.5 1050 Z " /><path fill="rgb(0,0,0)" stroke="rgb(0,0,0)" stroke-width="1" opacity="0.47058823529411764" d="M 299.5 1052 L 300 1054.5 L 299 1054.5 L 299.5 1052 Z " /><path fill="rgb(0,0,0)" stroke="rgb(0,0,0)" stroke-width="1" opacity="0.47058823529411764" d="M 257.5 1053 L 258 1055.5 L 257 1055.5 L 257.5 1053 Z " /><path fill="rgb(0,0,0)" stroke="rgb(0,0,0)" stroke-width="1" opacity="0.47058823529411764" d="M 518.5 1054 L 519 1056.5 L 518 1056.5 L 518.5 1054 Z " /><path fill="rgb(0,0,0)" stroke="rgb(0,0,0)" stroke-width="1" opacity="0.47058823529411764" d="M 476.5 1055 L 477 1057.5 L 476 1057.5 L 476.5 1055 Z " /><path fill="rgb(0,0,0)" stroke="rgb(0,0,0)" stroke-width="1" opacity="0.47058823529411764" d="M 821.5 1055 L 822 1057.5 L 821 1057.5 L 821.5 1055 Z " /><path fill="rgb(0,0,0)" stroke="rgb(0,0,0)" stroke-width="1" opacity="0.47058823529411764" d="M 1270.5 1057 L 1269.5 1059 L 1270.5 1057 Z " /><path fill="rgb(0,0,0)" stroke="rgb(0,0,0)" stroke-width="1" opacity="0.47058823529411764" d="M 1039.5 1058 L 1040 1060.5 L 1039 1060.5 L 1039.5 1058 Z " /><path fill="rgb(0,0,0)" stroke="rgb(0,0,0)" stroke-width="1" opacity="0.47058823529411764" d="M 258.5 1060 L 259 1062.5 L 258 1062.5 L 258.5 1060 Z " /><path fill="rgb(0,0,0)" stroke="rgb(0,0,0)" stroke-width="1" opacity="0.47058823529411764" d="M 519.5 1061 L 520 1063.5 L 519 1063.5 L 519.5 1061 Z " /><path fill="rgb(0,0,0)" stroke="rgb(0,0,0)" stroke-width="1" opacity="0.47058823529411764" d="M 862.5 1061 L 863 1063.5 L 862 1063.5 L 862.5 1061 Z " /><path fill="rgb(0,0,0)" stroke="rgb(0,0,0)" stroke-width="1" opacity="0.47058823529411764" d="M 820.5 1062 L 821 1064.5 L 820 1064.5 L 820.5 1062 Z " /><path fill="rgb(0,0,0)" stroke="rgb(0,0,0)" stroke-width="1" opacity="0.47058823529411764" d="M 1038.5 1064 L 1039 1066.5 L 1038 1066.5 L 1038.5 1064 Z " /><path fill="rgb(0,0,0)" stroke="rgb(0,0,0)" stroke-width="1" opacity="0.47058823529411764" d="M 1344.5 1065 L 1343.5 1067 L 1344.5 1065 Z " /><path fill="rgb(0,0,0)" stroke="rgb(0,0,0)" stroke-width="1" opacity="0.47058823529411764" d="M 259.5 1066 L 260 1068.5 L 259 1068.5 L 259.5 1066 Z " /><path fill="rgb(0,0,0)" stroke="rgb(0,0,0)" stroke-width="1" opacity="0.47058823529411764" d="M 520.5 1067 L 521 1069.5 L 520 1069.5 L 520.5 1067 Z " /><path fill="rgb(0,0,0)" stroke="rgb(0,0,0)" stroke-width="1" opacity="0.47058823529411764" d="M 478.5 1068 L 479 1070.5 L 478 1070.5 L 478.5 1068 Z " /><path fill="rgb(0,0,0)" stroke="rgb(0,0,0)" stroke-width="1" opacity="0.47058823529411764" d="M 819.5 1068 L 820 1070.5 L 819 1070.5 L 819.5 1068 Z " /><path fill="rgb(0,0,0)" stroke="rgb(0,0,0)" stroke-width="1" opacity="0.47058823529411764" d="M 1341.5 1069 L 1340.5 1071 L 1341.5 1069 Z " /><path fill="rgb(0,0,0)" stroke="rgb(0,0,0)" stroke-width="1" opacity="0.47058823529411764" d="M 302.5 1070 L 303 1072.5 L 302 1072.5 L 302.5 1070 Z " /><path fill="rgb(0,0,0)" stroke="rgb(0,0,0)" stroke-width="1" opacity="0.47058823529411764" d="M 1037.5 1070 L 1038 1072.5 L 1037 1072.5 L 1037.5 1070 Z " /><path fill="rgb(0,0,0)" stroke="rgb(0,0,0)" stroke-width="1" opacity="0.47058823529411764" d="M 521.5 1073 L 522 1075.5 L 521 1075.5 L 521.5 1073 Z " /><path fill="rgb(0,0,0)" stroke="rgb(0,0,0)" stroke-width="1" opacity="0.47058823529411764" d="M 479.5 1074 L 480 1076.5 L 479 1076.5 L 479.5 1074 Z " /><path fill="rgb(0,0,0)" stroke="rgb(0,0,0)" stroke-width="1" opacity="0.47058823529411764" d="M 818.5 1074 L 819 1076.5 L 818 1076.5 L 818.5 1074 Z " /><path fill="rgb(0,0,0)" stroke="rgb(0,0,0)" stroke-width="1" opacity="0.47058823529411764" d="M 1337.5 1074 L 1335.5 1077 L 1337.5 1074 Z " /><path fill="rgb(0,0,0)" stroke="rgb(0,0,0)" stroke-width="1" opacity="0.47058823529411764" d="M 303.5 1076 L 304 1078.5 L 303 1078.5 L 303.5 1076 Z " /><path fill="rgb(0,0,0)" stroke="rgb(0,0,0)" stroke-width="1" opacity="0.47058823529411764" d="M 1387.5 1076 L 1386.5 1078 L 1387.5 1076 Z " /><path fill="rgb(0,0,0)" stroke="rgb(0,0,0)" stroke-width="1" opacity="0.47058823529411764" d="M 1220.5 1078 L 1224 1078.5 L 1220.5 1079 L 1220.5 1078 Z " /><path fill="rgb(0,0,0)" stroke="rgb(0,0,0)" stroke-width="1" opacity="0.47058823529411764" d="M 522.5 1079 L 523 1081.5 L 522 1081.5 L 522.5 1079 Z " /><path fill="rgb(0,0,0)" stroke="rgb(0,0,0)" stroke-width="1" opacity="0.47058823529411764" d="M 1158.5 1079 L 1201 1079.5 L 1158.5 1080 L 1158.5 1079 Z " /><path fill="rgb(0,0,0)" stroke="rgb(0,0,0)" stroke-width="1" opacity="0.47058823529411764" d="M 480.5 1080 L 481 1082.5 L 480 1082.5 L 480.5 1080 Z " /><path fill="rgb(0,0,0)" stroke="rgb(0,0,0)" stroke-width="1" opacity="0.47058823529411764" d="M 859.5 1080 L 860 1082.5 L 859 1082.5 L 859.5 1080 Z " /><path fill="rgb(0,0,0)" stroke="rgb(0,0,0)" stroke-width="1" opacity="0.47058823529411764" d="M 304.5 1082 L 305 1084.5 L 304 1084.5 L 304.5 1082 Z " /><path fill="rgb(0,0,0)" stroke="rgb(0,0,0)" stroke-width="1" opacity="0.47058823529411764" d="M 1330.5 1082 L 1322.5 1091 L 1330.5 1082 Z " /><path fill="rgb(0,0,0)" stroke="rgb(0,0,0)" stroke-width="1" opacity="0.47058823529411764" d="M 262.5 1084 L 263 1086.5 L 262 1086.5 L 262.5 1084 Z " /><path fill="rgb(0,0,0)" stroke="rgb(0,0,0)" stroke-width="1" opacity="0.47058823529411764" d="M 523.5 1085 L 524 1087.5 L 523 1087.5 L 523.5 1085 Z " /><path fill="rgb(0,0,0)" stroke="rgb(0,0,0)" stroke-width="1" opacity="0.47058823529411764" d="M 1381.5 1085 L 1380.5 1087 L 1381.5 1085 Z " /><path fill="rgb(0,0,0)" stroke="rgb(0,0,0)" stroke-width="1" opacity="0.47058823529411764" d="M 481.5 1086 L 482 1088.5 L 481 1088.5 L 481.5 1086 Z " /><path fill="rgb(0,0,0)" stroke="rgb(0,0,0)" stroke-width="1" opacity="0.47058823529411764" d="M 1034.5 1087 L 1035 1089.5 L 1034 1089.5 L 1034.5 1087 Z " /><path fill="rgb(0,0,0)" stroke="rgb(0,0,0)" stroke-width="1" opacity="0.47058823529411764" d="M 1379.5 1088 L 1378.5 1090 L 1379.5 1088 Z " /><path fill="rgb(0,0,0)" stroke="rgb(0,0,0)" stroke-width="1" opacity="0.47058823529411764" d="M 263.5 1090 L 264 1092.5 L 263 1092.5 L 263.5 1090 Z " /><path fill="rgb(0,0,0)" stroke="rgb(0,0,0)" stroke-width="1" opacity="0.47058823529411764" d="M 1076.5 1090 L 1077 1092.5 L 1076 1092.5 L 1076.5 1090 Z " /><path fill="rgb(0,0,0)" stroke="rgb(0,0,0)" stroke-width="1" opacity="0.47058823529411764" d="M 482.5 1092 L 483 1094.5 L 482 1094.5 L 482.5 1092 Z " /><path fill="rgb(0,0,0)" stroke="rgb(0,0,0)" stroke-width="1" opacity="0.47058823529411764" d="M 1376.5 1092 L 1375.5 1094 L 1376.5 1092 Z " /><path fill="rgb(0,0,0)" stroke="rgb(0,0,0)" stroke-width="1" opacity="0.47058823529411764" d="M 306.5 1093 L 307 1095.5 L 306 1095.5 L 306.5 1093 Z " /><path fill="rgb(0,0,0)" stroke="rgb(0,0,0)" stroke-width="1" opacity="0.47058823529411764" d="M 1316.5 1095 L 1314.5 1098 L 1316.5 1095 Z " /><path fill="rgb(0,0,0)" stroke="rgb(0,0,0)" stroke-width="1" opacity="0.47058823529411764" d="M 525.5 1096 L 526 1098.5 L 525 1098.5 L 525.5 1096 Z " /><path fill="rgb(0,0,0)" stroke="rgb(0,0,0)" stroke-width="1" opacity="0.47058823529411764" d="M 814.5 1096 L 815 1098.5 L 814 1098.5 L 814.5 1096 Z " /><path fill="rgb(0,0,0)" stroke="rgb(0,0,0)" stroke-width="1" opacity="0.47058823529411764" d="M 1373.5 1096 L 1371.5 1099 L 1373.5 1096 Z " /><path fill="rgb(0,0,0)" stroke="rgb(0,0,0)" stroke-width="1" opacity="0.47058823529411764" d="M 856.5 1097 L 857 1099.5 L 856 1099.5 L 856.5 1097 Z " /><path fill="rgb(0,0,0)" stroke="rgb(0,0,0)" stroke-width="1" opacity="0.47058823529411764" d="M 1310.5 1100 L 1309.5 1102 L 1310.5 1100 Z " /><path fill="rgb(0,0,0)" stroke="rgb(0,0,0)" stroke-width="1" opacity="0.47058823529411764" d="M 265.5 1101 L 266 1103.5 L 265 1103.5 L 265.5 1101 Z " /><path fill="rgb(0,0,0)" stroke="rgb(0,0,0)" stroke-width="1" opacity="0.47058823529411764" d="M 1368.5 1102 L 1366.5 1105 L 1368.5 1102 Z " /><path fill="rgb(0,0,0)" stroke="rgb(0,0,0)" stroke-width="1" opacity="0.47058823529411764" d="M 1306.5 1103 L 1305.5 1105 L 1306.5 1103 Z " /><path fill="rgb(0,0,0)" stroke="rgb(0,0,0)" stroke-width="1" opacity="0.47058823529411764" d="M 1030.5 1108 L 1031 1110.5 L 1030 1110.5 L 1030.5 1108 Z " /><path fill="rgb(0,0,0)" stroke="rgb(0,0,0)" stroke-width="1" opacity="0.47058823529411764" d="M 1361.5 1110 L 1350.5 1122 L 1361.5 1110 Z " /><path fill="rgb(0,0,0)" stroke="rgb(0,0,0)" stroke-width="1" opacity="0.47058823529411764" d="M 853.5 1113 L 854 1115.5 L 853 1115.5 L 853.5 1113 Z " /><path fill="rgb(0,0,0)" stroke="rgb(0,0,0)" stroke-width="1" opacity="0.47058823529411764" d="M 1029.5 1113 L 1030 1115.5 L 1029 1115.5 L 1029.5 1113 Z " /><path fill="rgb(0,0,0)" stroke="rgb(0,0,0)" stroke-width="1" opacity="0.47058823529411764" d="M 310.5 1114 L 311 1116.5 L 310 1116.5 L 310.5 1114 Z " /><path fill="rgb(0,0,0)" stroke="rgb(0,0,0)" stroke-width="1" opacity="0.47058823529411764" d="M 1071.5 1116 L 1072 1118.5 L 1071 1118.5 L 1071.5 1116 Z " /><path fill="rgb(0,0,0)" stroke="rgb(0,0,0)" stroke-width="1" opacity="0.47058823529411764" d="M 1028.5 1118 L 1029 1120.5 L 1028 1120.5 L 1028.5 1118 Z " /><path fill="rgb(0,0,0)" stroke="rgb(0,0,0)" stroke-width="1" opacity="0.47058823529411764" d="M 269.5 1122 L 270 1124.5 L 269 1124.5 L 269.5 1122 Z " /><path fill="rgb(0,0,0)" stroke="rgb(0,0,0)" stroke-width="1" opacity="0.47058823529411764" d="M 1344.5 1126 L 1342.5 1129 L 1344.5 1126 Z " /><path fill="rgb(0,0,0)" stroke="rgb(0,0,0)" stroke-width="1" opacity="0.47058823529411764" d="M 1338.5 1131 L 1337.5 1133 L 1338.5 1131 Z " /><path fill="rgb(0,0,0)" stroke="rgb(0,0,0)" stroke-width="1" opacity="0.47058823529411764" d="M 1068.5 1132 L 1069 1134.5 L 1068 1134.5 L 1068.5 1132 Z " /><path fill="rgb(0,0,0)" stroke="rgb(0,0,0)" stroke-width="1" opacity="0.47058823529411764" d="M 1333.5 1135 L 1332.5 1137 L 1333.5 1135 Z " /><path fill="rgb(0,0,0)" stroke="rgb(0,0,0)" stroke-width="1" opacity="0.47058823529411764" d="M 1223.5 1137 L 1227 1137.5 L 1223.5 1138 L 1223.5 1137 Z " /><path fill="rgb(0,0,0)" stroke="rgb(0,0,0)" stroke-width="1" opacity="0.47058823529411764" d="M 1207.5 1138 L 1216 1138.5 L 1207.5 1139 L 1207.5 1138 Z " /><path fill="rgb(0,0,0)" stroke="rgb(0,0,0)" stroke-width="1" opacity="0.47058823529411764" d="M 1125.5 1139 L 1180 1139.5 L 1125.5 1140 L 1125.5 1139 Z " /><path fill="rgb(0,0,0)" stroke="rgb(0,0,0)" stroke-width="1" opacity="0.47058823529411764" d="M 1326.5 1140 L 1325.5 1142 L 1326.5 1140 Z " /><path fill="rgb(0,0,0)" stroke="rgb(0,0,0)" stroke-width="1" opacity="0.47058823529411764" d="M 1323.5 1142 L 1322.5 1144 L 1323.5 1142 Z " /><path fill="rgb(0,0,0)" stroke="rgb(0,0,0)" stroke-width="1" opacity="0.47058823529411764" d="M 1320.5 1144 L 1319.5 1146 L 1320.5 1144 Z " /><path fill="rgb(0,0,0)" stroke="rgb(0,0,0)" stroke-width="1" opacity="0.47058823529411764" d="M 1237.5 1177 L 1240 1177.5 L 1237.5 1178 L 1237.5 1177 Z " /><path fill="rgb(0,0,0)" stroke="rgb(0,0,0)" stroke-width="1" opacity="0.47058823529411764" d="M 1228.5 1178 L 1233 1178.5 L 1228.5 1179 L 1228.5 1178 Z " /><path fill="rgb(0,0,0)" stroke="rgb(0,0,0)" stroke-width="1" opacity="0.47058823529411764" d="M 1154.5 1179 L 1211 1179.5 L 1154.5 1180 L 1154.5 1179 Z " /><path fill="rgb(0,0,0)" stroke="rgb(0,0,0)" stroke-width="1" opacity="0.47058823529411764" d="M 490.5 1219 L 506 1219.5 L 490.5 1220 L 490.5 1219 Z " /><path fill="rgb(0,0,0)" stroke="rgb(0,0,0)" stroke-width="1" opacity="0.47058823529411764" d="M 829.5 1219 L 845 1219.5 L 829.5 1220 L 829.5 1219 Z " /><path fill="rgb(0,0,0)" stroke="rgb(0,0,0)" stroke-width="1" opacity="0.47058823529411764" d="M 719.5 1259 L 1035 1259.5 L 719.5 1260 L 719.5 1259 Z " /><path fill="rgb(0,0,0)" stroke="rgb(0,0,0)" stroke-width="1" opacity="1" d="M 294 424 L 1046.5 424 L 1047 424.5 L 1047 452.5 L 1048 455.5 Q 1047.5 460 1048.5 460 L 1167.5 460 L 1168.5 461 L 1221.5 461 L 1222.5 462 L 1233.5 462 L 1234.5 463 L 1245.5 464 L 1270.5 471 Q 1325.5 490.5 1361 529.5 Q 1384.5 554.5 1400 587.5 L 1412 619.5 L 1419 649.5 L 1419 969.5 L 1418 970.5 L 1418 993.5 Q 1415.5 995 1417 1000.5 L 1413 1017.5 L 1401 1050.5 Q 1382.1 1092.1 1350.5 1121 Q 1309.7 1160.2 1245.5 1176 L 1235.5 1178 L 1222.5 1178 L 1221.5 1179 L 1095.5 1179 L 1094.5 1180 L 1058.5 1180 L 1057 1181.5 L 1045 1228.5 L 1036 1257.5 L 1034.5 1259 L 354.5 1259 L 353.5 1260 L 305 1260 L 293 1221.5 L 279 1167.5 L 267 1110.5 L 267 1105.5 L 265 1099.5 L 265 1094.5 L 263 1088.5 L 259 1058.5 L 257 1051.5 L 255 1031.5 L 254 1030.5 L 254 1023.5 L 253 1022.5 L 253 1015.5 L 250 998.5 L 250 990.5 L 249 989.5 L 249 981.5 L 248 980.5 L 248 972.5 L 247 971.5 L 247 962.5 L 246 961.5 L 244 928.5 L 243 927.5 L 243 910.5 L 242 909.5 L 242 878.5 L 241 877.5 L 241 751.5 L 242 750.5 L 243 719.5 L 244 718.5 L 244 706.5 L 245 705.5 L 248 665.5 L 249 664.5 L 252 633.5 L 253 632.5 L 253 626.5 L 254 625.5 L 254 619.5 L 256 612.5 L 259 588.5 L 271 529.5 L 291 457 L 294 456.5 L 294 424 Z M 957 459 L 956 460 L 880 460 L 880 690 L 881 691 L 881 699 L 884 708 L 884 780 L 1059 780 L 1059 761 L 1058 760 L 1058 743 L 1057 742 L 1056 715 L 1055 714 L 1054 692 L 1053 691 L 1053 682 L 1052 681 L 1049 648 L 1048 647 L 1045 620 L 1037 580 L 1037 575 L 1027 534 L 1027 530 L 1023 518 Q 1024 513 1021 514 L 1021 459 L 957 459 Z M 335 460 L 329 474 L 317 515 L 306 561 L 299 597 L 295 627 L 293 634 L 293 640 L 292 641 L 291 655 L 290 656 L 289 672 L 288 673 L 286 702 L 285 703 L 285 714 L 284 715 L 284 727 L 283 728 L 282 762 L 281 763 L 281 780 L 282 780 L 460 780 L 460 766 L 461 765 L 462 711 L 463 710 L 465 660 L 466 659 L 466 643 L 462 632 L 462 623 L 461 622 L 461 503 L 460 502 L 460 461 L 460 460 L 335 460 Z M 500 460 L 500 611 L 501 612 L 501 733 L 502 734 L 502 744 L 501 745 L 501 780 L 600 780 L 600 687 L 599 686 L 599 460 L 500 460 Z M 640 460 L 640 780 L 641 780 L 739 780 L 739 461 L 739 460 L 640 460 Z M 781 460 L 781 780 L 782 780 L 840 780 L 840 461 L 840 460 L 781 460 Z M 1062 500 L 1075 560 L 1107 560 L 1108 561 L 1215 561 L 1216 562 L 1227 562 Q 1257 570 1278 588 Q 1302 608 1314 641 L 1318 657 L 1319 671 L 1320 672 L 1320 728 L 1321 729 L 1321 912 L 1320 913 L 1320 969 L 1319 970 L 1318 984 L 1314 1000 Q 1306 1021 1293 1037 Q 1269 1066 1227 1078 L 1216 1078 L 1215 1079 L 1111 1079 L 1110 1080 L 1078 1080 L 1067 1141 L 1093 1141 L 1094 1140 L 1194 1140 L 1195 1139 L 1220 1139 L 1221 1138 L 1234 1137 Q 1285 1125 1319 1095 Q 1350 1068 1367 1027 Q 1374 1009 1378 988 Q 1377 982 1379 981 L 1379 946 L 1380 945 L 1380 695 L 1379 694 L 1379 663 L 1378 662 L 1378 652 Q 1374 630 1366 612 L 1349 580 L 1334 561 Q 1300 520 1242 505 L 1226 502 L 1205 501 L 1204 500 L 1062 500 Z M 1083 599 L 1088 640 L 1089 641 L 1089 649 L 1092 666 L 1092 675 L 1093 676 L 1093 685 L 1094 686 L 1094 695 L 1095 696 L 1096 717 L 1097 718 L 1097 733 L 1098 734 L 1098 768 L 1099 769 L 1099 884 L 1098 885 L 1098 912 L 1097 913 L 1097 925 L 1096 926 L 1096 938 L 1095 939 L 1092 980 L 1091 981 L 1091 989 L 1090 990 L 1090 998 L 1089 999 L 1089 1007 L 1088 1008 L 1086 1031 L 1085 1032 L 1085 1040 L 1192 1040 L 1193 1039 L 1214 1039 Q 1238 1034 1254 1019 Q 1267 1006 1275 988 L 1279 973 L 1279 942 L 1280 941 L 1280 679 L 1279 678 L 1278 664 L 1273 648 Q 1267 635 1258 626 Q 1242 607 1214 601 L 1196 601 L 1195 600 L 1111 600 L 1110 599 L 1083 599 Z M 553 819 L 552 820 L 281 820 L 281 877 L 282 878 L 282 900 L 283 900 L 1058 900 L 1058 878 L 1059 877 L 1059 820 L 850 820 L 849 819 L 553 819 Z M 286 940 L 286 953 L 287 954 L 287 964 L 288 965 L 290 991 L 291 992 L 291 1000 L 292 1001 L 294 1023 L 295 1024 L 295 1030 L 296 1031 L 296 1037 L 298 1044 L 302 1075 L 317 1151 L 335 1220 L 509 1220 L 511 1219 L 493 1147 L 482 1091 L 480 1073 L 477 1060 L 477 1054 L 476 1053 L 476 1047 L 475 1046 L 475 1040 L 474 1039 L 471 1008 L 470 1007 L 469 988 L 467 978 L 467 969 L 466 968 L 466 958 L 465 957 L 465 946 L 464 945 Q 464 940 464 940 L 286 940 Z M 505 940 L 511 1008 L 512 1009 L 515 1039 L 516 1040 L 516 1046 L 518 1053 L 518 1059 L 524 1090 L 524 1095 L 536 1153 L 554 1219 L 556 1220 L 785 1220 L 789 1210 L 799 1174 L 817 1090 L 822 1055 L 823 1054 L 823 1048 L 824 1047 L 824 1041 L 825 1040 L 825 1034 L 830 1011 L 831 990 L 832 989 L 832 974 L 833 973 L 833 963 L 834 962 L 834 952 L 835 951 L 835 941 L 835 940 L 505 940 Z M 876 940 L 874 969 L 873 970 L 873 984 L 872 985 L 872 997 L 871 998 L 870 1016 L 866 1033 L 866 1040 L 864 1047 L 864 1053 L 862 1060 L 862 1066 L 857 1091 L 857 1096 L 841 1173 L 828 1220 L 1005 1220 L 1006 1219 L 1021 1159 L 1036 1086 L 1041 1051 L 1042 1050 L 1042 1044 L 1044 1037 L 1045 1024 L 1046 1023 L 1050 984 L 1051 983 L 1051 975 L 1052 974 L 1053 954 L 1054 953 L 1054 941 L 1054 940 L 876 940 Z " /></svg>