<svg width="550" height="400" xmlns="http://www.w3.org/2000/svg" xmlns:xlink="http://www.w3.org/1999/xlink" version="1.1">
 <defs>
  <symbol overflow="visible" id="s">
   <path id="svg_1" d="m18.766,-1.125c-0.96875,0.5 -1.9805,0.875 -3.0312,1.125c-1.043,0.25781 -2.1367,0.39062 -3.2812,0.39062c-3.3984,0 -6.0898,-0.94531 -8.0781,-2.8438c-1.9922,-1.9062 -2.9844,-4.4844 -2.9844,-7.7344c0,-3.2578 0.99219,-5.8359 2.9844,-7.7344c1.9883,-1.9062 4.6797,-2.8594 8.0781,-2.8594c1.1445,0 2.2383,0.13281 3.2812,0.39062c1.0508,0.25 2.0625,0.625 3.0312,1.125l0,4.2188c-0.98047,-0.65625 -1.9453,-1.1406 -2.8906,-1.4531c-0.94922,-0.3125 -1.9492,-0.46875 -3,-0.46875c-1.875,0 -3.3516,0.60547 -4.4219,1.8125c-1.0742,1.1992 -1.6094,2.8555 -1.6094,4.9688c0,2.1055 0.53516,3.7617 1.6094,4.9688c1.0703,1.1992 2.5469,1.7969 4.4219,1.7969c1.0508,0 2.0508,-0.14844 3,-0.45312c0.94531,-0.3125 1.9102,-0.80078 2.8906,-1.4688l0,4.21873z"/>
  </symbol>
  <symbol overflow="visible" id="e">
   <path id="svg_2" d="m13.734,-11.141c-0.4375,-0.19531 -0.87109,-0.34375 -1.2969,-0.4375c-0.41797,-0.10156 -0.83984,-0.15625 -1.2656,-0.15625c-1.2617,0 -2.2305,0.40625 -2.9062,1.2188c-0.67969,0.80469 -1.0156,1.9531 -1.0156,3.4531l0,7.0625l-4.8906,0l0,-15.312l4.8906,0l0,2.5156c0.625,-1 1.3438,-1.7266 2.1562,-2.1875c0.82031,-0.46875 1.8008,-0.70312 2.9375,-0.70312c0.16406,0 0.34375,0.01172 0.53125,0.03125c0.19531,0.01172 0.47656,0.03906 0.84375,0.07813l0.0156,4.43699z"/>
  </symbol>
  <symbol overflow="visible" id="c">
   <path id="svg_3" d="m17.641,-7.7031l0,1.4062l-11.453,0c0.125,1.1484 0.53906,2.0078 1.25,2.5781c0.70703,0.57422 1.7031,0.85938 2.9844,0.85938c1.0312,0 2.082,-0.14844 3.1562,-0.45312c1.082,-0.3125 2.1914,-0.77344 3.3281,-1.3906l0,3.7656c-1.1562,0.4375 -2.3125,0.76562 -3.4688,0.98438c-1.1562,0.22656 -2.3125,0.34375 -3.4688,0.34375c-2.7734,0 -4.9297,-0.70312 -6.4688,-2.1094c-1.5312,-1.4062 -2.2969,-3.3789 -2.2969,-5.9219c0,-2.5 0.75391,-4.4609 2.2656,-5.8906c1.5078,-1.4375 3.582,-2.1562 6.2188,-2.1562c2.4062,0 4.332,0.73047 5.7812,2.1875c1.4453,1.4492 2.1719,3.3828 2.1719,5.7969l0.0001,0.00001zm-5.0312,-1.625c0,-0.92578 -0.27344,-1.6719 -0.8125,-2.2344c-0.54297,-0.57031 -1.25,-0.85938 -2.125,-0.85938c-0.94922,0 -1.7188,0.26562 -2.3125,0.79688s-0.96484,1.2969 -1.1094,2.2969l6.3594,0z"/>
  </symbol>
  <symbol overflow="visible" id="a">
   <path id="svg_4" d="m9.2188,-6.8906c-1.0234,0 -1.793,0.17188 -2.3125,0.51562c-0.51172,0.34375 -0.76562,0.85547 -0.76562,1.5312c0,0.625 0.20703,1.1172 0.625,1.4688c0.41406,0.34375 0.98828,0.51562 1.7188,0.51562c0.92578,0 1.7031,-0.32812 2.3281,-0.98438c0.63281,-0.66406 0.95312,-1.4922 0.95312,-2.4844l0,-0.5625l-2.5469,0.00004zm7.4688,-1.8438l0,8.7344l-4.9219,0l0,-2.2656c-0.65625,0.92969 -1.3984,1.6055 -2.2188,2.0312c-0.82422,0.41406 -1.8242,0.625 -3,0.625c-1.5859,0 -2.8711,-0.45703 -3.8594,-1.375c-0.99219,-0.92578 -1.4844,-2.1289 -1.4844,-3.6094c0,-1.7891 0.61328,-3.1016 1.8438,-3.9375c1.2383,-0.84375 3.1797,-1.2656 5.8281,-1.2656l2.8906,0l0,-0.39062c0,-0.76953 -0.30859,-1.332 -0.92188,-1.6875c-0.61719,-0.36328 -1.5703,-0.54688 -2.8594,-0.54688c-1.0547,0 -2.0312,0.10547 -2.9375,0.3125c-0.89844,0.21094 -1.7305,0.52344 -2.5,0.9375l0,-3.7344c1.0391,-0.25 2.0859,-0.44141 3.1406,-0.57812c1.0625,-0.13281 2.125,-0.20312 3.1875,-0.20312c2.7578,0 4.75,0.54688 5.9688,1.6406c1.2266,1.0859 1.8438,2.8555 1.8438,5.3125l0.00008,0.00004z"/>
  </symbol>
  <symbol overflow="visible" id="b">
   <path id="svg_5" d="m7.7031,-19.656l0,4.3438l5.0469,0l0,3.5l-5.0469,0l0,6.5c0,0.71094 0.14062,1.1875 0.42188,1.4375s0.83594,0.375 1.6719,0.375l2.5156,0l0,3.5l-4.1875,0c-1.9375,0 -3.3125,-0.39844 -4.125,-1.2031c-0.80469,-0.8125 -1.2031,-2.1797 -1.2031,-4.1094l0,-6.5l-2.4219,0l0,-3.5l2.4219,0l0,-4.3438l4.90622,0z"/>
  </symbol>
  <symbol overflow="visible" id="l">
   <path id="svg_6" d="m12.766,-13.078l0,-8.2031l4.9219,0l0,21.281l-4.9219,0l0,-2.2188c-0.66797,0.90625 -1.4062,1.5703 -2.2188,1.9844s-1.7578,0.625 -2.8281,0.625c-1.8867,0 -3.4336,-0.75 -4.6406,-2.25c-1.2109,-1.5 -1.8125,-3.4258 -1.8125,-5.7812c0,-2.3633 0.60156,-4.2969 1.8125,-5.7969c1.207,-1.5 2.7539,-2.25 4.6406,-2.25c1.0625,0 2,0.21484 2.8125,0.64062c0.82031,0.42969 1.5664,1.0859 2.2344,1.9688l0,0.00018zm-3.2188,9.9219c1.0391,0 1.8359,-0.37891 2.3906,-1.1406c0.55078,-0.76953 0.82812,-1.8828 0.82812,-3.3438c0,-1.457 -0.27734,-2.5664 -0.82812,-3.3281c-0.55469,-0.76953 -1.3516,-1.1562 -2.3906,-1.1562c-1.043,0 -1.8398,0.38672 -2.3906,1.1562c-0.55469,0.76172 -0.82812,1.8711 -0.82812,3.3281c0,1.4609 0.27344,2.5742 0.82812,3.3438c0.55078,0.76172 1.3477,1.1406 2.3906,1.1406z"/>
  </symbol>
  <symbol overflow="visible" id="k">
   <path id="svg_7" d="m10.5,-3.1562c1.0508,0 1.8516,-0.37891 2.4062,-1.1406c0.55078,-0.76953 0.82812,-1.8828 0.82812,-3.3438c0,-1.457 -0.27734,-2.5664 -0.82812,-3.3281c-0.55469,-0.76953 -1.3555,-1.1562 -2.4062,-1.1562c-1.0547,0 -1.8594,0.38672 -2.4219,1.1562c-0.55469,0.77344 -0.82812,1.8828 -0.82812,3.3281c0,1.4492 0.27344,2.5586 0.82812,3.3281c0.5625,0.77344 1.3672,1.1562 2.4219,1.1562l0,0.0001zm-3.25,-9.9219c0.67578,-0.88281 1.4219,-1.5391 2.2344,-1.9688c0.82031,-0.42578 1.7656,-0.64062 2.8281,-0.64062c1.8945,0 3.4453,0.75 4.6562,2.25c1.207,1.5 1.8125,3.4336 1.8125,5.7969c0,2.3555 -0.60547,4.2812 -1.8125,5.7812c-1.2109,1.5 -2.7617,2.25 -4.6562,2.25c-1.0625,0 -2.0078,-0.21094 -2.8281,-0.625c-0.8125,-0.42578 -1.5586,-1.0859 -2.2344,-1.9844l0,2.2188l-4.8906,0l0,-21.281l4.8906,0l0,8.20292z"/>
  </symbol>
  <symbol overflow="visible" id="j">
   <path id="svg_8" d="m0.34375,-15.312l4.8906,0l4.125,10.391l3.5,-10.391l4.8906,0l-6.4375,16.766c-0.64844,1.6953 -1.4023,2.8828 -2.2656,3.5625c-0.86719,0.6875 -2,1.0312 -3.4062,1.0312l-2.8438,0l0,-3.2188l1.5312,0c0.83203,0 1.4375,-0.13672 1.8125,-0.40625c0.38281,-0.26172 0.67969,-0.73047 0.89062,-1.4062l0.14062,-0.42188l-6.82804,-15.90657z"/>
  </symbol>
  <symbol overflow="visible" id="g">
   <path id="svg_9" d="m2.3594,-15.312l4.8906,0l0,15.031c0,2.0508 -0.49609,3.6172 -1.4844,4.7031c-0.98047,1.082 -2.4062,1.625 -4.2812,1.625l-2.4219,0l0,-3.2188l0.85938,0c0.92578,0 1.5625,-0.21094 1.9062,-0.625c0.35156,-0.41797 0.53125,-1.2461 0.53125,-2.4844l0.00007,-15.0309zm0,-5.9688l4.8906,0l0,4l-4.8906,0l0,-4z"/>
  </symbol>
  <symbol overflow="visible" id="d">
   <path id="svg_10" d="m9.6406,-12.188c-1.0859,0 -1.9141,0.39062 -2.4844,1.1719c-0.57422,0.78125 -0.85938,1.9062 -0.85938,3.375s0.28516,2.5938 0.85938,3.375c0.57031,0.77344 1.3984,1.1562 2.4844,1.1562c1.0625,0 1.875,-0.38281 2.4375,-1.1562c0.57031,-0.78125 0.85938,-1.9062 0.85938,-3.375s-0.28906,-2.5938 -0.85938,-3.375c-0.5625,-0.78125 -1.375,-1.1719 -2.4375,-1.1719zm0,-3.5c2.6328,0 4.6914,0.71484 6.1719,2.1406c1.4766,1.418 2.2188,3.3867 2.2188,5.9062c0,2.5117 -0.74219,4.4805 -2.2188,5.9062c-1.4805,1.418 -3.5391,2.125 -6.1719,2.125c-2.6484,0 -4.7148,-0.70703 -6.2031,-2.125c-1.4922,-1.4258 -2.2344,-3.3945 -2.2344,-5.9062c0,-2.5195 0.74219,-4.4883 2.2344,-5.9062c1.4883,-1.4258 3.5547,-2.1406 6.2031,-2.1406z"/>
  </symbol>
  <symbol overflow="visible" id="f">
   <path id="svg_11" d="m17.75,-9.3281l0,9.3281l-4.9219,0l0,-7.1406c0,-1.3203 -0.03125,-2.2344 -0.09375,-2.7344s-0.16797,-0.86719 -0.3125,-1.1094c-0.1875,-0.3125 -0.44922,-0.55469 -0.78125,-0.73438c-0.32422,-0.17578 -0.69531,-0.26562 -1.1094,-0.26562c-1.0234,0 -1.8242,0.39844 -2.4062,1.1875c-0.58594,0.78125 -0.875,1.8711 -0.875,3.2656l0,7.5312l-4.8906,0l0,-15.312l4.8906,0l0,2.2344c0.73828,-0.88281 1.5195,-1.5391 2.3438,-1.9688c0.83203,-0.42578 1.75,-0.64062 2.75,-0.64062c1.7695,0 3.1133,0.54688 4.0312,1.6406c0.91406,1.0859 1.375,2.6562 1.375,4.7188l0,-0.00038z"/>
  </symbol>
  <symbol overflow="visible" id="i">
   <path id="svg_12" d="m17.75,-9.3281l0,9.3281l-4.9219,0l0,-7.1094c0,-1.3438 -0.03125,-2.2656 -0.09375,-2.7656s-0.16797,-0.86719 -0.3125,-1.1094c-0.1875,-0.3125 -0.44922,-0.55469 -0.78125,-0.73438c-0.32422,-0.17578 -0.69531,-0.26562 -1.1094,-0.26562c-1.0234,0 -1.8242,0.39844 -2.4062,1.1875c-0.58594,0.78125 -0.875,1.8711 -0.875,3.2656l0,7.5312l-4.8906,0l0,-21.281l4.8906,0l0,8.2031c0.73828,-0.88281 1.5195,-1.5391 2.3438,-1.9688c0.83203,-0.42578 1.75,-0.64062 2.75,-0.64062c1.7695,0 3.1133,0.54688 4.0312,1.6406c0.91406,1.0859 1.375,2.6562 1.375,4.7188l0,-0.00008z"/>
  </symbol>
  <symbol overflow="visible" id="h">
   <path id="svg_13" d="m12.766,-2.5938c-0.66797,0.88672 -1.4062,1.543 -2.2188,1.9688c-0.8125,0.41797 -1.7578,0.625 -2.8281,0.625c-1.8672,0 -3.4062,-0.73438 -4.625,-2.2031c-1.2188,-1.4766 -1.8281,-3.3516 -1.8281,-5.625c0,-2.2891 0.60938,-4.1641 1.8281,-5.625c1.2188,-1.4688 2.7578,-2.2031 4.625,-2.2031c1.0703,0 2.0156,0.21484 2.8281,0.64062c0.8125,0.41797 1.5508,1.0742 2.2188,1.9688l0,-2.2656l4.9219,0l0,13.766c0,2.457 -0.77734,4.3359 -2.3281,5.6406c-1.5547,1.3008 -3.8086,1.9531 -6.7656,1.9531c-0.94922,0 -1.8711,-0.07422 -2.7656,-0.21875c-0.89844,-0.14844 -1.7969,-0.37109 -2.7031,-0.67188l0,-3.8125c0.86328,0.48828 1.7031,0.85156 2.5156,1.0938c0.82031,0.23828 1.6484,0.35938 2.4844,0.35938c1.6016,0 2.7734,-0.35156 3.5156,-1.0469c0.75,-0.69922 1.125,-1.7969 1.125,-3.2969l-0.0001,-1.04737zm-3.2188,-9.5312c-1.0117,0 -1.8047,0.375 -2.375,1.125c-0.5625,0.74219 -0.84375,1.7969 -0.84375,3.1719c0,1.3984 0.26953,2.4609 0.8125,3.1875c0.55078,0.71875 1.3516,1.0781 2.4062,1.0781c1.0195,0 1.8125,-0.36719 2.375,-1.1094c0.5625,-0.75 0.84375,-1.8008 0.84375,-3.1562c0,-1.375 -0.28125,-2.4297 -0.84375,-3.1719c-0.5625,-0.75 -1.3555,-1.125 -2.375,-1.125l0.00005,0z"/>
  </symbol>
  <symbol overflow="visible" id="r">
   <path id="svg_14" d="m12.422,-21.281l0,3.2188l-2.7031,0c-0.6875,0 -1.1719,0.125 -1.4531,0.375c-0.27344,0.25 -0.40625,0.6875 -0.40625,1.3125l0,1.0625l4.1875,0l0,3.5l-4.1875,0l0,11.812l-4.8906,0l0,-11.812l-2.4375,0l0,-3.5l2.4375,0l0,-1.0625c0,-1.6641 0.46094,-2.8984 1.3906,-3.7031c0.92578,-0.80078 2.3672,-1.2031 4.3281,-1.2031l3.73435,-0.0001z"/>
  </symbol>
  <symbol overflow="visible" id="q">
   <path id="svg_15" d="m16.547,-12.766c0.61328,-0.94531 1.3477,-1.6719 2.2031,-2.1719c0.85156,-0.5 1.7891,-0.75 2.8125,-0.75c1.7578,0 3.0977,0.54688 4.0156,1.6406c0.92578,1.0859 1.3906,2.6562 1.3906,4.7188l0,9.3281l-4.9219,0l0,-7.9844l0,-0.35938c0.00781,-0.13281 0.01562,-0.32031 0.01562,-0.5625c0,-1.082 -0.16406,-1.8633 -0.48438,-2.3438c-0.3125,-0.48828 -0.82422,-0.73438 -1.5312,-0.73438c-0.92969,0 -1.6484,0.38672 -2.1562,1.1562c-0.51172,0.76172 -0.77344,1.8672 -0.78125,3.3125l0,7.5156l-4.9219,0l0,-7.9844c0,-1.6953 -0.14844,-2.7852 -0.4375,-3.2656c-0.29297,-0.48828 -0.8125,-0.73438 -1.5625,-0.73438c-0.9375,0 -1.6641,0.38672 -2.1719,1.1562c-0.51172,0.76172 -0.76562,1.8594 -0.76562,3.2969l0,7.5312l-4.9219,0l0,-15.312l4.9219,0l0,2.2344c0.60156,-0.86328 1.2891,-1.5156 2.0625,-1.9531c0.78125,-0.4375 1.6406,-0.65625 2.5781,-0.65625c1.0625,0 2,0.25781 2.8125,0.76562c0.8125,0.51172 1.4258,1.2305 1.8438,2.1562l0.00003,-0.00023z"/>
  </symbol>
  <symbol overflow="visible" id="p">
   <path id="svg_16" d="m2.5781,-20.406l5.875,0l7.4219,14l0,-14l4.9844,0l0,20.406l-5.875,0l-7.4219,-14l0,14l-4.9844,0l0,-20.406z"/>
  </symbol>
  <symbol overflow="visible" id="o">
   <path id="svg_17" d="m2.1875,-5.9688l0,-9.3438l4.9219,0l0,1.5312c0,0.83594 -0.00781,1.875 -0.01563,3.125c-0.01171,1.25 -0.01562,2.0859 -0.01562,2.5c0,1.2422 0.03125,2.1328 0.09375,2.6719c0.07031,0.54297 0.17969,0.93359 0.32812,1.1719c0.20703,0.32422 0.47266,0.57422 0.79688,0.75c0.32031,0.16797 0.69141,0.25 1.1094,0.25c1.0195,0 1.8203,-0.39062 2.4062,-1.1719c0.58203,-0.78125 0.875,-1.8672 0.875,-3.2656l0,-7.5625l4.8906,0l0,15.312l-4.8906,0l0,-2.2188c-0.74219,0.89844 -1.5234,1.5586 -2.3438,1.9844c-0.82422,0.41406 -1.7344,0.625 -2.7344,0.625c-1.7617,0 -3.1055,-0.53906 -4.0312,-1.625c-0.92969,-1.082 -1.3906,-2.6602 -1.3906,-4.7344l0,0.0006z"/>
  </symbol>
  <symbol overflow="visible" id="n">
   <path id="svg_18" d="m2.5781,-20.406l8.7344,0c2.5938,0 4.582,0.57812 5.9688,1.7344c1.3945,1.1484 2.0938,2.7891 2.0938,4.9219c0,2.1367 -0.69922,3.7812 -2.0938,4.9375c-1.3867,1.1562 -3.375,1.7344 -5.9688,1.7344l-3.4844,0l0,7.0781l-5.25,0l0,-20.4063zm5.25,3.8125l0,5.7031l2.9219,0c1.0195,0 1.8047,-0.25 2.3594,-0.75c0.5625,-0.5 0.84375,-1.2031 0.84375,-2.1094c0,-0.91406 -0.28125,-1.6172 -0.84375,-2.1094c-0.55469,-0.48828 -1.3398,-0.73438 -2.3594,-0.73438l-2.9219,0.00008z"/>
  </symbol>
  <symbol overflow="visible" id="m">
   <path id="svg_19" d="m14.719,-14.828l0,3.9844c-0.65625,-0.45703 -1.3242,-0.79688 -2,-1.0156c-0.66797,-0.21875 -1.3594,-0.32812 -2.0781,-0.32812c-1.3672,0 -2.4336,0.40234 -3.2031,1.2031c-0.76172,0.79297 -1.1406,1.9062 -1.1406,3.3438c0,1.4297 0.37891,2.543 1.1406,3.3438c0.76953,0.79297 1.8359,1.1875 3.2031,1.1875c0.75781,0 1.4844,-0.10938 2.1719,-0.32812c0.6875,-0.22656 1.3203,-0.56641 1.9062,-1.0156l0,4c-0.76172,0.28125 -1.5391,0.48828 -2.3281,0.625c-0.78125,0.14453 -1.5742,0.21875 -2.375,0.21875c-2.7617,0 -4.9219,-0.70703 -6.4844,-2.125c-1.5547,-1.4141 -2.3281,-3.3828 -2.3281,-5.9062c0,-2.5312 0.77344,-4.5039 2.3281,-5.9219c1.5625,-1.4141 3.7227,-2.125 6.4844,-2.125c0.80078,0 1.5938,0.07422 2.375,0.21875c0.78125,0.13672 1.5547,0.35156 2.3281,0.64062l0,-0.00018z"/>
  </symbol>
 </defs>
 <g>
  <title>Layer 1</title>
  <path stroke="null" id="svg_21" d="m224.67855,239.25656c-2.3164,-0.38672 -4.4531,1.1602 -4.8359,3.4492c-0.38281,2.2891 1.1602,4.4531 3.4492,4.8359c1.9453,0.32422 4.9648,1.7812 7.0586,4.8086c2.1797,3.1484 2.8398,7.3047 1.9102,12.02c-0.44922,2.2734 1.0352,4.4844 3.3086,4.9336c0.27344,0.05469 0.54688,0.07812 0.81641,0.07812c1.9648,0 3.7227,-1.3867 4.1172,-3.3867c1.7422,-8.8359 -0.80469,-14.898 -3.2461,-18.426c-3.0391,-4.3945 -7.7422,-7.5 -12.578,-8.3125l-0.00021,-0.00022z"/>
  <path stroke="null" id="svg_22" d="m216.34855,262.57656c-0.47656,-1.8008 -2.1133,-3.1289 -4.0625,-3.1289c-2.3203,0 -4.1992,1.8828 -4.1992,4.1992c0,4.1172 3.3477,7.4609 7.4609,7.4609c0.65234,0 1.3086,-0.08594 1.9453,-0.25781c2.2383,-0.59766 3.6836,-2.9141 3.0859,-5.1562c-0.52734,-1.9648 -2.2969,-3.2305 -4.2305,-3.1172l0.0001,0.00001z"/>
  <path stroke="null" id="svg_23" d="m309.62855,239.25656c-2.3086,-0.38672 -4.4531,1.1602 -4.8359,3.4492c-0.38281,2.2891 1.1602,4.4531 3.4492,4.8359c1.9453,0.32422 4.9648,1.7812 7.0586,4.8086c2.1797,3.1484 2.8398,7.3047 1.9102,12.02c-0.44922,2.2734 1.0352,4.4844 3.3086,4.9336c0.27344,0.05469 0.54687,0.07812 0.81641,0.07812c1.9648,0 3.7227,-1.3867 4.1172,-3.3867c1.7422,-8.8359 -0.80469,-14.898 -3.2461,-18.426c-3.0391,-4.3945 -7.7422,-7.5 -12.578,-8.3125l-0.00021,-0.00022z"/>
  <path stroke="null" id="svg_24" d="m301.28855,262.57656c-0.47266,-1.8008 -2.1094,-3.1289 -4.0625,-3.1289c-2.3203,0 -4.1992,1.8828 -4.1992,4.1992c0,4.1172 3.3477,7.4609 7.4609,7.4609c0.66016,0 1.3164,-0.08594 1.957,-0.25781c2.2383,-0.60547 3.6836,-2.9258 3.0781,-5.1641c-0.53516,-1.9688 -2.2305,-3.2461 -4.2344,-3.1094l0.0001,0.00011z"/>
  <path stroke="null" id="svg_25" d="m407.16855,247.57656c-3.043,-4.3984 -7.7461,-7.5039 -12.582,-8.3164c-2.2969,-0.38672 -4.4531,1.1602 -4.8359,3.4492c-0.38281,2.2891 1.1602,4.4531 3.4492,4.8359c1.9453,0.32422 4.9648,1.7812 7.0586,4.8086c2.1797,3.1484 2.8398,7.3047 1.9102,12.02c-0.44922,2.2734 1.0352,4.4844 3.3086,4.9336c0.27344,0.05469 0.54688,0.07813 0.81641,0.07813c1.9648,0 3.7227,-1.3867 4.1172,-3.3867c1.7461,-8.832 -0.80078,-14.895 -3.2422,-18.422l-0.00011,-0.00033z"/>
  <path stroke="null" id="svg_26" d="m386.23855,262.57656c-0.47266,-1.8008 -2.1094,-3.1289 -4.0625,-3.1289c-2.3203,0 -4.1992,1.8828 -4.1992,4.1992c0,4.1172 3.3477,7.4609 7.4609,7.4609c0.66016,0 1.3164,-0.08594 1.957,-0.25781c2.2383,-0.60547 3.6836,-2.9258 3.0781,-5.1641c-0.53125,-1.9688 -2.2617,-3.2461 -4.2344,-3.1094l0.0001,0.00011z"/>
  <path stroke="null" id="svg_27" d="m401.16855,323.17656l0.00391,0c2.3164,0 4.1953,-1.875 4.1992,-4.1953s-1.875,-4.2031 -4.1953,-4.207l-15.395,-0.02344l-0.00391,0c-2.3164,0 -4.1953,1.875 -4.1992,4.1953c-0.00391,2.3203 1.875,4.2031 4.1953,4.207l15.395,0.02344z"/>
  <path stroke="null" id="svg_28" d="m252.20855,157.81656c-0.5625,-2.25 -2.8477,-3.625 -5.0898,-3.0586c-2.25,0.5625 -3.6211,2.8398 -3.0586,5.0898c1.918,7.6914 4.5312,14.676 7.7695,20.758c0.75391,1.418 2.2109,2.2266 3.7109,2.2266c0.66797,0 1.3438,-0.16016 1.9727,-0.49219c2.0469,-1.0898 2.8203,-3.6328 1.7344,-5.6836c-2.918,-5.4727 -5.2852,-11.812 -7.0391,-18.84l0,-0.00001z"/>
  <path stroke="null" id="svg_29" d="m498.83855,342.80656c-10.559,0 -15.648,-4.6797 -21.547,-10.094c-5.7656,-5.293 -12.301,-11.172 -24.016,-12.113c6.5625,-10.141 10.848,-18.98 10.98,-19.258c6.543,-12.078 10.914,-23.41 13.684,-33.969c0.00391,-0.04687 0.03125,-0.09375 0.03516,-0.14062c2.5352,-9.7109 3.7031,-18.762 3.8555,-27.09c0.08203,-0.46875 0.07812,-0.92578 0,-1.3828c0.04297,-9.0156 -1.0625,-17.184 -2.8438,-24.434c0.03515,-0.78906 -0.19141,-1.5039 -0.55078,-2.1523c-1.9297,-7.1562 -4.4766,-13.367 -7.125,-18.586c5.9883,0.14844 11.172,-1.9023 11.297,-1.9688c5.8164,-1.6367 8.5781,-5.0938 9.8672,-7.707c3.4297,-6.9336 0.41406,-14.98 0.0039,-16.008c-4.1484,-9.4727 -10.539,-15.914 -18.992,-19.141c-15.914,-6.0742 -33.234,1.6914 -34.367,2.2344c-6.9219,4.1172 -10.934,9.5703 -11.926,16.207c-1.8164,12.184 7.6289,23.902 9.5859,26.176c12.094,21.398 15.391,37.688 9.5312,47.129c-5.5156,8.8828 -18.047,10.23 -23.348,10.402c-4.9922,-15.781 -19.77,-27.258 -37.18,-27.258c-17.414,0 -32.195,11.48 -37.184,27.266l-10.586,0c-3.1484,-9.9648 -10.211,-18.188 -19.363,-22.914c0.00391,-0.05469 0.03125,-0.09766 0.03125,-0.15234l0,-23.168l82.496,0c1.2266,0 2.3945,-0.53906 3.1953,-1.4727c0.79688,-0.93359 1.1445,-2.1719 0.95312,-3.3828c-0.17578,-1.1133 -16.977,-109.86 4.1016,-154.04l4.9688,0c2.3203,0 4.1992,-1.8828 4.1992,-4.1992c0,-2.3203 -1.8828,-4.1992 -4.1992,-4.1992l-39.086,0l-0.02344,0l-29.691,0l-0.0039,0l-26.914,0l0,-33.191c0,-2.3203 -1.8828,-4.1992 -4.1992,-4.1992c-2.3203,0 -4.1992,1.8828 -4.1992,4.1992l0,33.191l-23.883,0l-0.00391,0l-71.828,-0.00391c-2.3203,0 -4.1992,1.8828 -4.1992,4.1992c0,2.3203 1.8828,4.1992 4.1992,4.1992l10.234,0c-6.4766,22.719 -27.707,109.19 8.7422,157.23c0.79688,1.0469 2.0352,1.6641 3.3477,1.6641l73.391,0l0,20.176c-3.0312,-0.75781 -6.1875,-1.207 -9.4492,-1.207c-17.414,0 -32.191,11.48 -37.18,27.266l-10.586,0c-4.9883,-15.785 -19.77,-27.266 -37.184,-27.266c-13.723,0 -25.789,7.1445 -32.738,17.891c-32.801,-19.641 -12.355,-64.738 -11.398,-66.809c16.277,-38.438 19.145,-66.133 8.5312,-82.32c-8.5039,-12.965 -22.352,-13.203 -22.516,-13.203l-17.598,-1.5938c-19.172,-1.7539 -29.016,0.50391 -31.871,7.3398c-1.7812,4.2617 0.07032,8.7891 2.5938,12.438c-15.406,1.2266 -25.379,5.4492 -29.707,12.602c-4.707,7.7812 -0.75,15.652 -0.69531,15.746c0.23047,0.52734 5.8203,12.965 17.832,13.855c2.2656,0.15234 4.3281,-1.5625 4.5,-3.8789c0.16797,-2.3125 -1.5625,-4.3281 -3.8789,-4.5c-6.9414,-0.51562 -10.73,-8.7812 -10.875,-9.0898c-0.01953,-0.03906 -1.9648,-4.0391 0.30078,-7.7852c1.9766,-3.2695 8.7266,-8.7734 31.719,-8.9219l12.637,0c2.3203,0 4.1992,-1.8828 4.1992,-4.1992c0,-2.3203 -1.8828,-4.1992 -4.1992,-4.1992l-11.043,0c-3.4648,-3.2734 -6.2031,-7.4609 -5.6328,-8.8242c0.01953,-0.04297 2,-4.168 23.355,-2.2109l17.941,1.6094c0.09375,0 9.8555,0.19922 15.91,9.4297c6.1758,9.418 9.5859,29.977 -9.1797,74.297c-0.25391,0.54688 -24.797,54.422 15.301,77.754c-0.91406,2.4453 -1.582,5.0039 -1.9883,7.6523c-15.129,-6.1289 -25.176,-14.504 -29.809,-24.98c-6.0234,-13.629 -0.72266,-26.445 -0.62109,-26.688c0.92188,-2.1211 -0.05078,-4.5898 -2.168,-5.5195c-2.1406,-0.93359 -4.6055,0.03907 -5.5312,2.1641c-0.28516,0.65234 -6.9102,16.188 0.57031,33.289c5.8047,13.273 18.367,23.527 37.207,30.582c0.11719,1.5625 0.30078,3.1094 0.60156,4.6172c-11.645,0.04297 -22.344,-1.5469 -31.766,-4.9414c-2.1836,-0.79688 -4.5898,0.34375 -5.375,2.5273c-0.78906,2.1836 0.34375,4.5898 2.5273,5.375c10.23,3.6875 21.688,5.5469 34.145,5.5469c1.0469,0 2.125,-0.05078 3.1875,-0.07812c6.1172,13.543 19.727,23.008 35.523,23.008c5.8164,0 11.32,-1.3164 16.281,-3.6094l23.379,0c2.3203,0 4.1992,-1.8828 4.1992,-4.1992c0,-2.3203 -1.8828,-4.1992 -4.1992,-4.1992l-11.578,0c6.7383,-7.0117 10.91,-16.512 10.91,-26.984c0,-1.1211 -0.07422,-2.2266 -0.16797,-3.3242l7.3047,0c-0.09375,1.0977 -0.16797,2.2031 -0.16797,3.3242c0,21.5 17.492,38.992 38.988,38.992c5.8164,0 11.32,-1.3164 16.281,-3.6094l25.938,0c2.3203,0 4.1992,-1.8828 4.1992,-4.1992c0,-2.3203 -1.8828,-4.1992 -4.1992,-4.1992l-14.137,0c6.7383,-7.0117 10.91,-16.512 10.91,-26.984c0,-1.1211 -0.07422,-2.2266 -0.16797,-3.3242l7.3047,0c-0.09375,1.0977 -0.16797,2.2031 -0.16797,3.3242c0,21.5 17.492,38.992 38.992,38.992c5.793,0 11.273,-1.3047 16.219,-3.5781c0.31641,0.0039 0.66406,0.00781 1.125,0.00781c8.457,0 39.945,-1.0039 60.344,-14.402c-1.9062,4.4922 -4.1172,9.1094 -6.6914,13.859c-0.05859,0.11719 -5.7734,11.953 -13.941,23.559c-0.01562,0.01953 -0.01562,0.04688 -0.03125,0.06641c-9.2383,1.8203 -14.91,6.9141 -19.977,11.566c-5.8984,5.4141 -10.988,10.094 -21.551,10.094c-10.551,0 -15.637,-4.6758 -21.531,-10.094c-6.2773,-5.7695 -13.391,-12.309 -27.211,-12.309c-13.824,0 -20.941,6.5391 -27.223,12.309c-5.8945,5.4141 -10.984,10.094 -21.539,10.094c-10.551,0 -15.637,-4.6758 -21.531,-10.094c-3.8164,-3.5078 -7.9648,-7.2812 -13.719,-9.7148l58.93,0.07812l0.00391,0c2.3164,0 4.1953,-1.875 4.1992,-4.1953c0.00391,-2.3203 -1.875,-4.2031 -4.1953,-4.207l-61.789,-0.07422l-65.148,-0.08593l-0.00391,0c-2.3164,0 -4.1953,1.875 -4.1992,4.1953c-0.0039,2.3203 1.875,4.2031 4.1953,4.207l41.109,0.05468c-5.793,2.4336 -9.957,6.2266 -13.789,9.75c-5.8945,5.418 -10.977,10.094 -21.523,10.094c-10.547,0 -15.633,-4.6758 -21.523,-10.094c-6.2773,-5.7695 -13.387,-12.309 -27.207,-12.309c-11.629,0 -18.492,4.6328 -24.121,9.5391c-16.312,-6.4609 -27.879,-14.965 -34.52,-25.379c6.6172,2.8945 17.648,7.0977 33.066,10.789c0.33203,0.07813 0.66016,0.11328 0.98047,0.11328c1.8984,0 3.6211,-1.2969 4.082,-3.2227c0.53906,-2.2539 -0.85156,-4.5234 -3.1055,-5.0625c-24.641,-5.9023 -38.012,-13.34 -38.148,-13.41c-0.61719,-0.35156 -1.2812,-0.46875 -1.9453,-0.48828c-1.6406,-5.8555 -2.0117,-12.23 -1.207,-19.086c6.4102,6.2344 27.414,22.055 76.973,23.949c0.05469,0.00391 0.10938,0.00391 0.16406,0.00391c2.2461,0 4.1055,-1.7773 4.1953,-4.0391c0.08594,-2.3203 -1.7188,-4.2695 -4.0352,-4.3594c-55.789,-2.1328 -72.57,-22.723 -72.863,-23.094c-0.6875,-0.90234 -1.6719,-1.4414 -2.7109,-1.6055c1.9375,-7.5859 5.168,-15.691 9.7617,-24.336c1.4336,2.8398 5.0469,9.0898 11.832,15.715c0.81641,0.79688 1.875,1.1953 2.9336,1.1953c1.0898,0 2.1836,-0.42578 3.0039,-1.2656c1.6211,-1.6602 1.5898,-4.3164 -0.07031,-5.9375c-7.6172,-7.4414 -10.598,-14.301 -10.684,-14.504c-0.53516,-1.293 -1.6641,-2.1016 -2.9336,-2.4023c4.1875,-7.0391 9.1602,-14.383 14.996,-22.066c3.8516,-6.3477 37.445,-62.629 31.629,-83.449c-0.98047,-3.5117 -3.0352,-6.168 -5.9375,-7.6836c-0.59766,-0.3125 -1.2656,-0.47656 -1.9414,-0.47656l-37.793,0c-2.3203,0 -4.1992,1.8828 -4.1992,4.1992c0,2.3203 1.8828,4.1992 4.1992,4.1992l36.508,0c0.38672,0.37891 0.78125,0.98438 1.0703,2.0195c3.6445,13.043 -16.906,54.051 -30.469,76.469c-26.871,35.324 -37.137,65.211 -30.512,88.832c4.8633,17.332 18.645,30.914 40.777,40.527c-4.5664,3.8359 -9.4688,6.7109 -17.715,6.7109c-10.547,0 -15.637,-4.6758 -21.527,-10.094c-6.2773,-5.7695 -13.387,-12.309 -27.211,-12.309c-2.3203,0 -4.1992,1.8828 -4.1992,4.1992c0,2.3203 1.8828,4.1992 4.1992,4.1992c10.547,0 15.637,4.6758 21.527,10.094c6.2773,5.7695 13.387,12.309 27.211,12.309c13.82,0 20.934,-6.5391 27.207,-12.309c5.8906,-5.418 10.977,-10.094 21.523,-10.094c10.543,0 15.629,4.6758 21.52,10.094c6.2773,5.7695 13.391,12.309 27.211,12.309s20.934,-6.5391 27.211,-12.309c5.8906,-5.418 10.977,-10.094 21.52,-10.094c10.551,0 15.637,4.6758 21.531,10.094c6.2773,5.7695 13.391,12.309 27.211,12.309c13.824,0 20.941,-6.5391 27.223,-12.309c5.8945,-5.4141 10.984,-10.094 21.539,-10.094c10.551,0 15.637,4.6758 21.531,10.094c6.2773,5.7695 13.391,12.309 27.211,12.309c13.832,0 20.949,-6.5391 27.23,-12.309c5.8984,-5.4141 10.988,-10.094 21.547,-10.094c10.559,0 15.652,4.6797 21.551,10.094c6.2812,5.7695 13.398,12.309 27.23,12.309c2.3203,0 4.1992,-1.8828 4.1992,-4.1992c0.00391,-2.3164 -1.8789,-4.1953 -4.1953,-4.1953l0.00306,0.00157zm-282.96,-49.574c-16.867,0 -30.59,-13.723 -30.59,-30.594c0,-16.867 13.723,-30.59 30.59,-30.59c16.867,0 30.594,13.723 30.594,30.59c-0.00391,16.867 -13.727,30.594 -30.594,30.594zm23.133,-96.953c-33.238,-46.582 -10.367,-133.54 -5.4492,-150.49l16.5,0c-3.3086,12.918 -11.031,47.086 -10.105,81.461c0.05859,2.2812 1.9297,4.0898 4.1953,4.0898c0.03906,0 0.07812,0 0.11328,-0.00391c2.3203,-0.05859 4.1484,-1.9922 4.0859,-4.3086c-0.94141,-35.07 7.6914,-70.918 10.402,-81.238l21.781,0c-6.2227,18.961 -22.676,81.703 4.1836,150.49l-45.70688,-0.00029zm54.762,0c-28.777,-70.434 -9.0586,-136.71 -4.3438,-150.49l50.258,0c-6.4219,18.863 -23.824,80.074 -0.20312,132.64c0.69922,1.5547 2.2305,2.4766 3.832,2.4766c0.57422,0 1.1602,-0.11719 1.7188,-0.37109c2.1133,-0.95312 3.0586,-3.4375 2.1094,-5.5547c-23.426,-52.137 -3.3164,-115.68 1.4648,-129.2l20.266,0c-2.1406,5.5469 -5.3086,14.695 -8.125,26.621c-0.53125,2.2578 0.86719,4.5195 3.1211,5.0547c0.32422,0.07813 0.65234,0.11328 0.96875,0.11328c1.9062,0 3.6289,-1.3008 4.0859,-3.2344c3.293,-13.973 7.1758,-24.148 8.9922,-28.551l22.316,0c-17.578,43.027 -6.9844,128.9 -3.9297,150.49l-16.535,0c-13.203,-27.395 -18.566,-57.914 -15.812,-90.809c0.19141,-2.3125 -1.5234,-4.3438 -3.8359,-4.5352c-2.2773,-0.13281 -4.3438,1.5234 -4.5352,3.8359c-2.7617,32.969 2.3359,63.691 14.953,91.508l-42.887,0c-28.035,-48.961 -20.57,-104.31 -13.492,-133.19c0.55078,-2.2539 -0.82422,-4.5273 -3.0781,-5.082c-2.2461,-0.55859 -4.5273,0.82422 -5.082,3.0781c-7.1836,29.293 -14.672,84.773 12.09,135.19l-24.31713,0.00981zm7.0547,96.953c-16.867,0 -30.59,-13.723 -30.59,-30.594c0,-16.867 13.723,-30.59 30.59,-30.59s30.594,13.723 30.594,30.59c-0.00391,16.867 -13.727,30.594 -30.594,30.594zm84.949,0c-16.867,0 -30.594,-13.723 -30.594,-30.594c0,-16.867 13.723,-30.59 30.594,-30.59c16.867,0 30.59,13.723 30.59,30.59c0,16.867 -13.719,30.594 -30.59,30.594zm28.5,-4.0703c3.7305,-4.0039 6.6289,-8.7812 8.418,-14.078c9,-0.32422 17.508,-1.9453 25.27,-4.9805c2.1602,-0.84375 3.2266,-3.2773 2.3828,-5.4375s-3.2773,-3.2148 -5.4375,-2.3828c-6.2617,2.4492 -13.098,3.8633 -20.344,4.3281c0.13281,-1.3047 0.19922,-2.6289 0.19922,-3.9688c0,-1.1406 -0.07422,-2.2617 -0.17188,-3.3789c7.3633,-0.41797 21.633,-2.7617 28.816,-14.281c7.7617,-12.445 4.5469,-31.328 -9.5469,-56.121c-0.15234,-0.26953 -0.33203,-0.51953 -0.54297,-0.75c-0.09375,-0.10156 -9.2109,-10.43 -7.8281,-19.664c0.60547,-4.0781 3.1953,-7.4258 7.5117,-10.02c0.14844,-0.06641 14.816,-6.6445 27.477,-1.8164c6.2773,2.3945 11.086,7.3281 14.23,14.508c0.57812,1.4961 1.7422,6.0391 0.21484,9.0938c-0.79297,1.5859 -2.2969,2.6719 -5.043,3.4727c-0.10547,0.03906 -10.707,4.1445 -15.16,-1.2812c-0.07422,-0.08984 -0.17578,-0.125 -0.25781,-0.20703c-2.5547,-3.6133 -4.707,-6.0781 -5.8242,-7.2734c-0.15234,-0.70703 -0.19922,-1.5547 -0.03125,-1.8008c0.24609,-0.26562 2.293,-0.96094 7.7422,0.42578c2.2539,0.57031 4.5352,-0.78125 5.1094,-3.0273c0.57422,-2.2461 -0.78125,-4.5352 -3.0273,-5.1094c-7.8281,-2 -13.102,-1.2852 -16.137,2.168c-3.8086,4.3438 -1.5352,10.422 -1.2656,11.102c0.22266,0.5625 0.57031,1.0703 1.0078,1.4844c0.23828,0.22656 12.566,12.309 18.402,34.426c-0.43359,1.5352 -1.7891,4.875 -5.8711,8.3594c-1.7617,1.5078 -1.9727,4.1602 -0.46484,5.9219c0.83203,0.96875 2.0078,1.4727 3.1953,1.4727c0.96484,0 1.9336,-0.33203 2.7266,-1.0078c1.0195,-0.87109 1.9219,-1.7461 2.7227,-2.6094c0.45312,3.7422 0.70312,7.6875 0.67969,11.844c-1.1836,2.0469 -4.375,7.0273 -10.055,12.23c-1.7109,1.5664 -1.8281,4.2227 -0.26172,5.9336c0.82812,0.90625 1.9609,1.3633 3.0977,1.3633c1.0156,0 2.0273,-0.36328 2.8359,-1.1016c1.1289,-1.0352 2.168,-2.0625 3.1328,-3.0664c-0.58203,3.707 -1.3789,7.5391 -2.4219,11.496c-9.6172,17.551 -38.441,22.418 -55.48,23.734l0.00042,-0.00045z"/>
  <use stroke="null" id="svg_30" xlink:href="#s" y="539.60656" x="-0.53145"/>
  <use stroke="null" id="svg_31" xlink:href="#e" y="539.60656" x="20.01933"/>
  <use stroke="null" id="svg_32" xlink:href="#c" y="539.60656" x="33.82793"/>
  <use stroke="null" id="svg_33" xlink:href="#a" y="539.60656" x="52.81621"/>
  <use stroke="null" id="svg_34" xlink:href="#b" y="539.60656" x="71.71074"/>
  <use stroke="null" id="svg_35" xlink:href="#c" y="539.60656" x="85.09746"/>
  <use stroke="null" id="svg_36" xlink:href="#l" y="539.60656" x="104.08574"/>
  <use stroke="null" id="svg_37" xlink:href="#k" y="539.60656" x="133.87871"/>
  <use stroke="null" id="svg_38" xlink:href="#j" y="539.60656" x="153.92168"/>
  <use stroke="null" id="svg_39" xlink:href="#g" y="539.60656" x="181.92168"/>
  <use stroke="null" id="svg_40" xlink:href="#d" y="539.60656" x="191.51543"/>
  <use stroke="null" id="svg_41" xlink:href="#f" y="539.60656" x="210.75371"/>
  <use stroke="null" id="svg_42" xlink:href="#a" y="539.60656" x="230.6873"/>
  <use stroke="null" id="svg_43" xlink:href="#b" y="539.60656" x="249.58183"/>
  <use stroke="null" id="svg_44" xlink:href="#a" y="539.60656" x="262.96855"/>
  <use stroke="null" id="svg_45" xlink:href="#i" y="539.60656" x="291.60918"/>
  <use stroke="null" id="svg_46" xlink:href="#a" y="539.60656" x="311.54277"/>
  <use stroke="null" id="svg_47" xlink:href="#f" y="539.60656" x="330.4373"/>
  <use stroke="null" id="svg_48" xlink:href="#h" y="539.60656" x="350.3709"/>
  <use stroke="null" id="svg_49" xlink:href="#h" y="539.60656" x="370.41386"/>
  <use stroke="null" id="svg_50" xlink:href="#a" y="539.60656" x="390.45683"/>
  <use stroke="null" id="svg_51" xlink:href="#r" y="567.60656" x="-0.53145"/>
  <use stroke="null" id="svg_52" xlink:href="#e" y="567.60656" x="11.65215"/>
  <use stroke="null" id="svg_53" xlink:href="#d" y="567.60656" x="25.46074"/>
  <use stroke="null" id="svg_54" xlink:href="#q" y="567.60656" x="44.69511"/>
  <use stroke="null" id="svg_55" xlink:href="#b" y="567.60656" x="83.6209"/>
  <use stroke="null" id="svg_56" xlink:href="#i" y="567.60656" x="97.00371"/>
  <use stroke="null" id="svg_57" xlink:href="#c" y="567.60656" x="116.9373"/>
  <use stroke="null" id="svg_58" xlink:href="#p" y="567.60656" x="145.67558"/>
  <use stroke="null" id="svg_59" xlink:href="#d" y="567.60656" x="169.10918"/>
  <use stroke="null" id="svg_60" xlink:href="#o" y="567.60656" x="188.34746"/>
  <use stroke="null" id="svg_61" xlink:href="#f" y="567.60656" x="208.28105"/>
  <use stroke="null" id="svg_62" xlink:href="#n" y="567.60656" x="237.96074"/>
  <use stroke="null" id="svg_63" xlink:href="#e" y="567.60656" x="258.48418"/>
  <use stroke="null" id="svg_64" xlink:href="#d" y="567.60656" x="272.28886"/>
  <use stroke="null" id="svg_65" xlink:href="#g" y="567.60656" x="291.52715"/>
  <use stroke="null" id="svg_66" xlink:href="#c" y="567.60656" x="301.1248"/>
  <use stroke="null" id="svg_67" xlink:href="#m" y="567.60656" x="320.11699"/>
  <use stroke="null" id="svg_68" xlink:href="#b" y="567.60656" x="336.71074"/>
 </g>
</svg>